<svg id="_002-air-bnb" data-name="002-air-bnb" xmlns="http://www.w3.org/2000/svg" width="30" height="32.014" viewBox="0 0 30 32.014">
  <g id="Group_129" data-name="Group 129" transform="translate(0)">
    <g id="Group_128" data-name="Group 128">
      <path id="Path_91" data-name="Path 91" d="M107.039,165.69a.625.625,0,1,0,0-1.251h0a.625.625,0,0,0,0,1.251Z" transform="translate(-100.766 -154.157)"/>
      <path id="Path_92" data-name="Path 92" d="M88.132,69.4a4.74,4.74,0,0,0-.464-2.132L79.444,50.081a3.668,3.668,0,0,0-6.613,0L64.606,67.267a4.711,4.711,0,0,0,6.626,6.1,14.676,14.676,0,0,0,3.09-2.413l.2-.208a.625.625,0,0,0,.036-.834c-1.228-1.493-3.289-4.489-3.289-7.772a4.868,4.868,0,1,1,9.73,0c0,3.283-2.061,6.278-3.289,7.772a.625.625,0,0,0,.036.834l.2.208a14.676,14.676,0,0,0,3.09,2.413,4.726,4.726,0,0,0,4.316.229.625.625,0,0,0-.514-1.14,3.474,3.474,0,0,1-3.171-.169,13.427,13.427,0,0,1-2.643-2.022c1.341-1.732,3.221-4.759,3.221-8.125a6.118,6.118,0,1,0-12.231,0c0,3.366,1.88,6.393,3.221,8.125A13.424,13.424,0,0,1,70.6,72.288a3.46,3.46,0,0,1-4.867-4.481l8.225-17.186a2.417,2.417,0,0,1,4.357,0l8.225,17.187a3.482,3.482,0,0,1,.341,1.567.625.625,0,0,0,1.25.026Z" transform="translate(-61.137 -44.999)"/>
      <path id="Path_93" data-name="Path 93" d="M45.344,20.973,37.119,3.787a6.669,6.669,0,0,0-12.027,0L22.964,8.229a.625.625,0,0,0,1.128.54L26.22,4.326a5.418,5.418,0,0,1,9.771,0l8.225,17.187a6.461,6.461,0,0,1-9.089,8.368,16.43,16.43,0,0,1-3.459-2.7l-.116-.119a.625.625,0,0,0-.895,0l-.116.118a16.429,16.429,0,0,1-3.459,2.7,6.461,6.461,0,0,1-9.089-8.368l3.676-7.682a.625.625,0,0,0-1.128-.54l-3.676,7.682A7.712,7.712,0,0,0,27.714,30.96a17.684,17.684,0,0,0,3.391-2.576A17.681,17.681,0,0,0,34.5,30.96a7.712,7.712,0,0,0,10.848-9.987Z" transform="translate(-16.105)"/>
      <path id="Path_94" data-name="Path 94" d="M209.307,221.506a3.209,3.209,0,0,0-3.11,3.292c0,2.573,1.639,5.067,2.616,6.325a.625.625,0,0,0,.493.242h0a.625.625,0,0,0,.492-.24,10.959,10.959,0,0,0,2.626-6.327A3.212,3.212,0,0,0,209.307,221.506Zm0,8.179a9.41,9.41,0,0,1-1.862-4.887,1.871,1.871,0,1,1,3.727,0A9.179,9.179,0,0,1,209.31,229.685Z" transform="translate(-194.311 -207.656)"/>
      <path id="Path_95" data-name="Path 95" d="M418.388,413.588a.625.625,0,0,0-.862.2l-.018.028a.625.625,0,1,0,1.051.677l.025-.039A.625.625,0,0,0,418.388,413.588Z" transform="translate(-392.316 -387.637)"/>
    </g>
  </g>
</svg>
