<svg xmlns="http://www.w3.org/2000/svg" width="18" height="19.182" viewBox="0 0 18 19.182">
  <path id="_001-ferris-wheel" data-name="001-ferris-wheel" d="M33.1,4.72H31.559a7.844,7.844,0,0,0-4.511-3.651V.656A.657.657,0,0,0,26.393,0H23.127a.657.657,0,0,0-.656.656v.413a7.747,7.747,0,0,0-2.11,1.021.281.281,0,1,0,.318.463,7.188,7.188,0,0,1,1.792-.894,1.861,1.861,0,0,0,.079.567A6.7,6.7,0,0,0,19.285,4.72h-.672A7.269,7.269,0,0,1,19.7,3.356a.281.281,0,0,0-.394-.4,7.825,7.825,0,0,0-1.35,1.765H16.416a.657.657,0,0,0-.656.656V6.414a1.847,1.847,0,0,0,1.22,1.735c-.006.122-.009.245-.009.367a7.752,7.752,0,0,0,1.08,3.956.655.655,0,0,0-.284.54v1.038a1.846,1.846,0,0,0,1.844,1.844h.7l-.7,1.413h-.439a1.032,1.032,0,0,0-1.031,1.031v.187a.657.657,0,0,0,.656.656H30.5a.657.657,0,0,0,.656-.656v-.187a1.032,1.032,0,0,0-1.031-1.031H29.9l-.7-1.413h.7a1.846,1.846,0,0,0,1.844-1.844V13.012a.655.655,0,0,0-.284-.54,7.752,7.752,0,0,0,1.081-3.956c0-.122,0-.245-.009-.367a1.847,1.847,0,0,0,1.22-1.735V5.376A.657.657,0,0,0,33.1,4.72Zm-2.2,0h-.671A6.7,6.7,0,0,0,26.97,2.226a1.86,1.86,0,0,0,.079-.568A7.283,7.283,0,0,1,30.907,4.72Zm-4.4,3.566a1.747,1.747,0,0,0-.162-.538l2.9-.874a1.835,1.835,0,0,0,.224.52ZM24.76,16.308A7.734,7.734,0,0,0,26.934,16l.658,1.307H21.927L22.586,16A7.734,7.734,0,0,0,24.76,16.308Zm2.247-.92a7.232,7.232,0,0,1-5.05-.209,1.842,1.842,0,0,0,.275-.495,6.659,6.659,0,0,0,5.055,0,1.843,1.843,0,0,0,.275.495Q27.288,15.3,27.007,15.389Zm-5.069-4.383a.281.281,0,0,0-.4.034l-1.105,1.316H20.02a6.106,6.106,0,0,1-1.361-3.84c0-.089,0-.178.006-.267a1.835,1.835,0,0,0,.979-.4l3.393,1.024a1.744,1.744,0,0,0,.085.282l-.734.874a.281.281,0,1,0,.431.362l.612-.728a1.775,1.775,0,0,0,.43.362L21.88,12.385a.653.653,0,0,0-.191-.029H21.17l.8-.954a.281.281,0,0,0-.034-.4ZM20.28,6.872l2.9.874a1.747,1.747,0,0,0-.162.538l-2.958-.892A1.834,1.834,0,0,0,20.28,6.872Zm4.2-3.334h.562v3.24a1.763,1.763,0,0,0-.562,0Zm-.172,3.868a1.2,1.2,0,0,1,1.651,1.111,1.192,1.192,0,0,1-.14.561l0,0a1.2,1.2,0,0,1-2.118,0h0a1.2,1.2,0,0,1,.608-1.671Zm2.869,6.716a6.1,6.1,0,0,1-4.833,0c0-.024,0-.048,0-.072V13.012a.652.652,0,0,0-.049-.248l2.117-2.52a1.769,1.769,0,0,0,.69,0l2.115,2.537a.652.652,0,0,0-.043.23v1.038c0,.024,0,.048,0,.072Zm.654-1.766a.653.653,0,0,0-.208.034l-1.966-2.359a1.773,1.773,0,0,0,.431-.36l2.238,2.685Zm1.352-6.981V6.3L26,7.264a1.772,1.772,0,0,0-.392-.293V3.494a1.849,1.849,0,0,0,1.12-.758,6.132,6.132,0,0,1,2.852,2.038.657.657,0,0,0-.395.6ZM23.034.656a.094.094,0,0,1,.094-.094h3.266a.094.094,0,0,1,.094.094V1.694A1.283,1.283,0,0,1,25.2,2.976h-.889a1.283,1.283,0,0,1-1.282-1.282ZM22.8,2.737a1.849,1.849,0,0,0,1.123.758V6.97a1.771,1.771,0,0,0-.395.294L20.338,6.3V5.376a.657.657,0,0,0-.395-.6A6.131,6.131,0,0,1,22.8,2.737ZM16.322,6.414V5.376a.094.094,0,0,1,.094-.094h3.266a.094.094,0,0,1,.094.094c0,.072,0,1.059,0,1.112A1.283,1.283,0,0,1,18.493,7.7H17.6A1.283,1.283,0,0,1,16.322,6.414Zm1.216,1.843c.024,0,.524,0,.563,0,0,.086-.005.173-.005.259a6.669,6.669,0,0,0,1.219,3.84H18.64a7.191,7.191,0,0,1-1.106-3.84c0-.087,0-.173,0-.26Zm.791,5.794V13.012a.094.094,0,0,1,.094-.094h3.266a.094.094,0,0,1,.094.094v1.038A1.285,1.285,0,0,1,20.5,15.333h-.889A1.283,1.283,0,0,1,18.33,14.051Zm2.643,1.783a1.835,1.835,0,0,0,.534-.238q.267.123.54.225L21.3,17.307H20.243Zm9.617,2.5v.187a.094.094,0,0,1-.094.094H18.8a.094.094,0,0,1-.094-.094v-.187a.469.469,0,0,1,.469-.469H30.122A.469.469,0,0,1,30.59,18.338Zm-2.368-1.031-.749-1.487q.273-.1.54-.225a1.836,1.836,0,0,0,.534.238l.73,1.474Zm2.968-3.257a1.283,1.283,0,0,1-1.282,1.282h-.889a1.285,1.285,0,0,1-1.282-1.282V13.012a.094.094,0,0,1,.094-.094H31.1a.094.094,0,0,1,.094.094Zm.8-5.534a7.191,7.191,0,0,1-1.106,3.84H30.2a6.667,6.667,0,0,0,.607-1.048.281.281,0,0,0-.51-.236,6.119,6.119,0,0,1-.8,1.284h-.441L26.4,9.164a1.746,1.746,0,0,0,.086-.285l3.394-1.024a1.834,1.834,0,0,0,.978.395c0,.089.006.178.006.267a6.119,6.119,0,0,1-.155,1.37.281.281,0,1,0,.548.126,6.684,6.684,0,0,0,.169-1.5c0-.086,0-.172-.005-.259.041,0,.538,0,.563,0,0,.087,0,.174,0,.26Zm1.211-2.1A1.283,1.283,0,0,1,31.916,7.7h-.889a1.283,1.283,0,0,1-1.28-1.207c0-.025,0-.05,0-.075V5.376a.094.094,0,0,1,.094-.094H33.1a.094.094,0,0,1,.094.094Z" transform="translate(-15.76)"/>
</svg>
