<svg xmlns="http://www.w3.org/2000/svg" width="18" height="18" viewBox="0 0 18 18">
  <g id="_010-cake" data-name="010-cake" transform="translate(0 0)">
    <path id="Path_776" data-name="Path 776" d="M8.434,2.455a1.288,1.288,0,0,0,.38.917A.264.264,0,1,0,9.186,3a.77.77,0,0,1,0-1.088,1.3,1.3,0,0,0,0-1.834A.264.264,0,0,0,8.814.45a.77.77,0,0,1,0,1.088A1.288,1.288,0,0,0,8.434,2.455ZM15.7,8.435a2.3,2.3,0,0,0-.876.172,5.19,5.19,0,0,0-1.7-2.1.264.264,0,0,0-.315.423,4.658,4.658,0,0,1,1.531,1.894.513.513,0,0,0,.669.271,1.76,1.76,0,1,1-.564,2.872.511.511,0,0,0-.715,0,1.785,1.785,0,0,1-2.6-.108.512.512,0,0,0-.388-.179h0a.511.511,0,0,0-.388.179,1.785,1.785,0,0,1-2.7,0,.511.511,0,0,0-.777,0,1.785,1.785,0,0,1-2.6.108.511.511,0,0,0-.715,0A1.762,1.762,0,1,1,2.989,9.1a.513.513,0,0,0,.669-.271A5.694,5.694,0,0,1,9,5.731a6.677,6.677,0,0,1,2.8.6.264.264,0,1,0,.222-.478A7.207,7.207,0,0,0,9,5.2a6.228,6.228,0,0,0-5.821,3.4,2.29,2.29,0,1,0-1.458,4.329L2.977,16.43A2.379,2.379,0,0,0,5.21,18H6.777a.264.264,0,0,0,0-.527H5.21a1.85,1.85,0,0,1-1.737-1.222L2.308,13.01a2.3,2.3,0,0,0,1.6-.651,2.312,2.312,0,0,0,3.349-.139,2.312,2.312,0,0,0,3.481,0,2.312,2.312,0,0,0,3.349.139,2.3,2.3,0,0,0,1.6.651l-1.165,3.241a1.85,1.85,0,0,1-1.737,1.222H8.007a.264.264,0,0,0,0,.527H12.79a2.379,2.379,0,0,0,2.233-1.571l1.256-3.493a2.286,2.286,0,0,0-.582-4.5ZM10.4,3.646a.264.264,0,0,0,.373-.373.494.494,0,0,1,0-.7,1.022,1.022,0,0,0,0-1.443.264.264,0,0,0-.373.373.494.494,0,0,1,0,.7,1.022,1.022,0,0,0,0,1.443Zm-3.164,0A.264.264,0,0,0,7.6,3.273a.494.494,0,0,1,0-.7,1.022,1.022,0,0,0,0-1.443.264.264,0,0,0-.373.373.494.494,0,0,1,0,.7,1.022,1.022,0,0,0,0,1.443Zm-2.5,5.56a.612.612,0,0,0,.447.169,1.817,1.817,0,0,0,1.181-.6,2.251,2.251,0,0,0,.54-.818.751.751,0,0,0-.105-.81c-.34-.34-1.04-.153-1.628.435h0a2.251,2.251,0,0,0-.54.818A.751.751,0,0,0,4.734,9.206Zm.393-.638a1.745,1.745,0,0,1,.415-.618h0a1.348,1.348,0,0,1,.81-.453.108.108,0,0,1,.073.018c.017.017.035.1-.02.265a1.745,1.745,0,0,1-.415.618c-.432.432-.825.493-.882.435C5.089,8.815,5.072,8.728,5.127,8.568Zm3.029-.394c0,.832.363,1.459.844,1.459s.844-.627.844-1.459S9.481,6.715,9,6.715s-.844.627-.844,1.459Zm1.16,0c0,.611-.235.932-.316.932s-.316-.32-.316-.932.235-.932.316-.932S9.316,7.563,9.316,8.174Zm1.746-1.032a.751.751,0,0,0-.105.81,2.252,2.252,0,0,0,.54.818,1.817,1.817,0,0,0,1.181.6.613.613,0,0,0,.447-.169.751.751,0,0,0,.105-.81,2.252,2.252,0,0,0-.54-.818C12.1,6.989,11.4,6.8,11.062,7.142Zm1.255.808a1.746,1.746,0,0,1,.415.618c.055.16.038.247.02.265-.058.058-.45,0-.883-.435a1.746,1.746,0,0,1-.415-.618c-.055-.16-.038-.247-.02-.265a.108.108,0,0,1,.073-.018,1.348,1.348,0,0,1,.81.453Z"/>
  </g>
</svg>
