<svg xmlns="http://www.w3.org/2000/svg" width="35" height="27.073" viewBox="0 0 35 27.073">
  <g id="_002-car" data-name="002-car" transform="translate(0 -53)">
    <g id="Group_404" data-name="Group 404" transform="translate(0 53)">
      <g id="Group_403" data-name="Group 403" transform="translate(0 0)">
        <path id="Path_539" data-name="Path 539" d="M33.661,63.059l-.763-.808-2.677-7.217A3.14,3.14,0,0,0,27.3,53H8.174A3.13,3.13,0,0,0,5.25,55.034L2.61,62.161l-1.1,1.017A4.3,4.3,0,0,0,0,66.447V76.962a3.126,3.126,0,0,0,3.126,3.111H5.1a3.126,3.126,0,0,0,3.126-3.111V75.436H26.774v1.526A3.126,3.126,0,0,0,29.9,80.073h1.974A3.126,3.126,0,0,0,35,76.962V66.17A4.337,4.337,0,0,0,33.661,63.059ZM6.656,55.543A1.617,1.617,0,0,1,8.174,54.5H27.3a1.628,1.628,0,0,1,1.518,1.047l2.333,6.282H29.413a5.13,5.13,0,0,0-10.149,0H4.323Zm21.232,6.282H20.776a3.633,3.633,0,0,1,7.112,0ZM6.731,76.962A1.626,1.626,0,0,1,5.1,78.577H3.126A1.626,1.626,0,0,1,1.5,76.962V75a3.037,3.037,0,0,0,1.63.434h3.6Zm26.774,0a1.626,1.626,0,0,1-1.63,1.615H29.9a1.631,1.631,0,0,1-1.63-1.615V75.436h3.6A3.037,3.037,0,0,0,33.5,75Zm-1.63-3.021H3.126a1.613,1.613,0,0,1-1.63-1.6V66.447a2.808,2.808,0,0,1,.995-2.139l.03-.03,1.017-.957H31.859l.718.77c.007.015.03.022.037.037A2.819,2.819,0,0,1,33.5,66.17v6.17H33.5A1.618,1.618,0,0,1,31.874,73.94Z" transform="translate(0 -53)"/>
      </g>
    </g>
    <g id="Group_406" data-name="Group 406" transform="translate(3.515 66.312)">
      <g id="Group_405" data-name="Group 405">
        <path id="Path_540" data-name="Path 540" d="M53.357,231H47.748a.75.75,0,0,0-.748.748v3.889a.75.75,0,0,0,.748.748h5.609a.75.75,0,0,0,.748-.748v-3.889A.75.75,0,0,0,53.357,231Zm-.748,3.889H48.5V232.5h4.113Z" transform="translate(-47 -231)"/>
      </g>
    </g>
    <g id="Group_408" data-name="Group 408" transform="translate(24.38 66.312)">
      <g id="Group_407" data-name="Group 407">
        <path id="Path_541" data-name="Path 541" d="M332.357,231h-5.609a.75.75,0,0,0-.748.748v3.889a.75.75,0,0,0,.748.748h5.609a.75.75,0,0,0,.748-.748v-3.889A.75.75,0,0,0,332.357,231Zm-.748,3.889H327.5V232.5h4.113Z" transform="translate(-326 -231)"/>
      </g>
    </g>
    <g id="Group_410" data-name="Group 410" transform="translate(13.14 69.453)">
      <g id="Group_409" data-name="Group 409" transform="translate(0 0)">
        <path id="Path_542" data-name="Path 542" d="M183.672,273h-7.224a.748.748,0,1,0,0,1.5h7.224a.748.748,0,1,0,0-1.5Z" transform="translate(-175.7 -273)"/>
      </g>
    </g>
    <g id="Group_412" data-name="Group 412" transform="translate(13.14 67.135)">
      <g id="Group_411" data-name="Group 411" transform="translate(0 0)">
        <path id="Path_543" data-name="Path 543" d="M183.672,242h-7.224a.748.748,0,1,0,0,1.5h7.224a.748.748,0,1,0,0-1.5Z" transform="translate(-175.7 -242)"/>
      </g>
    </g>
  </g>
</svg>
