<svg xmlns="http://www.w3.org/2000/svg" width="18" height="16.69" viewBox="0 0 18 16.69">
  <g id="_008-church" data-name="008-church" transform="translate(0 -18.625)">
    <path id="Path_766" data-name="Path 766" d="M17.752,28.136l-4.176-1.291V24.81a.352.352,0,0,0-.132-.274L9.352,21.251V20.137h.466a.352.352,0,1,0,0-.7H9.352v-.457a.352.352,0,0,0-.7,0v.457H8.183a.352.352,0,0,0,0,.7h.466v1.114L4.556,24.535a.352.352,0,0,0-.132.274v2.036L.248,28.136A.352.352,0,0,0,0,28.472v6.492a.352.352,0,0,0,.352.352h17.3A.352.352,0,0,0,18,34.964V28.472a.352.352,0,0,0-.248-.336ZM.7,28.731l3.721-1.15v7.031H.7Zm4.424-3.753L9,21.87l3.873,3.108v9.634H11.231v-3.04a2.231,2.231,0,0,0-4.462,0v3.04H5.127Zm2.345,9.634v-3.04a1.528,1.528,0,0,1,3.056,0v3.04Zm9.825,0H13.576V27.581l3.721,1.15Z"/>
    <path id="Path_767" data-name="Path 767" d="M410.508,314.39h1.33a.352.352,0,0,0,.352-.352v-3.8a.352.352,0,0,0-.248-.336l-1.33-.411a.351.351,0,0,0-.455.336v4.215A.352.352,0,0,0,410.508,314.39Zm.352-4.09.627.194v3.193h-.627Z" transform="translate(-395.736 -280.622)"/>
    <path id="Path_768" data-name="Path 768" d="M45.89,309.541a.352.352,0,0,0-.313-.053l-1.33.411a.352.352,0,0,0-.248.336v3.8a.352.352,0,0,0,.352.352h1.33a.352.352,0,0,0,.352-.352v-4.215A.352.352,0,0,0,45.89,309.541Zm-.56,4.147H44.7v-3.193l.627-.194Z" transform="translate(-42.452 -280.622)"/>
    <path id="Path_769" data-name="Path 769" d="M207.961,167.273h2.7a.352.352,0,0,0,.352-.352v-2.465a1.7,1.7,0,0,0-3.4,0v2.465A.352.352,0,0,0,207.961,167.273Zm.352-2.817a1,1,0,0,1,2,0v2.113h-2Z" transform="translate(-200.31 -139.064)"/>
  </g>
</svg>
