<svg id="_010-elephant" data-name="010-elephant" xmlns="http://www.w3.org/2000/svg" width="30" height="22.625" viewBox="0 0 30 22.625">
  <path id="Path_136" data-name="Path 136" d="M42.756,81.017c-1.52-1.773-3.974-2.407-7.293-1.884a12.764,12.764,0,0,1-4.739-.947.5.5,0,0,0-.065-.027,5.318,5.318,0,0,0-3.713.445,8.349,8.349,0,0,0-6.7,1.362C17.428,82.089,16,86.183,16,92.133a12.239,12.239,0,0,0,.587,3.4,7.894,7.894,0,0,0,4.21,5.054.5.5,0,0,0,.6-.157l1.5-2a.5.5,0,0,0-.1-.7,7.376,7.376,0,0,1-1.682-1.979,6.593,6.593,0,0,1-.724-5.172L23,90.209v1.924a.5.5,0,0,0,.465.5,6.821,6.821,0,0,0,2.035-.243V96.2A2,2,0,0,0,24,98.133v1.5a.5.5,0,0,0,.5.5H30a.5.5,0,0,0,.5-.5v-6.58c1.029.509,3.031,1.051,6.249.172A7.171,7.171,0,0,0,38.5,95.413v.72a2,2,0,0,0-2,2v1.5a.5.5,0,0,0,.5.5h5.5a.5.5,0,0,0,.5-.462l.5-6.443a24.587,24.587,0,0,0,.9-4.534,18.915,18.915,0,0,0,.1-1.891A27.4,27.4,0,0,1,45,92.633a.5.5,0,1,0,1,0c0-5.989-1.083-8.435-2.033-9.429A6.526,6.526,0,0,0,42.756,81.017ZM42.524,92.98a.5.5,0,0,0-.023.115l-.464,6.038H37.5v-1a1,1,0,0,1,1-1H39a.5.5,0,0,0,.5-.5v-1.5a.5.5,0,0,0-.276-.447,6.186,6.186,0,0,1-1.776-2.276.5.5,0,0,0-.591-.255,9.757,9.757,0,0,1-5.019.331,3.616,3.616,0,0,1-1.484-.705.5.5,0,0,0-.854.354v7H25v-1a1,1,0,0,1,1-1,.5.5,0,0,0,.5-.5V92.05a7.681,7.681,0,0,0,4.924-5.423,8.417,8.417,0,0,0,.062-3.613.5.5,0,0,0-.237-.316l-3.036-1.735a1.5,1.5,0,0,0-1.415-.039l-1.521.761a.5.5,0,1,0,.447.894l1.521-.761a.5.5,0,0,1,.472.013l2.836,1.621a7.7,7.7,0,0,1-.111,2.98,6.784,6.784,0,0,1-4.616,4.806A6.647,6.647,0,0,1,24,91.626V87.633a.5.5,0,0,0-1,0V89.2l-3.071.439a.5.5,0,0,0-.408.351,7.69,7.69,0,0,0,.736,6.273,8.8,8.8,0,0,0,1.563,1.945l-.973,1.3a6.95,6.95,0,0,1-3.3-4.247A11.447,11.447,0,0,1,17,92.133a21.262,21.262,0,0,1,1.172-7.617,8.4,8.4,0,0,1,2.664-3.745,6.988,6.988,0,0,1,4.257-1.357,7.329,7.329,0,0,1,1.771.2.5.5,0,0,0,.361-.034,4.482,4.482,0,0,1,3.092-.481A13.808,13.808,0,0,0,35.5,80.133a.492.492,0,0,0,.079-.006c2.973-.475,5.132.042,6.417,1.54C44.993,85.16,42.55,92.9,42.524,92.98Z" transform="translate(-16 -78.008)"/>
  <circle id="Ellipse_13" data-name="Ellipse 13" cx="0.541" cy="0.541" r="0.541" transform="translate(5.984 6.134)"/>
</svg>
