<svg id="_005-family" data-name="005-family" xmlns="http://www.w3.org/2000/svg" width="30" height="27.49" viewBox="0 0 30 27.49">
  <g id="Group_141" data-name="Group 141" transform="translate(6.527 9.54)">
    <g id="Group_140" data-name="Group 140">
      <path id="Path_101" data-name="Path 101" d="M114.122,184.329a.439.439,0,0,0-.618.065.817.817,0,0,1-1.326,0,.439.439,0,1,0-.683.554,1.694,1.694,0,0,0,2.691,0A.439.439,0,0,0,114.122,184.329Z" transform="translate(-111.397 -184.231)"/>
    </g>
  </g>
  <g id="Group_143" data-name="Group 143" transform="translate(5.523 7.029)">
    <g id="Group_142" data-name="Group 142">
      <path id="Path_102" data-name="Path 102" d="M94.7,141.386a.439.439,0,0,0-.439.439v.5a.439.439,0,0,0,.879,0v-.5A.439.439,0,0,0,94.7,141.386Z" transform="translate(-94.259 -141.386)"/>
    </g>
  </g>
  <g id="Group_145" data-name="Group 145" transform="translate(9.54 7.029)">
    <g id="Group_144" data-name="Group 144">
      <path id="Path_103" data-name="Path 103" d="M163.25,141.386a.439.439,0,0,0-.439.439v.5a.439.439,0,0,0,.879,0v-.5A.439.439,0,0,0,163.25,141.386Z" transform="translate(-162.811 -141.386)"/>
    </g>
  </g>
  <g id="Group_147" data-name="Group 147" transform="translate(21.088 12.05)">
    <g id="Group_146" data-name="Group 146">
      <path id="Path_104" data-name="Path 104" d="M362.622,227.173a.439.439,0,0,0-.618.065.817.817,0,0,1-1.326,0,.439.439,0,1,0-.683.554,1.694,1.694,0,0,0,2.691,0A.439.439,0,0,0,362.622,227.173Z" transform="translate(-359.898 -227.075)"/>
    </g>
  </g>
  <g id="Group_149" data-name="Group 149" transform="translate(20.084 9.54)">
    <g id="Group_148" data-name="Group 148">
      <path id="Path_105" data-name="Path 105" d="M343.2,184.231a.439.439,0,0,0-.439.439v.5a.439.439,0,1,0,.879,0v-.5A.439.439,0,0,0,343.2,184.231Z" transform="translate(-342.759 -184.231)"/>
    </g>
  </g>
  <g id="Group_151" data-name="Group 151" transform="translate(24.1 9.54)">
    <g id="Group_150" data-name="Group 150">
      <path id="Path_106" data-name="Path 106" d="M411.75,184.231a.439.439,0,0,0-.439.439v.5a.439.439,0,0,0,.879,0v-.5A.439.439,0,0,0,411.75,184.231Z" transform="translate(-411.311 -184.231)"/>
    </g>
  </g>
  <g id="Group_153" data-name="Group 153" transform="translate(0 0)">
    <g id="Group_152" data-name="Group 152">
      <path id="Path_107" data-name="Path 107" d="M28.777,39.65l-3.443-1.377a.576.576,0,0,1-.053-.026,9.094,9.094,0,0,0,3.554-1.487.44.44,0,0,0,.157-.4,56.932,56.932,0,0,1-.5-6.967,5.962,5.962,0,1,0-11.925,0c0,.9-.041,2-.107,3.046l-.959.48-2.816-1.408-.025-.01a4.923,4.923,0,0,0,.254-1.229,1.443,1.443,0,0,0,.516-2.473V24.872a2.446,2.446,0,0,0-1.077-2.018,1.932,1.932,0,0,0-1.873-1.434H6.464A3.959,3.959,0,0,0,2.51,25.374V27.8a1.443,1.443,0,0,0,.516,2.473,4.956,4.956,0,0,0,1.994,3.606v1.215l-3.634,1.09A1.934,1.934,0,0,0,0,38.043v4.9a.439.439,0,0,0,.439.439H.5V48.47a.439.439,0,0,0,.879,0V43.387H3.013V48.47a.439.439,0,0,0,.879,0V40.893a1.94,1.94,0,0,0-.327-1.079l-.751-1.127a.439.439,0,1,0-.731.488L2.833,40.3a1.063,1.063,0,0,1,.179.592v1.615H.879V38.043a1.06,1.06,0,0,1,.76-1.022l1.509-.453a4.959,4.959,0,0,0,7.173,3.214,1.442,1.442,0,0,0,1.165.592h.063v.063a3.956,3.956,0,0,0,2.008,3.44v.717a.063.063,0,0,1-.043.059l-1.639.546a1.943,1.943,0,0,0-1.33,1.846V48.47a.439.439,0,0,0,.879,0V47.046a1.065,1.065,0,0,1,.729-1.012l.482-.161a3.452,3.452,0,0,0,5.736,0l.482.161a1.065,1.065,0,0,1,.729,1.012V48.47a.439.439,0,1,0,.879,0V47.046A1.943,1.943,0,0,0,19.13,45.2l-1.639-.546a.063.063,0,0,1-.043-.059v-.717a3.97,3.97,0,0,0,1.861-2.372,4.456,4.456,0,0,0,7.465-1.71l1.677.671a1.062,1.062,0,0,1,.671.99v2.055H27.49v-.565a.439.439,0,1,0-.879,0V48.47a.439.439,0,0,0,.879,0V44.391h1.129V48.47a.439.439,0,1,0,.879,0V44.391h.063A.439.439,0,0,0,30,43.952V41.457A1.936,1.936,0,0,0,28.777,39.65ZM17.448,29.391a5.084,5.084,0,1,1,10.167,0,57.7,57.7,0,0,0,.471,6.825,9.408,9.408,0,0,1-3.107,1.2v-.7a4.921,4.921,0,0,0,.667-.453A4.947,4.947,0,0,0,27.49,32.4c0-2.484-1.8-2.84-3.534-3.185A7.05,7.05,0,0,1,20.8,28.044a.439.439,0,0,0-.714.343c0,.012-.019,1.168-1.675,1.582a.439.439,0,0,0,.213.853A2.908,2.908,0,0,0,20.8,29.113a9.2,9.2,0,0,0,2.981.967c1.857.369,2.826.639,2.826,2.323a4.068,4.068,0,0,1-1.517,3.174,4.079,4.079,0,0,1-4.936.142,4.966,4.966,0,0,0-1.2-1.854V31.9a.439.439,0,0,0-.636-.393l-.949.474C17.421,31.068,17.448,30.2,17.448,29.391Zm.627,3.222V34.2l-1.59-.8Zm-5.146,0,1.59.8-1.59.8Zm-2.385,4.812v.417a1.444,1.444,0,0,0-.5,1.089,4.08,4.08,0,0,1-6.05-2.615l1.086-.326a2.949,2.949,0,0,0,5.509.788A4.942,4.942,0,0,0,10.544,37.424ZM5.9,35.415V34.4a4.952,4.952,0,0,0,4.142,0v1.019a2.071,2.071,0,0,1-4.142.006S5.9,35.417,5.9,35.415Zm2.071-1.443a4.084,4.084,0,0,1-4.079-4.079.439.439,0,0,0-.439-.439.565.565,0,1,1,0-1.129h1a.439.439,0,0,0,.417-.3l.4-1.21a16.707,16.707,0,0,0,5.9-1.046.439.439,0,0,0-.393-.786c-1.891.946-5.79.958-5.829.958a.439.439,0,0,0-.417.3l-.4,1.206H3.452l-.063,0V25.374A3.079,3.079,0,0,1,6.465,22.3h4.017a1.059,1.059,0,0,1,1.048.9.439.439,0,0,0,.218.314,1.569,1.569,0,0,1,.8,1.36v2.575l-.063,0h-.5a.439.439,0,0,0,0,.879h.5a.565.565,0,1,1,0,1.129.439.439,0,0,0-.439.439A4.084,4.084,0,0,1,7.971,33.972Zm2.95,1.444V33.874a5,5,0,0,0,1.129-1.168v1.159a4.965,4.965,0,0,0-1.133,1.672C10.919,35.5,10.921,35.457,10.921,35.416ZM17.493,45.58a2.571,2.571,0,0,1-3.982,0l.28-.093a.94.94,0,0,0,.644-.893v-.35a3.934,3.934,0,0,0,2.134,0v.35a.94.94,0,0,0,.644.893ZM19.017,39.5a.439.439,0,0,0-.439.439v.437s0,.008,0,.011v.054a3.075,3.075,0,0,1-6.15,0v-.5a.439.439,0,0,0-.439-.439h-.5a.565.565,0,0,1-.565-.565.558.558,0,0,1,.284-.485.437.437,0,0,0,.1-.085c1.086-.031,4.608-.236,6.922-1.558a.439.439,0,1,0-.436-.763,15.834,15.834,0,0,1-6.372,1.437v-.051a4.083,4.083,0,0,1,.7-2.276.438.438,0,0,0,.567.159L15.5,33.9l2.816,1.408a.437.437,0,0,0,.567-.159,4.083,4.083,0,0,1,.7,2.276v.641a.439.439,0,0,0,.218.38.558.558,0,0,1,.284.485.565.565,0,0,1-.565.565Zm3.515,2.51a3.582,3.582,0,0,1-3-1.632,1.44,1.44,0,0,0,.931-2.532v-.417a4.941,4.941,0,0,0-.028-.527,4.955,4.955,0,0,0,3.668.208v.644a1.437,1.437,0,0,0,.907,1.34l.948.379A3.575,3.575,0,0,1,22.531,42.006Z" transform="translate(0 -21.42)"/>
    </g>
  </g>
  <g id="Group_155" data-name="Group 155" transform="translate(14.059 19.582)">
    <g id="Group_154" data-name="Group 154">
      <path id="Path_108" data-name="Path 108" d="M242.657,355.708a.439.439,0,0,0-.618.065.817.817,0,0,1-1.326,0,.439.439,0,1,0-.683.554,1.694,1.694,0,0,0,2.691,0A.44.44,0,0,0,242.657,355.708Z" transform="translate(-239.932 -355.61)"/>
    </g>
  </g>
  <g id="Group_157" data-name="Group 157" transform="translate(13.565 17.575)">
    <g id="Group_156" data-name="Group 156">
      <ellipse id="Ellipse_11" data-name="Ellipse 11" cx="0.439" cy="0.439" rx="0.439" ry="0.439"/>
    </g>
  </g>
  <g id="Group_159" data-name="Group 159" transform="translate(16.553 17.575)">
    <g id="Group_158" data-name="Group 158">
      <ellipse id="Ellipse_12" data-name="Ellipse 12" cx="0.439" cy="0.439" rx="0.439" ry="0.439"/>
    </g>
  </g>
</svg>
