<svg id="_006-group" data-name="006-group" xmlns="http://www.w3.org/2000/svg" width="30" height="30" viewBox="0 0 30 30">
  <path id="Path_109" data-name="Path 109" d="M30,15.484V11.6a2.4,2.4,0,0,0-1.724-2.317L25.161,8.35V7.615a3.383,3.383,0,0,0,1.452-2.775V3.387a3.387,3.387,0,0,0-6.774,0V4.839A3.382,3.382,0,0,0,21.29,7.614v.735l-2.745.824a5.592,5.592,0,0,0-7.375-.085L8.71,8.35V7.615a3.383,3.383,0,0,0,1.452-2.775V3.387a3.387,3.387,0,0,0-6.774,0V4.839A3.382,3.382,0,0,0,4.839,7.614v.735l-3.115.934A2.4,2.4,0,0,0,0,11.6v3.883H.968V11.6A1.442,1.442,0,0,1,2,10.211l3.116-.935a2.1,2.1,0,0,0,1.656.885A2.1,2.1,0,0,0,8.43,9.276l1.984.6a5.585,5.585,0,0,0-1.177,2.811A3.383,3.383,0,0,0,3.387,15v1.452a3.382,3.382,0,0,0,1.452,2.775v.735L1.724,20.9A2.4,2.4,0,0,0,0,23.214v4.366H5.806a.485.485,0,0,1,.484.484V30H23.71V28.065a.485.485,0,0,1,.484-.484H30V23.214A2.4,2.4,0,0,0,28.276,20.9l-3.115-.934v-.735a3.383,3.383,0,0,0,1.452-2.775V15a3.384,3.384,0,0,0-5.806-2.366v-.459a2.6,2.6,0,0,0-1.33-2.271l2.093-.628a1.992,1.992,0,0,0,3.312,0L28,10.211a1.442,1.442,0,0,1,1.034,1.39v3.883ZM6.774.968A2.422,2.422,0,0,1,9.194,3.387H6.975a1.176,1.176,0,0,1-.826-.342L5.806,2.7l-.342.342a1.176,1.176,0,0,1-.826.342H4.355A2.422,2.422,0,0,1,6.774.968ZM4.355,4.839V4.355h.284a2.119,2.119,0,0,0,1.168-.347,2.119,2.119,0,0,0,1.168.347H9.194v.484a2.419,2.419,0,0,1-4.839,0ZM6.774,9.194a1.238,1.238,0,0,1-.968-.617V8.084a3.358,3.358,0,0,0,1.935,0v.493a1.236,1.236,0,0,1-.968.617Zm13.3,8.493a3.4,3.4,0,0,0,1.216,1.541v.735l-3.114.934a2.376,2.376,0,0,0-.3.114l-.457-.105v-.953a3.891,3.891,0,0,0,1.175-1.587,2.41,2.41,0,0,0,1.48-.679ZM15,20.807a3.844,3.844,0,0,0,1.452-.285v.527L15,22.137l-1.452-1.089v-.527A3.844,3.844,0,0,0,15,20.807Zm-2.046,1.006,1.18.885-1.213.728-.307-1.534Zm1.511,3.833h1.069l.376,3.387H14.089Zm1.153-.968H14.381l-.278-.833.9-.538.9.538Zm.247-1.98,1.18-.885.341.078-.307,1.534Zm3.6-5.753a1.451,1.451,0,0,1-.611.391,3.924,3.924,0,0,0,.021-.4V14.62a1.461,1.461,0,0,1,.96,1.2A1.443,1.443,0,0,1,19.461,16.944ZM17.9,16.936a2.9,2.9,0,1,1-5.806,0V14.516h1.643a6.223,6.223,0,0,0,3-.766l.383.766H17.9Zm-6.753.4a1.431,1.431,0,0,1-.021-2.715v2.315a3.924,3.924,0,0,0,.021.4Zm.256,1.03a3.883,3.883,0,0,0,1.175,1.587v.953l-.457.105a2.5,2.5,0,0,0-.3-.114L8.71,19.963v-.735a3.4,3.4,0,0,0,1.216-1.541,2.41,2.41,0,0,0,1.48.679ZM6.774,12.581A2.422,2.422,0,0,1,9.194,15H8.91a1.176,1.176,0,0,1-.826-.342l-.342-.342-.342.342A1.176,1.176,0,0,1,6.574,15H4.355a2.422,2.422,0,0,1,2.419-2.419ZM4.355,16.452v-.484H6.574a2.119,2.119,0,0,0,1.168-.347,2.119,2.119,0,0,0,1.168.347h.284v.484a2.419,2.419,0,0,1-4.839,0Zm2.419,3.387a3.367,3.367,0,0,0,.968-.143v.493a1.236,1.236,0,0,1-.968.617,1.238,1.238,0,0,1-.968-.617V19.7A3.383,3.383,0,0,0,6.774,19.839Zm-.968,6.774H3.871V23.226H2.9v3.387H.968v-3.4A1.442,1.442,0,0,1,2,21.824l3.116-.935a2.1,2.1,0,0,0,1.656.885,2.1,2.1,0,0,0,1.656-.885l1.835.551-1.35.311a3.372,3.372,0,0,0-2.625,3.3v.594h.968v-.594a2.409,2.409,0,0,1,1.875-2.357l2.537-.585.57,2.853,1.012-.607.286.859-.424,3.819h-2.47V25.161H9.677v3.871H7.258v-.968a1.454,1.454,0,0,0-1.452-1.452ZM28,21.824a1.442,1.442,0,0,1,1.035,1.39v3.4H27.1V23.226h-.968v3.387H24.194a1.454,1.454,0,0,0-1.452,1.452v.968H20.323V25.161h-.968v3.871h-2.47l-.424-3.819.286-.859,1.012.607.57-2.853,2.537.585a2.409,2.409,0,0,1,1.875,2.357v.594h.968v-.594a3.372,3.372,0,0,0-2.625-3.3l-1.35-.311,1.835-.551a1.992,1.992,0,0,0,3.312,0Zm-3.8-1.634a1.068,1.068,0,0,1-1.935,0V19.7a3.353,3.353,0,0,0,1.935,0Zm-.968-1.319a2.422,2.422,0,0,1-2.419-2.419v-.484h.284a2.119,2.119,0,0,0,1.168-.347,2.119,2.119,0,0,0,1.168.347h2.219v.484A2.422,2.422,0,0,1,23.226,18.871Zm0-6.29A2.422,2.422,0,0,1,25.645,15H23.426a1.176,1.176,0,0,1-.826-.342l-.342-.342-.342.342A1.176,1.176,0,0,1,21.09,15h-.284a2.422,2.422,0,0,1,2.419-2.419Zm-3.387,1.493a2.542,2.542,0,0,0-1.535-.525h-.585l-.6-1.19-.456.3a5.261,5.261,0,0,1-2.928.886H11.7a2.542,2.542,0,0,0-1.535.525v-.716A4.648,4.648,0,0,1,18.1,10.071l.513.513.108.036a1.637,1.637,0,0,1,1.121,1.555ZM23.226.968a2.422,2.422,0,0,1,2.419,2.419h-.284a1.176,1.176,0,0,1-.826-.342L24.194,2.7l-.342.342a1.176,1.176,0,0,1-.826.342H20.806A2.422,2.422,0,0,1,23.226.968ZM20.806,4.839V4.355h2.219a2.119,2.119,0,0,0,1.168-.347,2.119,2.119,0,0,0,1.168.347h.284v.484a2.419,2.419,0,1,1-4.839,0Zm2.419,4.355a1.237,1.237,0,0,1-.968-.617V8.083a3.353,3.353,0,0,0,1.935,0v.493a1.236,1.236,0,0,1-.968.617Zm0,0" transform="translate(0 0)"/>
  <path id="Path_110" data-name="Path 110" d="M184,0h.968V.968H184Zm0,0" transform="translate(-172.871)"/>
  <path id="Path_111" data-name="Path 111" d="M184,32h.968v5.323H184Zm0,0" transform="translate(-172.871 -30.065)"/>
  <path id="Path_112" data-name="Path 112" d="M296,0h.968V.968H296Zm0,0" transform="translate(-278.097)"/>
  <path id="Path_113" data-name="Path 113" d="M296,32h.968v5.323H296Zm0,0" transform="translate(-278.097 -30.065)"/>
  <path id="Path_114" data-name="Path 114" d="M216,32h.968v3.387H216Zm0,0" transform="translate(-202.935 -30.065)"/>
  <path id="Path_115" data-name="Path 115" d="M216,104h.968v.968H216Zm0,0" transform="translate(-202.935 -97.71)"/>
  <path id="Path_116" data-name="Path 116" d="M264,32h.968v3.387H264Zm0,0" transform="translate(-248.032 -30.065)"/>
  <path id="Path_117" data-name="Path 117" d="M264,104h.968v.968H264Zm0,0" transform="translate(-248.032 -97.71)"/>
</svg>
