<svg xmlns="http://www.w3.org/2000/svg" width="18" height="18" viewBox="0 0 18 18">
  <g id="_007-hospital" data-name="007-hospital" transform="translate(-2 -2)">
    <path id="Path_746" data-name="Path 746" d="M19.7,7.4H15.8V2.3a.3.3,0,0,0-.3-.3h-9a.3.3,0,0,0-.3.3V7.4H2.3a.3.3,0,0,0-.3.3v12a.3.3,0,0,0,.3.3H19.7a.3.3,0,0,0,.3-.3V7.7A.3.3,0,0,0,19.7,7.4ZM2.6,8H6.2V19.4H2.6Zm9.3,8.4v3H10.1v-3Zm3.3,3H12.5v-3h.6v-.6H8.9v.6h.6v3H6.8V2.6h8.4Zm4.2,0H15.8V8h3.6Z"/>
    <path id="Path_747" data-name="Path 747" d="M50.3,26.4h1.8a.3.3,0,0,0,.3-.3V24.3a.3.3,0,0,0-.3-.3H50.3a.3.3,0,0,0-.3.3v1.8A.3.3,0,0,0,50.3,26.4Zm.3-1.8h1.2v1.2H50.6Z" transform="translate(-33.6 -15.4)"/>
    <path id="Path_748" data-name="Path 748" d="M50.3,36.4h1.8a.3.3,0,0,0,.3-.3V34.3a.3.3,0,0,0-.3-.3H50.3a.3.3,0,0,0-.3.3v1.8A.3.3,0,0,0,50.3,36.4Zm.3-1.8h1.2v1.2H50.6Z" transform="translate(-33.6 -22.4)"/>
    <path id="Path_749" data-name="Path 749" d="M50.3,46.4h1.8a.3.3,0,0,0,.3-.3V44.3a.3.3,0,0,0-.3-.3H50.3a.3.3,0,0,0-.3.3v1.8A.3.3,0,0,0,50.3,46.4Zm.3-1.8h1.2v1.2H50.6Z" transform="translate(-33.6 -29.4)"/>
    <path id="Path_750" data-name="Path 750" d="M8.1,24H6.3a.3.3,0,0,0-.3.3v1.8a.3.3,0,0,0,.3.3H8.1a.3.3,0,0,0,.3-.3V24.3A.3.3,0,0,0,8.1,24Zm-.3,1.8H6.6V24.6H7.8Z" transform="translate(-2.8 -15.4)"/>
    <path id="Path_751" data-name="Path 751" d="M20.3,23.8h1.2a.3.3,0,0,0,.3-.3V22.3a.3.3,0,0,0-.3-.3H20.3a.3.3,0,0,0-.3.3v1.2A.3.3,0,0,0,20.3,23.8Zm.3-1.2h.6v.6h-.6Z" transform="translate(-12.6 -14)"/>
    <path id="Path_752" data-name="Path 752" d="M30.5,22H29.3a.3.3,0,0,0-.3.3v1.2a.3.3,0,0,0,.3.3h1.2a.3.3,0,0,0,.3-.3V22.3A.3.3,0,0,0,30.5,22Zm-.3,1.2h-.6v-.6h.6Z" transform="translate(-18.9 -14)"/>
    <path id="Path_753" data-name="Path 753" d="M38,22.3v1.2a.3.3,0,0,0,.3.3h1.2a.3.3,0,0,0,.3-.3V22.3a.3.3,0,0,0-.3-.3H38.3A.3.3,0,0,0,38,22.3Zm.6.3h.6v.6h-.6Z" transform="translate(-25.2 -14)"/>
    <path id="Path_754" data-name="Path 754" d="M20.3,31.8h1.2a.3.3,0,0,0,.3-.3V30.3a.3.3,0,0,0-.3-.3H20.3a.3.3,0,0,0-.3.3v1.2A.3.3,0,0,0,20.3,31.8Zm.3-1.2h.6v.6h-.6Z" transform="translate(-12.6 -19.6)"/>
    <path id="Path_755" data-name="Path 755" d="M30.5,30H29.3a.3.3,0,0,0-.3.3v1.2a.3.3,0,0,0,.3.3h1.2a.3.3,0,0,0,.3-.3V30.3A.3.3,0,0,0,30.5,30Zm-.3,1.2h-.6v-.6h.6Z" transform="translate(-18.9 -19.6)"/>
    <path id="Path_756" data-name="Path 756" d="M39.5,30H38.3a.3.3,0,0,0-.3.3v1.2a.3.3,0,0,0,.3.3h1.2a.3.3,0,0,0,.3-.3V30.3A.3.3,0,0,0,39.5,30Zm-.3,1.2h-.6v-.6h.6Z" transform="translate(-25.2 -19.6)"/>
    <path id="Path_757" data-name="Path 757" d="M20.3,39.8h1.2a.3.3,0,0,0,.3-.3V38.3a.3.3,0,0,0-.3-.3H20.3a.3.3,0,0,0-.3.3v1.2A.3.3,0,0,0,20.3,39.8Zm.3-1.2h.6v.6h-.6Z" transform="translate(-12.6 -25.2)"/>
    <path id="Path_758" data-name="Path 758" d="M30.5,38H29.3a.3.3,0,0,0-.3.3v1.2a.3.3,0,0,0,.3.3h1.2a.3.3,0,0,0,.3-.3V38.3A.3.3,0,0,0,30.5,38Zm-.3,1.2h-.6v-.6h.6Z" transform="translate(-18.9 -25.2)"/>
    <path id="Path_759" data-name="Path 759" d="M39.5,38H38.3a.3.3,0,0,0-.3.3v1.2a.3.3,0,0,0,.3.3h1.2a.3.3,0,0,0,.3-.3V38.3A.3.3,0,0,0,39.5,38Zm-.3,1.2h-.6v-.6h.6Z" transform="translate(-25.2 -25.2)"/>
    <path id="Path_760" data-name="Path 760" d="M8.1,34H6.3a.3.3,0,0,0-.3.3v1.8a.3.3,0,0,0,.3.3H8.1a.3.3,0,0,0,.3-.3V34.3A.3.3,0,0,0,8.1,34Zm-.3,1.8H6.6V34.6H7.8Z" transform="translate(-2.8 -22.4)"/>
    <path id="Path_761" data-name="Path 761" d="M8.1,44H6.3a.3.3,0,0,0-.3.3v1.8a.3.3,0,0,0,.3.3H8.1a.3.3,0,0,0,.3-.3V44.3A.3.3,0,0,0,8.1,44Zm-.3,1.8H6.6V44.6H7.8Z" transform="translate(-2.8 -29.4)"/>
    <path id="Path_762" data-name="Path 762" d="M25.3,9h.9v.9a.3.3,0,0,0,.3.3h1.2a.3.3,0,0,0,.3-.3V9h.9a.3.3,0,0,0,.3-.3V7.5a.3.3,0,0,0-.3-.3H28V6.3a.3.3,0,0,0-.3-.3H26.5a.3.3,0,0,0-.3.3v.9h-.9a.3.3,0,0,0-.3.3V8.7A.3.3,0,0,0,25.3,9Zm.3-1.2h.9a.3.3,0,0,0,.3-.3V6.6h.6v.9a.3.3,0,0,0,.3.3h.9v.6h-.9a.3.3,0,0,0-.3.3v.9h-.6V8.7a.3.3,0,0,0-.3-.3h-.9Z" transform="translate(-16.1 -2.8)"/>
    <path id="Path_763" data-name="Path 763" d="M42,56h.6v.6H42Z" transform="translate(-28 -37.8)"/>
    <path id="Path_764" data-name="Path 764" d="M42,52h.6v.6H42Z" transform="translate(-28 -35)"/>
    <path id="Path_765" data-name="Path 765" d="M42,48h.6v.6H42Z" transform="translate(-28 -32.2)"/>
  </g>
</svg>
