<svg xmlns="http://www.w3.org/2000/svg" width="23.95" height="19.893" viewBox="0 0 23.95 19.893">
  <g id="left-arrow" transform="translate(0 -41.674)">
    <g id="Group_2" data-name="Group 2" transform="translate(0 41.674)">
      <path id="Path_3" data-name="Path 3" d="M22.6,49.742l.037.008H6.615L11.653,44.7a1.323,1.323,0,0,0,0-1.86l-.784-.784a1.311,1.311,0,0,0-1.851,0L.382,50.691a1.32,1.32,0,0,0,0,1.857l8.636,8.636a1.312,1.312,0,0,0,1.851,0l.784-.784a1.3,1.3,0,0,0,.382-.925,1.258,1.258,0,0,0-.382-.908L6.558,53.49H22.621a1.357,1.357,0,0,0,1.328-1.344V51.037A1.331,1.331,0,0,0,22.6,49.742Z" transform="translate(0 -41.674)" fill="#fff"/>
    </g>
  </g>
</svg>
