<svg xmlns="http://www.w3.org/2000/svg" width="30" height="33.333" viewBox="0 0 30 33.333">
  <g id="Outline" transform="translate(-5 -2)">
    <g id="Group_210" data-name="Group 210" transform="translate(5 2)">
      <path id="Path_137" data-name="Path 137" d="M44.444,52.222a2.222,2.222,0,1,0-2.222,2.222A2.222,2.222,0,0,0,44.444,52.222Zm-3.333,0a1.111,1.111,0,1,1,1.111,1.111A1.111,1.111,0,0,1,41.111,52.222Z" transform="translate(-20.556 -23.333)"/>
      <path id="Path_138" data-name="Path 138" d="M48.064,52.814a.556.556,0,0,0-.626.475L46.959,56.8h-8.4a.556.556,0,1,0,0,1.111h8.889a.556.556,0,0,0,.551-.481l.545-3.995a.556.556,0,0,0-.476-.626Z" transform="translate(-19.667 -24.582)"/>
      <path id="Path_139" data-name="Path 139" d="M34.863,22.19a.556.556,0,0,0-.418-.19H31.833l.932-4.9a.544.544,0,0,0,0-.2l.256-1.192.829,1.383-.668,3.136a.556.556,0,0,0,.427.659.568.568,0,0,0,.117.012.556.556,0,0,0,.542-.439l.718-3.351a.552.552,0,0,0-.067-.4l-1.667-2.778a.556.556,0,0,0-1.019.167l-.457,2.119-2.129-.852a.556.556,0,0,0-.757.444L28.43,19.5l-.371-.093-.282-3.566a.556.556,0,0,0-.144-.324l.111-1.431.528-.158,1.464.781a.556.556,0,1,0,.523-.98l-1.667-.889a.556.556,0,0,0-.421-.042l-1.111.333a.556.556,0,0,0-.394.488l-.069.859-.651-.652a.556.556,0,0,0-.836.059l-.667.889v-.556a1.667,1.667,0,0,0-1.667-1.667H21.667V12A1.667,1.667,0,0,0,20,10.333H17.222V7.705L21.48,4.867a.556.556,0,0,0,.154-.771L20.4,2.247a.556.556,0,0,0-.771-.154l-5,3.333a1.663,1.663,0,0,0-.742,1.387v3.52H11.111A1.667,1.667,0,0,0,9.444,12v.556H8.333a1.667,1.667,0,0,0-1.667,1.667v1.111c0,.011.333,2.927.333,2.927a.556.556,0,0,0,.551.493.485.485,0,0,0,.063,0,.556.556,0,0,0,.489-.614l-.259-2.246h4.378a.556.556,0,0,0,0-1.111H7.778v-.556a.556.556,0,0,1,.556-.556H22.778a.556.556,0,0,1,.556.556v.556H14.444a.556.556,0,0,0,0,1.111h9.167l-.167.222a.556.556,0,0,0-.111.379l.167,2-.2-.568a.556.556,0,0,0-.343-.34L21.31,17.02a.556.556,0,0,0-.706.345l-.3.874-.344-.884A.556.556,0,0,0,19.444,17H17.222a.556.556,0,0,0-.522.748l.346.938c-.127-.008-.252-.019-.38-.019H11.111a6.083,6.083,0,0,0-3.369,1.014.556.556,0,1,0,.614.926,4.976,4.976,0,0,1,2.755-.829h5.556a5.007,5.007,0,0,1,4.969,4.444H6.142a4.969,4.969,0,0,1,.8-2.2.556.556,0,0,0-.927-.611A6.087,6.087,0,0,0,5,24.778a.556.556,0,0,0,.556.556h.07a2.327,2.327,0,0,0,.567,1.049A2.676,2.676,0,0,0,6.111,27a2.764,2.764,0,0,0,.783,1.926,1.633,1.633,0,0,0-.681,1.963H5.556A.556.556,0,0,0,5,31.444v1.111a2.781,2.781,0,0,0,2.778,2.778H9.444a.556.556,0,0,0,0-1.111H7.778a1.667,1.667,0,0,1-1.667-1.667V32h8.733l.278.347a.556.556,0,0,0,.868,0l2.056-2.569H20a.556.556,0,0,1,0,1.111H18.778a.556.556,0,1,0,0,1.111h2.889v.556A1.667,1.667,0,0,1,20,34.222H11.667a.556.556,0,0,0,0,1.111H20a2.781,2.781,0,0,0,2.778-2.778V31.444a.556.556,0,0,0-.556-.556h-.658a1.633,1.633,0,0,0-.681-1.963A2.764,2.764,0,0,0,21.667,27a2.7,2.7,0,0,0-.069-.585,1.693,1.693,0,0,0,.6-1.082h.029a.529.529,0,0,0,.1-.021A6.111,6.111,0,0,0,26.667,27c2.828,0,5.169-1.7,5.512-3.889h1.629L33.072,28.5a.556.556,0,0,0,.476.625.493.493,0,0,0,.075.006.556.556,0,0,0,.551-.481l.821-6.024A.556.556,0,0,0,34.863,22.19ZM15,6.813a.556.556,0,0,1,.247-.462l4.538-3.025.617.924L16.358,6.944a.556.556,0,0,0-.247.462v2.927H15Zm-4.444,5.742V12a.556.556,0,0,1,.556-.556H20a.556.556,0,0,1,.556.556v.556ZM27.74,20.48l1.123.278-.282,4.8a5.5,5.5,0,0,1-1.139.278Zm-2.124-5.412,1.069,1.069.254,3.173-.046.021a.556.556,0,0,0-.222.416l-.341,6.124a5.637,5.637,0,0,1-1.111-.177l-.758-9.083Zm-7.6,3.043h1.045l.5,1.289a6.07,6.07,0,0,0-1.257-.5Zm2.519,8.717a1.494,1.494,0,0,1,.017.172,1.667,1.667,0,0,1-1.667,1.667h-10a1.667,1.667,0,0,1-1.659-1.6l.051.026a2.365,2.365,0,0,0,2.1,0l.894-.444a.616.616,0,0,1,.552,0L12,27.236a1.737,1.737,0,0,0,1.547,0l1.171-.588a.616.616,0,0,1,.552,0l1.173.586a1.737,1.737,0,0,0,1.547,0l1.173-.586a.616.616,0,0,1,.552,0,1.727,1.727,0,0,0,.819.179ZM7.778,30.889a.556.556,0,1,1,0-1.111h5.288l.889,1.111Zm7.778.222-1.066-1.333h2.132Zm5.263-5.483a.592.592,0,0,1-.063.029h-.013c-.007,0-.011.009-.018.012a.6.6,0,0,1-.506-.016,1.737,1.737,0,0,0-1.547,0L17.5,26.24a.616.616,0,0,1-.552,0l-1.173-.586a1.737,1.737,0,0,0-1.547,0l-1.173.586a.616.616,0,0,1-.552,0l-1.173-.586a1.737,1.737,0,0,0-1.547,0l-.893.444a1.248,1.248,0,0,1-1.111,0l-.426-.21a1.23,1.23,0,0,1-.546-.556H21.062a.606.606,0,0,1-.244.294Zm1.917-1.544a6.067,6.067,0,0,0-.851-2.473l-.744-2.383.336-.979.867.3,1.521,4.3.2,2.392a3.869,3.869,0,0,1-1.329-1.152Zm6.993.882.272-4.6a.556.556,0,0,0-.42-.572l-.062-.017.389-3.107,1.684.674L30.219,24.55a3.931,3.931,0,0,1-.491.415Z" transform="translate(-5 -2)"/>
      <circle id="Ellipse_14" data-name="Ellipse 14" cx="0.556" cy="0.556" r="0.556" transform="translate(9.444 19.445)"/>
      <circle id="Ellipse_15" data-name="Ellipse 15" cx="0.556" cy="0.556" r="0.556" transform="translate(7.222 18.889)"/>
      <circle id="Ellipse_16" data-name="Ellipse 16" cx="0.556" cy="0.556" r="0.556" transform="translate(5.556 20)"/>
      <circle id="Ellipse_17" data-name="Ellipse 17" cx="0.556" cy="0.556" r="0.556" transform="translate(13.889 20)"/>
      <circle id="Ellipse_18" data-name="Ellipse 18" cx="0.556" cy="0.556" r="0.556" transform="translate(3.333 19.445)"/>
      <circle id="Ellipse_19" data-name="Ellipse 19" cx="0.556" cy="0.556" r="0.556" transform="translate(11.667 18.889)"/>
    </g>
  </g>
</svg>
