<svg xmlns="http://www.w3.org/2000/svg" width="18" height="19.176" viewBox="0 0 18 19.176">
  <g id="_004-medicine" data-name="004-medicine" transform="translate(-15.701)">
    <g id="Group_549" data-name="Group 549" transform="translate(19.446 4.719)">
      <g id="Group_548" data-name="Group 548" transform="translate(0)">
        <path id="Path_735" data-name="Path 735" d="M116.071,125.994a.375.375,0,1,0,.375.375A.375.375,0,0,0,116.071,125.994Z" transform="translate(-115.696 -125.994)"/>
      </g>
    </g>
    <g id="Group_551" data-name="Group 551" transform="translate(19.821 10.224)">
      <g id="Group_550" data-name="Group 550" transform="translate(0)">
        <path id="Path_736" data-name="Path 736" d="M129.067,274.484h-1.124v-1.124a.375.375,0,1,0-.749,0v1.124h-1.124a.375.375,0,1,0,0,.749h1.124v1.124a.375.375,0,1,0,.749,0v-1.124h1.124a.375.375,0,1,0,0-.749Z" transform="translate(-125.696 -272.986)"/>
      </g>
    </g>
    <g id="Group_553" data-name="Group 553" transform="translate(15.701)">
      <g id="Group_552" data-name="Group 552" transform="translate(0)">
        <path id="Path_737" data-name="Path 737" d="M33.3,12.059a2.994,2.994,0,0,0-4.093-1.1l-1.521.878V8.589a1.886,1.886,0,0,0-.374-1.124l-1.873-2.5V3.905a1.125,1.125,0,0,0,.749-1.059V1.124A1.125,1.125,0,0,0,25.064,0H18.323A1.125,1.125,0,0,0,17.2,1.124V2.846a1.125,1.125,0,0,0,.749,1.059V4.969l-1.873,2.5A1.886,1.886,0,0,0,15.7,8.589v7.253a1.875,1.875,0,0,0,1.873,1.873h6.019a2.993,2.993,0,0,0,4.07,1.059L32.2,16.152A3,3,0,0,0,33.3,12.059ZM17.948,1.124a.375.375,0,0,1,.374-.375h6.741a.375.375,0,0,1,.375.375V2.846a.375.375,0,0,1-.375.374H18.323a.375.375,0,0,1-.374-.374V1.124ZM16.675,7.915l1.947-2.6a.374.374,0,0,0,.075-.225V3.97h5.992v.749H21.319a.375.375,0,1,0,0,.749h3.558l1.835,2.447a1.133,1.133,0,0,1,.217.55H16.458A1.133,1.133,0,0,1,16.675,7.915Zm.9,9.051a1.125,1.125,0,0,1-1.124-1.124v-.378h6.8a3,3,0,0,0,.018,1.5h-5.7Zm5.975-2.247h-7.1V9.213H26.936v3.06l-2.27,1.311A2.974,2.974,0,0,0,23.548,14.718Zm3.74,3.407a2.247,2.247,0,1,1-2.247-3.892l2.033-1.174,2.247,3.892ZM31.828,15.5l-1.859,1.073-2.247-3.892,1.859-1.073A2.247,2.247,0,1,1,31.828,15.5Z" transform="translate(-15.701)"/>
      </g>
    </g>
  </g>
</svg>
