<svg id="left-arrow" xmlns="http://www.w3.org/2000/svg" width="23.95" height="19.892" viewBox="0 0 23.95 19.892">
  <g id="Group_2" data-name="Group 2">
    <path id="Path_3" data-name="Path 3" d="M1.346,49.742l-.037.008H17.335L12.3,44.7a1.323,1.323,0,0,1,0-1.86l.784-.784a1.311,1.311,0,0,1,1.851,0l8.636,8.635a1.32,1.32,0,0,1,0,1.857l-8.636,8.636a1.312,1.312,0,0,1-1.851,0L12.3,60.4a1.3,1.3,0,0,1-.382-.925,1.258,1.258,0,0,1,.382-.908l5.095-5.077H1.328A1.357,1.357,0,0,1,0,52.146V51.037A1.331,1.331,0,0,1,1.346,49.742Z" transform="translate(0 -41.674)" fill="#fff"/>
  </g>
</svg>
