<svg xmlns="http://www.w3.org/2000/svg" width="18" height="17.015" viewBox="0 0 18 17.015">
  <g id="_005-stadium" data-name="005-stadium" transform="translate(0 -14.016)">
    <g id="Group_554" data-name="Group 554" transform="translate(0 14.016)">
      <path id="Path_738" data-name="Path 738" d="M18,20.757s0,0,0-.005c0-.882-.962-1.64-2.783-2.192a15.985,15.985,0,0,0-1.976-.452v-.666H15.2a.352.352,0,0,0,.3-.538l-.515-.823.515-.823a.352.352,0,0,0-.3-.538H12.89a.352.352,0,0,0-.352.352V18A26.886,26.886,0,0,0,9,17.776q-.406,0-.805.011V16.739h1.962a.352.352,0,0,0,.3-.538l-.515-.823.515-.823a.352.352,0,0,0-.3-.538H7.843a.352.352,0,0,0-.352.352v3.448a21.188,21.188,0,0,0-4.344.64V17.442H5.11a.352.352,0,0,0,.3-.538l-.515-.823.515-.823a.352.352,0,0,0-.3-.538H2.8a.352.352,0,0,0-.352.352v3.6C.843,19.209,0,19.926,0,20.752c0,0,0,0,0,.006v7.3c0,.519.352,1.276,2.03,1.933a17.315,17.315,0,0,0,4.657.949h0c.748.062,1.526.094,2.313.094s1.565-.031,2.313-.094h0a17.316,17.316,0,0,0,4.657-.949C17.648,29.33,18,28.573,18,28.054v-7.3Zm-4.758-5.335h1.327l-.3.472a.352.352,0,0,0,0,.373l.3.472H13.242Zm-5.047-.7H9.522l-.3.472a.352.352,0,0,0,0,.373l.3.472H8.195Zm4.846,12.062a.352.352,0,0,0-.352.352v.515q-.505.074-1.058.129A2.634,2.634,0,0,0,9.351,25.3V23.726a26.431,26.431,0,0,0,3.338-.246v.475a.352.352,0,0,0,.7,0v-.586a15.255,15.255,0,0,0,2.029-.489v4.133a13.666,13.666,0,0,1-2.029.52v-.4a.352.352,0,0,0-.352-.352Zm-6.672.995q-.553-.054-1.058-.129V23.479a26.418,26.418,0,0,0,3.338.246V25.3a2.639,2.639,0,0,0-2.28,2.475ZM.7,25.629V21.964a4.742,4.742,0,0,0,1.084.622h0l.088.037v4.107C1.114,26.372.7,25.982.7,25.63h0Zm8.3-2.6a20.035,20.035,0,0,1-6.649-.97,3.216,3.216,0,0,1,1.758-.969A17.631,17.631,0,0,1,9,20.475a17.631,17.631,0,0,1,4.891.611,3.216,3.216,0,0,1,1.758.969A20.035,20.035,0,0,1,9,23.025ZM2.579,22.88a15.249,15.249,0,0,0,2.029.489v4.164a13.666,13.666,0,0,1-2.029-.52Zm13.545-.257.088-.037h0a4.742,4.742,0,0,0,1.084-.621v3.665h0c0,.352-.411.742-1.173,1.1V22.622Zm-12.976-7.2H4.475l-.3.472a.351.351,0,0,0,0,.373l.3.472H3.148Zm-.161,3.81A21.611,21.611,0,0,1,9,18.479a21.61,21.61,0,0,1,6.013.754c1.682.511,2.283,1.119,2.284,1.518h0v0c0,.324-.361.685-1,1.014a3.571,3.571,0,0,0-2.2-1.355A18.339,18.339,0,0,0,9,19.772a18.341,18.341,0,0,0-5.095.641,3.57,3.57,0,0,0-2.2,1.355c-.638-.329-1-.69-1-1.014v0h0c0-.4.6-1.008,2.284-1.518ZM.7,28.054V26.841a5.128,5.128,0,0,0,1.327.721,16.821,16.821,0,0,0,4.335.92V30.2C2.812,29.852.7,28.853.7,28.054Zm6.365,2.207V27.912a1.932,1.932,0,1,1,3.864,0v2.349c-.629.044-1.277.067-1.932.067s-1.3-.022-1.932-.067ZM17.3,28.054c0,.8-2.109,1.8-5.662,2.148V28.482a16.821,16.821,0,0,0,4.335-.92,5.129,5.129,0,0,0,1.327-.721Z" transform="translate(0 -14.016)"/>
      <path id="Path_739" data-name="Path 739" d="M361.634,332.313a.352.352,0,1,0-.139.433A.355.355,0,0,0,361.634,332.313Z" transform="translate(-348.268 -320.913)"/>
    </g>
  </g>
</svg>
