<svg id="_003-tent" data-name="003-tent" xmlns="http://www.w3.org/2000/svg" width="30" height="29.794" viewBox="0 0 30 29.794">
  <g id="Group_131" data-name="Group 131" transform="translate(21.207 28.801)">
    <g id="Group_130" data-name="Group 130">
      <rect id="Rectangle_39" data-name="Rectangle 39" width="0.993" height="0.993"/>
    </g>
  </g>
  <g id="Group_133" data-name="Group 133" transform="translate(17.792 21.119)">
    <g id="Group_132" data-name="Group 132" transform="translate(0 0)">
      <rect id="Rectangle_40" data-name="Rectangle 40" width="0.993" height="7.332" transform="translate(0 0.471) rotate(-28.3)"/>
    </g>
  </g>
  <g id="Group_135" data-name="Group 135" transform="translate(0 7.447)">
    <g id="Group_134" data-name="Group 134">
      <path id="Path_96" data-name="Path 96" d="M5.959,128.437l.7-.7L3.828,124.9v-1.575l2.132,2.132.7-.7-2.979-2.979,0,0a.484.484,0,0,0-.684-.018l-.015.015L0,124.756l.7.7,2.132-2.132V124.9L0,127.735l.7.7,2.132-2.132v1.575L0,130.714l.7.7,2.132-2.132v1.575L0,133.694l.7.7,2.132-2.132v11.712h.993V132.264L5.959,134.4l.7-.7L3.828,130.86v-1.575l2.132,2.132.7-.7L3.828,127.88v-1.575Z" transform="translate(0 -121.629)"/>
    </g>
  </g>
  <g id="Group_137" data-name="Group 137" transform="translate(4.821 4.964)">
    <g id="Group_136" data-name="Group 136">
      <path id="Path_97" data-name="Path 97" d="M102.146,92.906l.7-.7-2.834-2.834V87.8l2.132,2.132.7-.7-2.979-2.979,0,0a.484.484,0,0,0-.684-.018l-.015.015-2.979,2.979.7.7L99.021,87.8V89.37L96.187,92.2l.7.7,2.132-2.132V92.35l-2.834,2.834.7.7,2.132-2.132v4.76l-1.043-2.2a.5.5,0,0,0-.447-.285H91.076V92.264L93.208,94.4l.7-.7L91.076,90.86V89.285l2.132,2.132.7-.7L91.076,87.88V86.305l2.132,2.132.7-.7L91.076,84.9V83.326l2.132,2.132.7-.7-2.979-2.979,0,0a.484.484,0,0,0-.684-.018l-.015.015-2.979,2.979.7.7,2.132-2.132V84.9l-2.834,2.834.7.7,2.132-2.132V87.88l-2.834,2.834.7.7,2.132-2.132V90.86l-2.834,2.834.7.7,2.132-2.132v3.767H83.131a.49.49,0,0,0-.365.167.429.429,0,0,0-.074.1l-4.966,9.435a.5.5,0,0,0,.439.727h14.9v-.993H88.395l-4.441-8.442H97.217l4,8.442H96.042v.993H102a.5.5,0,0,0,.447-.709l-2.433-5.14V93.754l2.132,2.132.7-.7-2.834-2.834V90.774Zm-19.512,12.56H78.988l3.647-6.929Zm4.64,0H83.628V98.537Z" transform="translate(-77.669 -81.629)"/>
    </g>
  </g>
  <g id="Group_139" data-name="Group 139" transform="translate(5.814 0)">
    <g id="Group_138" data-name="Group 138">
      <path id="Path_98" data-name="Path 98" d="M97.388,1.66a.5.5,0,0,0-.351.848,2.894,2.894,0,0,1,.935,1.773,1.527,1.527,0,0,1-1.688,1.688h0a2.894,2.894,0,0,1-1.773-.935.5.5,0,0,0-.848.351A3.724,3.724,0,1,0,97.388,1.66Zm2.459,4.915a2.731,2.731,0,0,1-4.915,0,3.272,3.272,0,0,0,1.278.38,2.558,2.558,0,0,0,2.025-.724,2.763,2.763,0,0,0,.344-3.306A2.731,2.731,0,0,1,99.848,6.575Z" transform="translate(-93.664 -1.66)"/>
    </g>
  </g>
</svg>
