<svg id="_007-trekking" data-name="007-trekking" xmlns="http://www.w3.org/2000/svg" width="30" height="38.319" viewBox="0 0 30 38.319">
  <g id="Group_161" data-name="Group 161" transform="translate(2.555 7.664)">
    <g id="Group_160" data-name="Group 160">
      <path id="Path_118" data-name="Path 118" d="M95.466,113.258v1.277a1.279,1.279,0,0,1-1.277,1.277H92.272a1.279,1.279,0,0,1-1.277-1.277v-9.58a1.279,1.279,0,0,1,1.277-1.277h1.916a1.277,1.277,0,0,1,1.187.805l.1.579,1.259-.214-.109-.639a.664.664,0,0,0-.027-.106,2.557,2.557,0,0,0-2.408-1.7H92.272a2.557,2.557,0,0,0-2.555,2.555v9.58a2.557,2.557,0,0,0,2.555,2.555h1.916a2.558,2.558,0,0,0,2.555-2.555v-1.277Z" transform="translate(-89.717 -102.401)"/>
    </g>
  </g>
  <g id="Group_163" data-name="Group 163" transform="translate(2.555 1.916)">
    <g id="Group_162" data-name="Group 162">
      <path id="Path_119" data-name="Path 119" d="M93.231,25.6a3.513,3.513,0,1,0,3.513,3.513A3.516,3.516,0,0,0,93.231,25.6Zm0,5.748a2.235,2.235,0,1,1,2.235-2.235A2.238,2.238,0,0,1,93.231,31.348Z" transform="translate(-89.718 -25.6)"/>
    </g>
  </g>
  <g id="Group_165" data-name="Group 165" transform="translate(0.001 13.412)">
    <g id="Group_164" data-name="Group 164">
      <path id="Path_120" data-name="Path 120" d="M58.778,179.2H57.373a1.79,1.79,0,0,0-1.788,1.788v2.81a1.79,1.79,0,0,0,1.788,1.788h1.405a.638.638,0,0,0,.639-.639v-5.109A.639.639,0,0,0,58.778,179.2Zm-.639,5.109h-.766a.512.512,0,0,1-.511-.511v-2.81a.512.512,0,0,1,.511-.511h.766Z" transform="translate(-55.585 -179.2)"/>
    </g>
  </g>
  <g id="Group_167" data-name="Group 167" transform="translate(8.303 7.664)">
    <g id="Group_166" data-name="Group 166">
      <path id="Path_121" data-name="Path 121" d="M172.266,102.4h-2.555v1.277h2.555a1.918,1.918,0,0,1,1.916,1.916V116.45H167.8V111.98h-1.277v5.109a.638.638,0,0,0,.639.639h7.664a.638.638,0,0,0,.639-.639v-11.5A3.2,3.2,0,0,0,172.266,102.4Z" transform="translate(-166.518 -102.4)"/>
    </g>
  </g>
  <g id="Group_169" data-name="Group 169" transform="translate(10.219 2.385)">
    <g id="Group_168" data-name="Group 168">
      <path id="Path_122" data-name="Path 122" d="M198.4,31.873l-1.233.336a1.723,1.723,0,0,1,.061.471v2.555a1.916,1.916,0,1,1-3.832,0v-2.56a1.719,1.719,0,0,1,.06-.464l-1.232-.338a2.949,2.949,0,0,0-.106.808v2.555a3.194,3.194,0,0,0,6.387,0V32.686A2.987,2.987,0,0,0,198.4,31.873Z" transform="translate(-192.116 -31.872)"/>
    </g>
  </g>
  <g id="Group_171" data-name="Group 171" transform="translate(10.219)">
    <g id="Group_170" data-name="Group 170">
      <path id="Path_123" data-name="Path 123" d="M199.143,0h-4.471a2.557,2.557,0,0,0-2.555,2.555V5.109a.639.639,0,0,0,1.09.452l2.367-2.367h1.652A2.557,2.557,0,0,0,199.782.639.638.638,0,0,0,199.143,0Zm-1.916,1.916h-1.916a.638.638,0,0,0-.452.187L193.4,3.567V2.555a1.279,1.279,0,0,1,1.277-1.277h3.66A1.277,1.277,0,0,1,197.227,1.916Z" transform="translate(-192.118)"/>
    </g>
  </g>
  <g id="Group_173" data-name="Group 173" transform="translate(2.556 22.067)">
    <g id="Group_172" data-name="Group 172">
      <path id="Path_124" data-name="Path 124" d="M110.091,306.34l-5.748-11.5-1.143.572,5.462,10.924-1.44.72-5.1-9.037a1.839,1.839,0,0,0-3.463.869v2.832a1.914,1.914,0,0,1-1.18,1.759l-5.542,2.323-.711-1.422,5.137-2.283a.639.639,0,0,0,.379-.584V295.13H95.47V301.1L90.1,303.487a.639.639,0,0,0-.312.869l1.277,2.555a.639.639,0,0,0,.818.3l6.091-2.554a3.189,3.189,0,0,0,1.964-2.933v-2.836a.568.568,0,0,1,.562-.568.575.575,0,0,1,.5.314l5.4,9.58a.64.64,0,0,0,.557.325.63.63,0,0,0,.285-.068l2.555-1.277A.639.639,0,0,0,110.091,306.34Z" transform="translate(-89.722 -294.844)"/>
    </g>
  </g>
  <g id="Group_175" data-name="Group 175" transform="translate(0 30.654)">
    <g id="Group_174" data-name="Group 174">
      <path id="Path_125" data-name="Path 125" d="M61.607,414.482l-2.267-4.541a.639.639,0,0,0-.857-.286l-2.555,1.277a.639.639,0,0,0-.285.858l2.2,4.4a1.9,1.9,0,0,0,1.715,1.063h.332a1.9,1.9,0,0,0,1.714-1.064A1.923,1.923,0,0,0,61.607,414.482Zm-1.142,1.138a.635.635,0,0,1-.572.354h-.332a.635.635,0,0,1-.571-.354s0,0,0,0l-1.917-3.828,1.411-.706,1.981,3.969A.64.64,0,0,1,60.465,415.62Z" transform="translate(-55.576 -409.587)"/>
    </g>
  </g>
  <g id="Group_177" data-name="Group 177" transform="translate(19.16 32.421)">
    <g id="Group_176" data-name="Group 176">
      <path id="Path_126" data-name="Path 126" d="M318.535,434.335a2.072,2.072,0,0,0-2.772-.923l-3.832,1.916a.639.639,0,0,0-.285.857l1.277,2.555a.639.639,0,0,0,.572.353.63.63,0,0,0,.285-.068l3.832-1.916h0A2.074,2.074,0,0,0,318.535,434.335Zm-1.5,1.632-3.26,1.631-.706-1.412,3.259-1.63a.789.789,0,1,1,.707,1.411Z" transform="translate(-311.578 -433.195)"/>
    </g>
  </g>
  <g id="Group_179" data-name="Group 179" transform="translate(5.11 4.471)">
    <g id="Group_178" data-name="Group 178">
      <path id="Path_127" data-name="Path 127" d="M124.809,59.733a.958.958,0,1,0,.958.958A.959.959,0,0,0,124.809,59.733Zm0,1.277a.319.319,0,1,1,.319-.319A.319.319,0,0,1,124.809,61.01Z" transform="translate(-123.851 -59.733)"/>
    </g>
  </g>
  <g id="Group_181" data-name="Group 181" transform="translate(16.076 11.03)">
    <g id="Group_180" data-name="Group 180">
      <path id="Path_128" data-name="Path 128" d="M280.188,148.258a2.33,2.33,0,0,0-.212-.243,2.2,2.2,0,0,0-1.562-.644h-.008a2.2,2.2,0,0,0-1.563.653l-2.7,2.7-2.746-3.295-.982.817,3.193,3.832a.639.639,0,0,0,.943.043l3.2-3.195a.931.931,0,0,1,.663-.277h0a.94.94,0,0,1,.752.376.95.95,0,0,1-.087,1.235l-3.158,3.158a2.726,2.726,0,0,1-1.929.806h-.008a2.713,2.713,0,0,1-2.267-1.22l-.281-.415-1.058.717.278.409a3.978,3.978,0,0,0,3.325,1.787h.01a4.008,4.008,0,0,0,2.835-1.183l3.155-3.155A2.235,2.235,0,0,0,280.188,148.258Z" transform="translate(-270.378 -147.371)"/>
    </g>
  </g>
  <g id="Group_183" data-name="Group 183" transform="translate(5.11 7.66)">
    <g id="Group_182" data-name="Group 182">
      <path id="Path_129" data-name="Path 129" d="M133.971,112.177a2.2,2.2,0,0,0-.934-1.4l-3.561-2.561,2.882-1.759.022-.013c.04-.026.078-.054.117-.084a2.238,2.238,0,0,0-2.6-3.64l-4.7,2.935a3.029,3.029,0,0,0-.014,5.026l5.366,3.8a2.226,2.226,0,0,0,3.023-.519c.027-.036.053-.072.076-.107A2.214,2.214,0,0,0,133.971,112.177Zm-1.422,1.018a.947.947,0,0,1-1.278.231l-5.367-3.8a1.753,1.753,0,0,1-.017-2.9l4.7-2.936a.946.946,0,0,1,.527-.16.959.959,0,0,1,.77.39.945.945,0,0,1-.171,1.324l-3.73,2.282a.638.638,0,0,0-.04,1.064l4.364,3.138a.946.946,0,0,1,.408.6A.978.978,0,0,1,132.549,113.195Z" transform="translate(-123.851 -102.352)"/>
    </g>
  </g>
  <g id="Group_185" data-name="Group 185" transform="translate(10.937 10.818)">
    <g id="Group_184" data-name="Group 184" transform="translate(0)">
      <rect id="Rectangle_41" data-name="Rectangle 41" width="4.071" height="1.277" transform="matrix(0.483, -0.875, 0.875, 0.483, 0, 3.564)"/>
    </g>
  </g>
  <g id="Group_187" data-name="Group 187" transform="translate(8.369 17.597)">
    <g id="Group_186" data-name="Group 186" transform="translate(0 0)">
      <rect id="Rectangle_42" data-name="Rectangle 42" width="2.856" height="1.277" transform="translate(0 2.554) rotate(-63.435)"/>
    </g>
  </g>
  <g id="Group_189" data-name="Group 189" transform="translate(3.194 18.521)">
    <g id="Group_188" data-name="Group 188">
      <rect id="Rectangle_43" data-name="Rectangle 43" width="5.748" height="1.277"/>
    </g>
  </g>
  <g id="Group_191" data-name="Group 191" transform="translate(22.37 10.074)">
    <g id="Group_190" data-name="Group 190" transform="translate(0 0)">
      <rect id="Rectangle_44" data-name="Rectangle 44" width="1.277" height="28.196" transform="matrix(0.974, -0.227, 0.227, 0.974, 0, 0.289)"/>
    </g>
  </g>
  <g id="Group_193" data-name="Group 193" transform="translate(5.748 7.664)">
    <g id="Group_192" data-name="Group 192">
      <rect id="Rectangle_45" data-name="Rectangle 45" width="7.025" height="1.277"/>
    </g>
  </g>
</svg>
