<svg xmlns="http://www.w3.org/2000/svg" width="23.279" height="20.099" viewBox="0 0 23.279 20.099">
  <g id="_001-cloudy" data-name="001-cloudy" transform="translate(0 -34.974)">
    <path id="Path_656" data-name="Path 656" d="M170.425,37.711a.682.682,0,0,0,.682-.682V35.656a.682.682,0,1,0-1.364,0v1.373A.682.682,0,0,0,170.425,37.711Z" transform="translate(-162.025)" fill="#8cc63e"/>
    <path id="Path_657" data-name="Path 657" d="M2.212,133.748l-1.189-.687a.682.682,0,0,0-.682,1.181l1.189.687a.682.682,0,1,0,.682-1.181Z" transform="translate(0 -93.54)" fill="#8cc63e"/>
    <path id="Path_658" data-name="Path 658" d="M1.53,313.959l-1.189.687a.682.682,0,1,0,.682,1.181l1.189-.687a.682.682,0,1,0-.682-1.181Z" transform="translate(0 -266.213)" fill="#8cc63e"/>
    <path id="Path_659" data-name="Path 659" d="M314.345,134.929l1.189-.687a.682.682,0,1,0-.682-1.181l-1.189.687a.682.682,0,1,0,.682,1.181Z" transform="translate(-299.076 -93.54)" fill="#8cc63e"/>
    <path id="Path_660" data-name="Path 660" d="M79.937,132.4a5.127,5.127,0,0,0-4.758-3.2,5.455,5.455,0,1,0-7.911,6.827,3.849,3.849,0,0,0,3.247,5.9c10.731-.011,10.144.027,10.331-.031a4.775,4.775,0,0,0-.908-9.5Zm-13.829-.968a4.091,4.091,0,0,1,7.648-2.021,5.115,5.115,0,0,0-3.675,4.856,3.777,3.777,0,0,0-1.866.741A4.1,4.1,0,0,1,66.107,131.429Zm14.48,9.127c-.243.02-6.432.008-10.073.012a2.485,2.485,0,0,1-1.672-4.316,2.455,2.455,0,0,1,1.9-.636.682.682,0,0,0,.737-.774,3.752,3.752,0,0,1,7.334-1.513.682.682,0,0,0,.8.489,3.41,3.41,0,1,1,.977,6.738Z" transform="translate(-61.799 -86.862)" fill="#8cc63e"/>
  </g>
</svg>
