<svg id="_009-barbell" data-name="009-barbell" xmlns="http://www.w3.org/2000/svg" width="31.041" height="31.041" viewBox="0 0 31.041 31.041">
  <g id="Group_394" data-name="Group 394" transform="translate(18.223 11.606)">
    <g id="Group_393" data-name="Group 393">
      <path id="Path_547" data-name="Path 547" d="M301.611,191.605a.606.606,0,1,0,0,.857A.607.607,0,0,0,301.611,191.605Z" transform="translate(-300.576 -191.428)" fill="#8cc63e"/>
    </g>
  </g>
  <g id="Group_396" data-name="Group 396" transform="translate(0 0)">
    <g id="Group_395" data-name="Group 395" transform="translate(0 0)">
      <path id="Path_548" data-name="Path 548" d="M30.33,11.857,29.472,11a3.033,3.033,0,0,0,.073-4.36l-.429-.429.428-.429A3.031,3.031,0,1,0,25.26,1.5l-.429.429L24.4,1.5a3.029,3.029,0,0,0-4.287,0l-.073.073L19.184.712a2.425,2.425,0,1,0-3.43,3.429L19.184,7.57,7.569,19.185,4.14,15.756A2.425,2.425,0,1,0,.711,19.186l.857.857-.073.073a3.029,3.029,0,0,0,0,4.287l.429.429-.428.429a3.031,3.031,0,1,0,4.286,4.287l.429-.429.429.429a3.029,3.029,0,0,0,4.287,0L11,29.474l.857.857a2.425,2.425,0,0,0,3.43-3.429l-3.429-3.429L23.471,11.858,26.9,15.287a2.425,2.425,0,1,0,3.429-3.429Zm-4.213-9.5a1.818,1.818,0,0,1,2.571,2.572l-.429.429L25.688,2.782Zm-5.145,0a1.817,1.817,0,0,1,2.572,0L28.688,7.5a1.817,1.817,0,0,1,0,2.572l-.073.073L20.9,2.426ZM4.923,28.69a1.818,1.818,0,1,1-2.571-2.572l.429-.429,2.572,2.572Zm5.145,0a1.817,1.817,0,0,1-2.572,0L2.352,23.545a1.817,1.817,0,0,1,0-2.572l.073-.073,7.716,7.716Zm4.36-.93a1.212,1.212,0,0,1-1.715,1.714L1.568,18.328a1.212,1.212,0,1,1,1.714-1.715ZM11,22.615,8.427,20.043,20.042,8.428,22.614,11ZM29.472,14.43a1.211,1.211,0,0,1-1.714,0L16.612,3.284a1.212,1.212,0,0,1,1.715-1.714L29.472,12.715A1.212,1.212,0,0,1,29.472,14.43Z" transform="translate(0 -0.001)" fill="#8cc63e"/>
    </g>
  </g>
  <g id="Group_398" data-name="Group 398" transform="translate(11.605 13.32)">
    <g id="Group_397" data-name="Group 397">
      <path id="Path_549" data-name="Path 549" d="M197.36,219.889a.606.606,0,0,0-.857,0l-4.9,4.9a.606.606,0,0,0,.857.857l4.9-4.9A.606.606,0,0,0,197.36,219.889Z" transform="translate(-191.422 -219.712)" fill="#8cc63e"/>
    </g>
  </g>
</svg>
