<svg id="_001-bus" data-name="001-bus" xmlns="http://www.w3.org/2000/svg" width="37.775" height="23.922" viewBox="0 0 37.775 23.922">
  <path id="Path_505" data-name="Path 505" d="M48,34h2.518v1.259H48Z" transform="translate(-19.039 -22.668)" fill="#8cc63e"/>
  <path id="Path_506" data-name="Path 506" d="M14,46h1.259v1.259H14Z" transform="translate(-6.445 -27.113)" fill="#8cc63e"/>
  <path id="Path_507" data-name="Path 507" d="M48,46h1.259v1.259H48Z" transform="translate(-19.039 -27.113)" fill="#8cc63e"/>
  <path id="Path_508" data-name="Path 508" d="M39.712,25.162,36,17.74A3.132,3.132,0,0,0,33.182,16H3.889A1.889,1.889,0,0,0,2,17.889V34.258a1.889,1.889,0,0,0,1.889,1.889H5.828a4.4,4.4,0,0,0,8.713,0H27.234a4.4,4.4,0,0,0,8.713,0h1.939a1.889,1.889,0,0,0,1.889-1.889V25.444A.63.63,0,0,0,39.712,25.162ZM34.871,18.3l3.256,6.511H29.7V17.259h3.48A1.88,1.88,0,0,1,34.871,18.3ZM28.442,32.439a4.393,4.393,0,0,0-1.209,2.448H23.406V19.777h5.037Zm-15.11,0V26.073h8.814v8.814H14.541A4.391,4.391,0,0,0,13.332,32.439ZM3.259,24.814V19.777H7.037v5.037ZM8.3,19.777h3.777v5.037H8.3Zm5.037,0H17.11v5.037H13.332Zm8.814,5.037H18.369V19.777h3.777ZM3.889,17.259H28.442v1.259H3.259v-.63A.63.63,0,0,1,3.889,17.259Zm-.63,11.332h.63v1.259h-.63Zm0,5.666v-.63H5.148V32.369H3.259V31.11h.63a1.259,1.259,0,0,0,1.259-1.259V28.592a1.259,1.259,0,0,0-1.259-1.259h-.63V26.073h8.814v5.468a4.391,4.391,0,0,0-6.245,3.346H3.889A.63.63,0,0,1,3.259,34.258Zm6.925,4.407a3.148,3.148,0,1,1,3.148-3.148,3.148,3.148,0,0,1-3.148,3.148Zm21.406,0a3.148,3.148,0,1,1,3.148-3.148,3.148,3.148,0,0,1-3.148,3.148Zm6.3-3.777H35.947A4.391,4.391,0,0,0,29.7,31.541V26.073h8.814v1.259H36.627a1.889,1.889,0,0,0,0,3.777h1.889v1.259H36.627v1.259h1.889v.63A.63.63,0,0,1,37.886,34.887Zm.63-6.3v1.259H36.627a.63.63,0,1,1,0-1.259Z" transform="translate(-2 -16)" fill="#8cc63e"/>
</svg>
