<svg xmlns="http://www.w3.org/2000/svg" width="21.598" height="20.726" viewBox="0 0 21.598 20.726">
  <g id="_002-favourite" data-name="002-favourite" transform="translate(0 -10.34)">
    <path id="Path_254" data-name="Path 254" d="M21.5,18.113A1.87,1.87,0,0,0,19.7,16.8H14.3l-1.7-5.16a1.869,1.869,0,0,0-1.8-1.3h-.008a1.87,1.87,0,0,0-1.8,1.319L7.342,16.8H1.9A1.9,1.9,0,0,0,.79,20.24l4.4,3.182L3.5,28.567a1.87,1.87,0,0,0,.682,2.126,1.869,1.869,0,0,0,2.232.006l4.409-3.187,4.357,3.182a1.9,1.9,0,0,0,2.927-2.112l-1.654-5.16,4.364-3.187a1.87,1.87,0,0,0,.685-2.121Zm-1.431,1.1-5.1,3.726L16.9,28.968a.633.633,0,0,1-.976.7l-5.1-3.724L5.671,29.673a.633.633,0,0,1-.972-.711l1.984-6.024L1.531,19.215A.633.633,0,0,1,1.9,18.069H8.265L10.2,12.045a.614.614,0,0,1,.6-.44h0a.614.614,0,0,1,.6.435l1.985,6.029H19.7a.633.633,0,0,1,.373,1.144Z" transform="translate(0)" fill="#fff"/>
  </g>
</svg>
