<svg id="_004-lunch" data-name="004-lunch" xmlns="http://www.w3.org/2000/svg" width="39.034" height="39.034" viewBox="0 0 39.034 39.034">
  <path id="Path_518" data-name="Path 518" d="M40.034,32.479c0-.932-.754-1.765-2.233-2.481a5.659,5.659,0,0,0-8.47-6.634V16.513A2.419,2.419,0,0,1,31.077,14.2a3.683,3.683,0,0,0,2.661-3.526V2.889a1.889,1.889,0,0,0-3.777,0v6.3a.63.63,0,1,1-1.259,0v-6.3a1.889,1.889,0,0,0-3.777,0v6.3a.63.63,0,1,1-1.259,0v-6.3a1.889,1.889,0,0,0-3.777,0V10.67A3.683,3.683,0,0,0,22.548,14.2a2.418,2.418,0,0,1,1.746,2.316V22.12a14.552,14.552,0,0,0-3.148-.344h-.834l-4.037-4.038-.446.444c-.035.035-.055.065-.044.057a2.574,2.574,0,0,1-.3.074l-.007,0V15.359a2.522,2.522,0,0,1,.886-1.865,7.454,7.454,0,0,0,2.262-5.569C18.628,4.042,16.139,1,12.962,1S7.3,4.042,7.3,7.925a7.451,7.451,0,0,0,2.262,5.568,2.525,2.525,0,0,1,.886,1.866v7.385c-.106.326-.176.615-.227.839-.035.153-.05.239-.052.263a1.137,1.137,0,0,1-.08.082c-.037.037-.059.062-.047.06a2.563,2.563,0,0,1-.3.074,6.731,6.731,0,0,0-5.271,5.272c-.016.072-.028.128-.037.171C2.162,30.326,1,31.324,1,32.479V35c0,3.307,9.818,5.037,19.517,5.037S40.034,38.3,40.034,35V32.563h-.008c0-.028.008-.056.008-.084Zm-7.555-8.814a4.407,4.407,0,1,1-4.407,4.407A4.412,4.412,0,0,1,32.479,23.665ZM26.85,28.7c-.013,0-.025,0-.038,0a3.148,3.148,0,0,0,0,6.3V33.738a1.889,1.889,0,1,1,.342-3.744,5.685,5.685,0,0,0,3.735,3.514,4.446,4.446,0,0,1-2.182,2.318q-1.441.162-3.061.269a4.4,4.4,0,0,1,1.166-8.653l.037,0a5.734,5.734,0,0,0-.037.627,5.672,5.672,0,0,0,.038.633ZM22.893,12.987a2.419,2.419,0,0,1-1.746-2.316V2.889a.63.63,0,0,1,1.259,0v6.3a1.889,1.889,0,0,0,3.777,0v-6.3a.63.63,0,0,1,1.259,0v6.3a1.889,1.889,0,0,0,3.777,0v-6.3a.63.63,0,0,1,1.259,0V10.67a2.419,2.419,0,0,1-1.746,2.316,3.683,3.683,0,0,0-2.661,3.526v7.029a14.318,14.318,0,0,0-2.518-1.075V16.513a3.683,3.683,0,0,0-2.661-3.526ZM21.147,23.035a13.16,13.16,0,0,1,6.677,1.816,5.651,5.651,0,0,0-.689,1.357c-.108-.006-.214-.025-.322-.025A5.665,5.665,0,0,0,23.2,36.212c-.866.028-1.758.044-2.683.044a58.683,58.683,0,0,1-13.772-1.4,13.152,13.152,0,0,1,.269-1.607L8.39,34.628l.445-.445a6.517,6.517,0,0,0,1.839-3.432c.035-.153.05-.239.053-.263a1.057,1.057,0,0,1,.082-.084c.033-.033.057-.059.047-.059a2.557,2.557,0,0,1,.3-.074A6.726,6.726,0,0,0,16.425,25c.035-.153.05-.239.053-.263a1.033,1.033,0,0,1,.081-.083c.034-.035.052-.062.043-.057a2.588,2.588,0,0,1,.3-.074,6.557,6.557,0,0,0,3.049-1.488Zm-2.172-.817A5.245,5.245,0,0,1,16.62,23.3,1.649,1.649,0,0,0,15.2,24.721a5.232,5.232,0,0,1-1.5,2.821,5.236,5.236,0,0,1-2.822,1.5,1.655,1.655,0,0,0-1.427,1.429,5.26,5.26,0,0,1-1.079,2.354l-.915-.915a3.935,3.935,0,0,0,.8-1.784,2.879,2.879,0,0,1,2.362-2.361,3.891,3.891,0,0,0,2.167-1.141,3.885,3.885,0,0,0,1.14-2.167A2.873,2.873,0,0,1,16.278,22.1a3.93,3.93,0,0,0,1.781-.8ZM10.4,12.56A6.2,6.2,0,0,1,8.555,7.925c0-3.177,1.936-5.666,4.407-5.666s4.407,2.489,4.407,5.666a6.2,6.2,0,0,1-1.848,4.634,3.765,3.765,0,0,0-1.3,2.8V18.7a6.423,6.423,0,0,0-2.166,1.454c-.13.13-.241.258-.353.387V15.359A3.765,3.765,0,0,0,10.4,12.56ZM5.694,29.612a5.474,5.474,0,0,1,4.325-4.323,1.652,1.652,0,0,0,1.427-1.427,5.466,5.466,0,0,1,4.321-4.321c.179-.041.312-.072.422-.11l.975.975A2.831,2.831,0,0,1,16,20.873a4.125,4.125,0,0,0-3.305,3.305,2.878,2.878,0,0,1-2.36,2.36A3.893,3.893,0,0,0,8.166,27.68a3.887,3.887,0,0,0-1.141,2.167,2.841,2.841,0,0,1-.468,1.168l-.975-.975c.038-.111.069-.245.111-.427ZM4.56,30.8l1.424,1.425a14.446,14.446,0,0,0-.47,2.295c-2.112-.657-3.254-1.4-3.254-2.038C2.259,32.08,2.884,31.447,4.56,30.8ZM38.775,35c0,1.577-6.946,3.777-18.258,3.777S2.259,36.574,2.259,35v-.611c2.949,2.061,10.639,3.129,18.258,3.129s15.309-1.068,18.258-3.129Zm-7.634.5a5.7,5.7,0,0,0,1.016-1.775c.108.006.213.016.322.016a5.662,5.662,0,0,0,4.766-2.613c1.116.538,1.53,1.041,1.53,1.354C38.775,33.473,36.013,34.714,31.14,35.5Z" transform="translate(-1 -1)" fill="#8cc63e"/>
  <path id="Path_519" data-name="Path 519" d="M49.148,45.3A3.148,3.148,0,1,0,46,42.148,3.151,3.151,0,0,0,49.148,45.3Zm0-5.037a1.889,1.889,0,1,1-1.889,1.889A1.891,1.891,0,0,1,49.148,40.259Z" transform="translate(-17.669 -15.076)" fill="#8cc63e"/>
  <path id="Path_520" data-name="Path 520" d="M19,51h1.259v1.259H19Z" transform="translate(-7.668 -19.521)" fill="#8cc63e"/>
  <path id="Path_521" data-name="Path 521" d="M23,47h1.259v1.259H23Z" transform="translate(-9.149 -18.039)" fill="#8cc63e"/>
  <path id="Path_522" data-name="Path 522" d="M27,39h1.259v1.259H27Z" transform="translate(-10.631 -15.076)" fill="#8cc63e"/>
  <path id="Path_523" data-name="Path 523" d="M32,40h1.259v1.259H32Z" transform="translate(-12.483 -15.446)" fill="#8cc63e"/>
  <path id="Path_524" data-name="Path 524" d="M29,46h1.259v1.259H29Z" transform="translate(-11.372 -17.669)" fill="#8cc63e"/>
  <path id="Path_525" data-name="Path 525" d="M29,53h1.259v1.259H29Z" transform="translate(-11.372 -20.262)" fill="#8cc63e"/>
  <path id="Path_526" data-name="Path 526" d="M23,53h1.259v1.259H23Z" transform="translate(-9.149 -20.262)" fill="#8cc63e"/>
</svg>
