<svg id="_008-room-service" data-name="008-room-service" xmlns="http://www.w3.org/2000/svg" width="31.041" height="28.877" viewBox="0 0 31.041 28.877">
  <g id="Group_392" data-name="Group 392" transform="translate(0 0)">
    <path id="Path_546" data-name="Path 546" d="M29.958,30.007a16.819,16.819,0,0,0-2.818-4.882,14.322,14.322,0,0,0-4.3-3.553A13.683,13.683,0,0,0,18.6,20.159a2.56,2.56,0,0,0-5.1,0A13.725,13.725,0,0,0,9.58,21.415,14.121,14.121,0,0,0,5.335,24.7a.455.455,0,0,0,.68.6A12.73,12.73,0,0,1,14.01,21h.007a13.983,13.983,0,0,1,8.374,1.366,13.4,13.4,0,0,1,4.027,3.314,16.3,16.3,0,0,1,2.55,4.287H3.142A16.271,16.271,0,0,1,4.912,26.7a.455.455,0,0,0-.745-.522,16.655,16.655,0,0,0-2.014,3.828,1.424,1.424,0,0,0,.341,2.807H9.361L5.386,37.927H.455A.455.455,0,0,0,0,38.382v7.889a.455.455,0,0,0,.508.452l5.154-.609a.455.455,0,0,0,.4-.452V43.972l10.8-2.667a1.666,1.666,0,0,0,.875-.458l.017-.017,5.507-6.073a1.677,1.677,0,0,0,.3-1.943h6.058a1.424,1.424,0,0,0,.341-2.807ZM17.514,20.02a16.39,16.39,0,0,0-1.881-.06c-.329.008-.658.028-.986.056l-.2.017a1.651,1.651,0,0,1,3.216,0ZM5.154,45.257l-4.244.5V38.837H5.154ZM22.608,34.121l-.017.017L17.086,40.21a.76.76,0,0,1-.4.2l-.031.006L6.063,43.036v-4.5l4.287-5.515a.764.764,0,0,1,1.152.992c-.042.061-2.379,3.651-2.382,3.655a.458.458,0,0,0,.382.7h6.466a.455.455,0,0,0,.32-.132l5.242-5.2a.764.764,0,1,1,1.076,1.085ZM12.363,32.814h2.643l-4.647,4.612s1.846-2.829,1.89-2.892A1.668,1.668,0,0,0,12.363,32.814Zm.69,4.647H11.615l4.459-4.425a.759.759,0,0,1,.538-.222.771.771,0,0,1,.688.432Zm5.75-4.425a.759.759,0,0,1,.538-.222.769.769,0,0,1,.688.432l-4.247,4.215H14.344ZM29.616,31.9H2.494a.515.515,0,1,1,0-1.03H29.616a.515.515,0,1,1,0,1.03Z" transform="translate(0 -17.849)" fill="#8cc63e"/>
  </g>
</svg>
