<svg id="_002-swimming" data-name="002-swimming" xmlns="http://www.w3.org/2000/svg" width="31.041" height="24.6" viewBox="0 0 31.041 24.6">
  <path id="Path_509" data-name="Path 509" d="M.535,16.378a3.251,3.251,0,0,1,2.183.8,4.285,4.285,0,0,0,2.809,1,4.287,4.287,0,0,0,2.81-1,3.389,3.389,0,0,1,4.369,0,4.448,4.448,0,0,0,5.619,0,3.391,3.391,0,0,1,4.37,0,4.451,4.451,0,0,0,5.623,0,3.259,3.259,0,0,1,2.187-.8.535.535,0,0,0,.535-.535V12.46a.535.535,0,0,0-.535-.535,5.335,5.335,0,0,0-2.74.689,4.264,4.264,0,0,1-2.257.573,3.256,3.256,0,0,1-2.186-.8,4.49,4.49,0,0,0-2.034-.934L16.831,6.625l4.422-3.648A1.685,1.685,0,0,0,19.213.3L13.37,4.938a1.605,1.605,0,0,0-.235,2.285l1.632,1.958-2.89,2.408a4.388,4.388,0,0,0-1.357-.2,4.287,4.287,0,0,0-2.808,1,3.254,3.254,0,0,1-2.185.8,4.254,4.254,0,0,1-2.255-.573,5.328,5.328,0,0,0-2.738-.689A.535.535,0,0,0,0,12.46v3.383a.535.535,0,0,0,.535.535ZM15.864,9.66a.535.535,0,0,0,.068-.753L13.957,6.538a.535.535,0,0,1,.079-.761l5.82-4.623a.615.615,0,0,1,.727.992l-4.87,4.014a.535.535,0,0,0-.054.776l4.158,4.505a4.448,4.448,0,0,0-2.12.948,3.389,3.389,0,0,1-4.37,0c-.129-.093-.264-.188-.406-.282Zm-10.336,4.6a4.285,4.285,0,0,0,2.81-1,3.389,3.389,0,0,1,4.369,0,4.448,4.448,0,0,0,5.619,0,3.39,3.39,0,0,1,4.37,0,4.292,4.292,0,0,0,2.812,1,5.343,5.343,0,0,0,2.74-.689,4.289,4.289,0,0,1,1.722-.547v2.315a4.368,4.368,0,0,0-2.276.971,3.392,3.392,0,0,1-4.372,0,4.45,4.45,0,0,0-5.619,0,3.389,3.389,0,0,1-4.37,0,4.449,4.449,0,0,0-5.619,0,3.254,3.254,0,0,1-2.185.8,3.251,3.251,0,0,1-2.183-.8,4.362,4.362,0,0,0-2.275-.971V13.022a4.287,4.287,0,0,1,1.719.548,5.332,5.332,0,0,0,2.738.688Zm0,0" transform="translate(0 0.001)" fill="#8cc63e"/>
  <path id="Path_510" data-name="Path 510" d="M304,76.953a2.676,2.676,0,1,0,2.676-2.676A2.676,2.676,0,0,0,304,76.953Zm2.676-1.606a1.606,1.606,0,1,1-1.606,1.606A1.606,1.606,0,0,1,306.676,75.347Zm0,0" transform="translate(-283.663 -69.308)" fill="#8cc63e"/>
  <path id="Path_511" data-name="Path 511" d="M.535,278.557a3.076,3.076,0,0,1,2.165.87,4.1,4.1,0,0,0,2.827,1.1,4.287,4.287,0,0,0,2.81-1,3.389,3.389,0,0,1,4.369,0,4.448,4.448,0,0,0,5.619,0,3.391,3.391,0,0,1,4.37,0,4.289,4.289,0,0,0,2.811,1,4.1,4.1,0,0,0,2.83-1.1,3.082,3.082,0,0,1,2.168-.87.535.535,0,0,0,.535-.535V274.81a.535.535,0,0,0-.535-.535,4.1,4.1,0,0,0-2.83,1.1,3.082,3.082,0,0,1-2.167.87,3.256,3.256,0,0,1-2.186-.8,4.449,4.449,0,0,0-5.619,0,3.389,3.389,0,0,1-4.37,0,4.449,4.449,0,0,0-5.619,0,3.253,3.253,0,0,1-2.185.8,3.076,3.076,0,0,1-2.166-.87,4.1,4.1,0,0,0-2.828-1.1A.535.535,0,0,0,0,274.81v3.211a.535.535,0,0,0,.535.535Zm4.992-1.242a4.286,4.286,0,0,0,2.81-1,3.389,3.389,0,0,1,4.369,0,4.448,4.448,0,0,0,5.619,0,3.391,3.391,0,0,1,4.37,0,4.289,4.289,0,0,0,2.811,1,4.1,4.1,0,0,0,2.83-1.1,3.3,3.3,0,0,1,1.633-.826v2.128a4.207,4.207,0,0,0-2.295,1.07,3.082,3.082,0,0,1-2.167.87,3.255,3.255,0,0,1-2.186-.8,4.45,4.45,0,0,0-5.619,0,3.389,3.389,0,0,1-4.37,0,4.449,4.449,0,0,0-5.619,0,3.253,3.253,0,0,1-2.185.8,3.076,3.076,0,0,1-2.166-.87,4.2,4.2,0,0,0-2.292-1.07v-2.128a3.3,3.3,0,0,1,1.63.826,4.1,4.1,0,0,0,2.828,1.1Zm0,0" transform="translate(0 -255.926)" fill="#8cc63e"/>
  <path id="Path_512" data-name="Path 512" d="M143.907,45.065A3.33,3.33,0,0,0,145.1,48a.535.535,0,0,0,.757-.757,2.356,2.356,0,0,1-.9-1.994c.207-1.186,1.8-1.952,1.82-1.959a.535.535,0,1,0-.454-.97c-.086.04-2.114,1-2.419,2.74Zm0,0" transform="translate(-134.243 -39.446)" fill="#8cc63e"/>
  <path id="Path_513" data-name="Path 513" d="M111.873,33.731a.535.535,0,0,0,.406-.884A3.567,3.567,0,0,1,111.245,30a4.666,4.666,0,0,1,1.984-2.769.536.536,0,0,0-.568-.91,5.685,5.685,0,0,0-2.472,3.509,4.572,4.572,0,0,0,1.279,3.716A.534.534,0,0,0,111.873,33.731Zm0,0" transform="translate(-102.775 -24.48)" fill="#8cc63e"/>
</svg>
