<svg id="_005-washing-machine" data-name="005-washing-machine" xmlns="http://www.w3.org/2000/svg" width="31.041" height="37.249" viewBox="0 0 31.041 37.249">
  <path id="Path_527" data-name="Path 527" d="M27.937,0H3.1A3.108,3.108,0,0,0,0,3.1V32.9a1.862,1.862,0,0,0,1.863,1.863v1.862a.621.621,0,0,0,.621.621H28.558a.621.621,0,0,0,.621-.621V34.766A1.863,1.863,0,0,0,31.041,32.9V3.1a3.108,3.108,0,0,0-3.1-3.1ZM3.1,1.242H27.937A1.863,1.863,0,0,1,29.8,3.1V7.45H1.242V3.1A1.862,1.862,0,0,1,3.1,1.242ZM27.937,36.007H3.1V34.766H27.937Zm1.242-2.483H1.863a.621.621,0,0,1-.621-.621V8.691H29.8V32.9a.621.621,0,0,1-.621.621Zm0,0" fill="#8cc63e"/>
  <path id="Path_528" data-name="Path 528" d="M34.754,37.858H42.2a.621.621,0,0,0,.621-.621V34.754a.621.621,0,0,0-.621-.621h-7.45a.621.621,0,0,0-.621.621v2.483A.621.621,0,0,0,34.754,37.858Zm.621-2.483h6.208v1.242H35.374Zm0,0" transform="translate(-31.65 -31.65)" fill="#8cc63e"/>
  <path id="Path_529" data-name="Path 529" d="M172.531,37.858A1.862,1.862,0,1,0,170.668,36,1.862,1.862,0,0,0,172.531,37.858Zm0-2.483a.621.621,0,1,1-.621.621A.621.621,0,0,1,172.531,35.374Zm0,0" transform="translate(-158.252 -31.649)" fill="#8cc63e"/>
  <path id="Path_530" data-name="Path 530" d="M240.8,37.858A1.862,1.862,0,1,0,238.933,36,1.862,1.862,0,0,0,240.8,37.858Zm0-2.483a.621.621,0,1,1-.621.621A.621.621,0,0,1,240.8,35.374Zm0,0" transform="translate(-221.55 -31.649)" fill="#8cc63e"/>
  <path id="Path_531" data-name="Path 531" d="M307.82,52.441h1.242a.621.621,0,0,0,0-1.242H307.82a.621.621,0,1,0,0,1.242Zm0,0" transform="translate(-284.85 -47.474)" fill="#8cc63e"/>
  <path id="Path_532" data-name="Path 532" d="M359.02,52.441h1.242a.621.621,0,1,0,0-1.242H359.02a.621.621,0,1,0,0,1.242Zm0,0" transform="translate(-332.325 -47.474)" fill="#8cc63e"/>
  <path id="Path_533" data-name="Path 533" d="M86.734,153.6a9.933,9.933,0,1,0,9.933,9.933A9.933,9.933,0,0,0,86.734,153.6Zm0,18.624a8.691,8.691,0,1,1,8.692-8.692A8.692,8.692,0,0,1,86.734,172.226Zm0,0" transform="translate(-71.214 -142.427)" fill="#8cc63e"/>
  <path id="Path_534" data-name="Path 534" d="M110.469,179.2A8.062,8.062,0,0,0,103,190.329c0,.013,0,.025,0,.038s.017.024.023.039a8.064,8.064,0,0,0,15.223-1.049.241.241,0,0,0,.008-.031,8.04,8.04,0,0,0-7.795-10.127Zm0,1.242a6.813,6.813,0,0,1,6.663,8.306,9.593,9.593,0,0,0-.952.373,5.633,5.633,0,0,1-2.607.633,4.193,4.193,0,0,1-2.206-.559,5.424,5.424,0,0,0-2.761-.683,16.307,16.307,0,0,0-4.629.869,6.821,6.821,0,0,1,6.491-8.94Zm0,13.658a6.834,6.834,0,0,1-6-3.57,14.791,14.791,0,0,1,4.137-.776,4.2,4.2,0,0,1,2.206.559,5.422,5.422,0,0,0,2.761.683,6.7,6.7,0,0,0,3.007-.695A6.829,6.829,0,0,1,110.469,194.1Zm0,0" transform="translate(-94.948 -166.161)" fill="#8cc63e"/>
</svg>
