<svg id="_003-wifi" data-name="003-wifi" xmlns="http://www.w3.org/2000/svg" width="34.569" height="24.635" viewBox="0 0 34.569 24.635">
  <path id="Path_514" data-name="Path 514" d="M34.384,14.962a24.21,24.21,0,0,0-34.2,0,.629.629,0,0,0,.89.89,22.95,22.95,0,0,1,32.42,0,.629.629,0,0,0,.89-.89Z" transform="translate(0 -7.89)" fill="#8cc63e"/>
  <path id="Path_515" data-name="Path 515" d="M6.062,21.74a.629.629,0,1,0,.89.89,17.71,17.71,0,0,1,25.018,0,.629.629,0,1,0,.89-.89A18.971,18.971,0,0,0,6.062,21.74Z" transform="translate(-2.177 -10.968)" fill="#8cc63e"/>
  <path id="Path_516" data-name="Path 516" d="M21.639,24.508a13.624,13.624,0,0,0-9.7,4.011.629.629,0,1,0,.89.89,12.471,12.471,0,0,1,17.616,0,.629.629,0,1,0,.89-.89A13.623,13.623,0,0,0,21.639,24.508Z" transform="translate(-4.355 -14.046)" fill="#8cc63e"/>
  <path id="Path_517" data-name="Path 517" d="M25.027,33.916a4.125,4.125,0,1,0,4.125,4.125A4.129,4.129,0,0,0,25.027,33.916Zm0,6.99a2.866,2.866,0,1,1,2.866-2.866A2.869,2.869,0,0,1,25.027,40.906Z" transform="translate(-7.743 -17.531)" fill="#8cc63e"/>
</svg>
