<svg xmlns="http://www.w3.org/2000/svg" width="18" height="17.522" viewBox="0 0 18 17.522">
  <g id="_002-airport" data-name="002-airport" transform="translate(0 -6.796)">
    <path id="Path_725" data-name="Path 725" d="M75.958,13.276,74.771,15.1a.368.368,0,0,0,.309.569h.85a.423.423,0,0,0,.252-.085l1.742-1.311,2.461.422h.007a.887.887,0,0,0,.126.009h.954l-2.662,4.507a.358.358,0,0,0,.309.541h1.51A.53.53,0,0,0,81,19.6l1.34-1.3a.263.263,0,1,0-.367-.378l-1.34,1.3,0,0H79.412L82.083,14.7l3.211,0-2.43,2.358a.263.263,0,1,0,.367.378l2.82-2.737,1.335,0a1.747,1.747,0,0,0,.659-.13l1.3-.529a.84.84,0,0,0,0-1.557l-1.3-.524a1.746,1.746,0,0,0-.657-.128h0l-1.357,0L81,6.947a.53.53,0,0,0-.37-.15h-1.51a.358.358,0,0,0-.309.541l2.655,4.5h-.952a.871.871,0,0,0-.126.01h-.006l-2.46.43L76.173,10.97a.424.424,0,0,0-.252-.084h-.85a.368.368,0,0,0-.307.57Zm-.072-1.863,1.736,1.3a.475.475,0,0,0,.365.087l2.478-.434a.339.339,0,0,1,.046,0l3.517-.005a.263.263,0,0,0,0-.527h0l-1.954,0L79.412,7.323h1.215l0,0,4.653,4.516a.263.263,0,0,0,.085.512h0l2.012,0h0a1.222,1.222,0,0,1,.46.089l1.3.524a.314.314,0,0,1,0,.581l-1.3.529a1.223,1.223,0,0,1-.461.091l-6.87.011h0a.337.337,0,0,1-.045,0l-2.48-.425a.475.475,0,0,0-.365.088l-1.732,1.3h-.521l1.047-1.605a.474.474,0,0,0,0-.519l-1.052-1.6Z" transform="translate(-72.078)"/>
    <circle id="Ellipse_80" data-name="Ellipse 80" cx="0.339" cy="0.339" r="0.339" transform="translate(9.097 12.946) rotate(-5.853)"/>
    <ellipse id="Ellipse_81" data-name="Ellipse 81" cx="0.339" cy="0.339" rx="0.339" ry="0.339" transform="translate(10.296 13.467) rotate(-72.543)"/>
    <ellipse id="Ellipse_82" data-name="Ellipse 82" cx="0.339" cy="0.339" rx="0.339" ry="0.339" transform="translate(11.469 13.245) rotate(-45)"/>
    <path id="Path_726" data-name="Path 726" d="M366.249,181.245a.339.339,0,1,0-.339-.338A.339.339,0,0,0,366.249,181.245Z" transform="translate(-353.046 -167.663)"/>
    <path id="Path_727" data-name="Path 727" d="M17.386,289.486H5.152V288.34h.157a.263.263,0,1,0,0-.526H5.152v-1.146h.157a.263.263,0,1,0,0-.526H5.152v-.31a.438.438,0,0,0-.27-.4L3.6,284.89a.8.8,0,0,0-.609,0l-1.287.537a.438.438,0,0,0-.27.4v.31H1.29a.263.263,0,1,0,0,.526h.141v1.146H1.29a.263.263,0,1,0,0,.526h.141v1.146H.614A.615.615,0,0,0,0,290.1v1.863a.615.615,0,0,0,.614.614h.873a.263.263,0,1,0,0-.526H.614a.088.088,0,0,1-.088-.088V290.1a.088.088,0,0,1,.088-.088H17.386a.088.088,0,0,1,.088.088v1.863a.088.088,0,0,1-.088.088H15.929v-1.016a.439.439,0,0,0-.439-.439H8.8a.439.439,0,0,0-.439.439v1.016H2.869a.263.263,0,1,0,0,.526H17.386a.615.615,0,0,0,.614-.614V290.1A.615.615,0,0,0,17.386,289.486Zm-12.76-1.672H1.957v-1.146H4.626ZM3.19,285.376a.265.265,0,0,1,.2,0l1.233.515v.251H1.957v-.251ZM1.957,288.34H4.626v1.146H1.957ZM12.4,291.122h1.324v.928H12.4Zm-.527.928H10.54v-.928h1.334Zm-2.992-.928h1.131v.928H8.883Zm5.369.928v-.928H15.4v.928Z" transform="translate(0 -268.259)"/>
  </g>
</svg>
