<svg xmlns="http://www.w3.org/2000/svg" width="36" height="33.927" viewBox="0 0 36 33.927">
  <g id="bus" transform="translate(0)">
    <path id="Path_652" data-name="Path 652" d="M34.907,6.352h-.665a1.939,1.939,0,0,0-1.936-1.9H30.7V1.937A1.94,1.94,0,0,0,28.759,0H7.242A1.94,1.94,0,0,0,5.3,1.937V4.45H3.695a1.939,1.939,0,0,0-1.936,1.9H1.094A1.1,1.1,0,0,0,0,7.445v5.633a1.1,1.1,0,0,0,1.093,1.093H3.478a1.1,1.1,0,0,0,1.093-1.093V7.445A1.1,1.1,0,0,0,3.478,6.352H2.816a.881.881,0,0,1,.879-.845H5.3v19.6a.528.528,0,0,0,1.057,0V20.752a1.923,1.923,0,0,0,.881.213H28.759a1.922,1.922,0,0,0,.881-.213v8.531a.881.881,0,0,1-.881.881H7.242a.881.881,0,0,1-.881-.881V27.551a.528.528,0,0,0-1.057,0v1.731a1.939,1.939,0,0,0,1.937,1.937h.55v1.228a1.481,1.481,0,0,0,1.48,1.48h2.375a1.481,1.481,0,0,0,1.479-1.48V31.219h9.75v1.228a1.481,1.481,0,0,0,1.479,1.48H26.73a1.481,1.481,0,0,0,1.48-1.48V31.219h.55A1.939,1.939,0,0,0,30.7,29.282V5.506h1.609a.881.881,0,0,1,.879.845h-.662a1.1,1.1,0,0,0-1.094,1.093v5.633a1.1,1.1,0,0,0,1.094,1.093h2.385A1.1,1.1,0,0,0,36,13.078V7.445a1.1,1.1,0,0,0-1.093-1.093ZM3.478,7.409a.037.037,0,0,1,.037.037v5.633a.037.037,0,0,1-.037.037H1.094a.037.037,0,0,1-.037-.037V7.445a.037.037,0,0,1,.037-.037Zm8.59,25.039a.423.423,0,0,1-.423.423H9.271a.423.423,0,0,1-.423-.423V31.219h3.22v1.228Zm15.084,0a.423.423,0,0,1-.423.423H24.354a.423.423,0,0,1-.423-.423V31.219h3.221ZM29.639,6.311H8.3a.528.528,0,0,0,0,1.057H29.64V17.377H26.149a.528.528,0,0,0,0,1.057H29.64v.594a.882.882,0,0,1-.881.881H7.242a.882.882,0,0,1-.881-.881v-.594H23.683a.528.528,0,0,0,0-1.057h-5.2l4.985-4.167a.527.527,0,0,0-.676-.809l-5.953,4.976H14.573l4.985-4.167a.527.527,0,1,0-.676-.809l-5.953,4.977H6.361V4.62H29.639Zm0-2.748H6.361V1.937a.881.881,0,0,1,.881-.881H28.759a.881.881,0,0,1,.881.881Zm5.3,9.515a.037.037,0,0,1-.037.037H32.522a.037.037,0,0,1-.037-.037V7.445a.037.037,0,0,1,.037-.037h2.385a.037.037,0,0,1,.037.037Zm0,0" transform="translate(0 0)" fill="#ffffff"/>
    <path id="Path_653" data-name="Path 653" d="M115.284,327.015a.882.882,0,0,0,.881-.881v-.845a2.08,2.08,0,0,0-2.078-2.078h-3.241a.881.881,0,0,0-.881.881v.845a2.081,2.081,0,0,0,2.078,2.078Zm-4.262-2.078v-.669h3.065a1.023,1.023,0,0,1,1.021,1.021v.669h-3.064A1.023,1.023,0,0,1,111.021,324.937Zm0,0" transform="translate(-102.233 -300.485)" fill="#ffffff"/>
    <path id="Path_654" data-name="Path 654" d="M317.985,327.015a2.081,2.081,0,0,0,2.078-2.078v-.845a.882.882,0,0,0-.881-.881h-3.241a2.081,2.081,0,0,0-2.078,2.078v.845a.882.882,0,0,0,.881.881Zm-3.065-1.726a1.023,1.023,0,0,1,1.022-1.021h3.064v.669a1.022,1.022,0,0,1-1.021,1.021H314.92Zm0,0" transform="translate(-291.795 -300.485)" fill="#ffffff"/>
    <path id="Path_655" data-name="Path 655" d="M218.545,381.4a.677.677,0,0,0,.677-.677V379.33a.677.677,0,0,0-.677-.677H213.88a.677.677,0,0,0-.677.677v1.394a.677.677,0,0,0,.677.677Zm-4.285-1.691h3.905v.634H214.26Zm0,0" transform="translate(-198.212 -352.029)" fill="#ffffff"/>
  </g>
</svg>