<svg xmlns="http://www.w3.org/2000/svg" width="18" height="15.75" viewBox="0 0 18 15.75">
  <g id="_009-coffee-cup" data-name="009-coffee-cup" transform="translate(0 -32)">
    <g id="Group_556" data-name="Group 556" transform="translate(2.249 38)">
      <g id="Group_555" data-name="Group 555" transform="translate(0 0)">
        <path id="Path_770" data-name="Path 770" d="M75.613,202.654h-10.5a1.126,1.126,0,0,0-1.125,1.125v.75a7.108,7.108,0,0,0,3.857,6.334.375.375,0,0,0,.344-.667,6.359,6.359,0,0,1-3.452-5.667v-.75a.375.375,0,0,1,.375-.375h10.5a.375.375,0,0,1,.375.375v.75a6.356,6.356,0,0,1-3.452,5.666.375.375,0,0,0,.172.709.37.37,0,0,0,.172-.042,7.1,7.1,0,0,0,3.858-6.333v-.75A1.126,1.126,0,0,0,75.613,202.654Z" transform="translate(-63.988 -202.654)"/>
      </g>
    </g>
    <g id="Group_558" data-name="Group 558" transform="translate(0 45.5)">
      <g id="Group_557" data-name="Group 557" transform="translate(0 0)">
        <path id="Path_771" data-name="Path 771" d="M17.222,416.2a.376.376,0,0,0-.347-.232H.375a.375.375,0,0,0-.266.641l.841.842a2.609,2.609,0,0,0,1.856.769H14.442a2.614,2.614,0,0,0,1.858-.769l.841-.842A.374.374,0,0,0,17.222,416.2Zm-1.453.72a1.864,1.864,0,0,1-1.326.549H2.807a1.864,1.864,0,0,1-1.326-.549l-.2-.2H15.97Z" transform="translate(0 -415.966)"/>
      </g>
    </g>
    <g id="Group_560" data-name="Group 560" transform="translate(12.484 39.499)">
      <g id="Group_559" data-name="Group 559" transform="translate(0 0)">
        <path id="Path_772" data-name="Path 772" d="M359.884,245.545c-1.01-.65-2.624.056-2.805.137a.375.375,0,1,0,.311.683c.362-.164,1.521-.554,2.088-.188a1.066,1.066,0,0,1,.381.972c0,1.5-3.029,2.409-4.2,2.633l-.266.052a.375.375,0,0,0,.072.743.348.348,0,0,0,.073-.007l.263-.052c.2-.038,4.805-.941,4.805-3.368A1.769,1.769,0,0,0,359.884,245.545Z" transform="translate(-355.093 -245.272)"/>
      </g>
    </g>
    <g id="Group_562" data-name="Group 562" transform="translate(10.5 32.001)">
      <g id="Group_561" data-name="Group 561" transform="translate(0 0)">
        <path id="Path_773" data-name="Path 773" d="M299.711,34.859a2.247,2.247,0,0,0,0-2.717.375.375,0,0,0-.586.469,1.513,1.513,0,0,1,0,1.781,2.245,2.245,0,0,0,0,2.717.375.375,0,0,0,.586-.469A1.51,1.51,0,0,1,299.711,34.859Z" transform="translate(-298.666 -32.001)"/>
      </g>
    </g>
    <g id="Group_564" data-name="Group 564" transform="translate(8.248 32.001)">
      <g id="Group_563" data-name="Group 563" transform="translate(0 0)">
        <path id="Path_774" data-name="Path 774" d="M235.641,34.868a2.245,2.245,0,0,0,0-2.717.375.375,0,1,0-.586.469,1.51,1.51,0,0,1,0,1.781,2.247,2.247,0,0,0,0,2.717.375.375,0,0,0,.586-.469A1.513,1.513,0,0,1,235.641,34.868Z" transform="translate(-234.597 -32.009)"/>
      </g>
    </g>
    <g id="Group_566" data-name="Group 566" transform="translate(6 32.001)">
      <g id="Group_565" data-name="Group 565" transform="translate(0 0)">
        <path id="Path_775" data-name="Path 775" d="M171.711,34.88a2.247,2.247,0,0,0,0-2.717.375.375,0,0,0-.586.468,1.513,1.513,0,0,1,0,1.781,2.245,2.245,0,0,0,0,2.717.375.375,0,1,0,.586-.468A1.51,1.51,0,0,1,171.711,34.88Z" transform="translate(-170.666 -32.022)"/>
      </g>
    </g>
  </g>
</svg>
