<svg id="_004-home" data-name="004-home" xmlns="http://www.w3.org/2000/svg" width="30" height="28.998" viewBox="0 0 30 28.998">
  <path id="Path_99" data-name="Path 99" d="M44.482,41.061q0-.032,0-.063a2,2,0,0,0-2-2V29.749l1.8-1.35a.5.5,0,0,0,0-.8l-4.295-3.138V19a.5.5,0,0,0,.5-.5v-2a.5.5,0,0,0-.5-.5h-5a.5.5,0,0,0-.5.5v2a.5.5,0,0,0,.5.5v1.8l-3.7-2.707a.5.5,0,0,0-.59,0l-13,9.5a.5.5,0,0,0,0,.8l1.8,1.35V39a2,2,0,0,0-2,2q0,.031,0,.063a2,2,0,0,0,.5,3.937h26a2,2,0,0,0,.5-3.937ZM35.484,17h4v1h-4Zm.5,4.5V19h3v4.727L35.936,21.5Zm-5-2.381L43.143,28l-1.164.873L31.278,21.1a.5.5,0,0,0-.588,0l-10.7,7.782L18.825,28ZM16.985,43a1,1,0,0,1,.985-1h0c.026,0,.051.007.077.008a.5.5,0,0,0,.5-.67A.983.983,0,0,1,18.485,41a1,1,0,0,1,1-1v4h-1.5A1,1,0,0,1,16.985,43Zm21.5,1h-6V33h6Zm1,0V32.5a.5.5,0,0,0-.5-.5h-7a.5.5,0,0,0-.5.5V44h-11V29.754l10.5-7.636,10.5,7.636V44Zm4.5,0h-1.5V40a1,1,0,0,1,1,1,.983.983,0,0,1-.065.339.5.5,0,0,0,.5.67c.026,0,.052,0,.077-.008h0a1,1,0,0,1-.015,2Z" transform="translate(-15.984 -16)"/>
  <path id="Path_100" data-name="Path 100" d="M126.5,272h-6a.5.5,0,0,0-.5.5v7a.5.5,0,0,0,.5.5h6a.5.5,0,0,0,.5-.5v-7A.5.5,0,0,0,126.5,272Zm-.5,3.5h-2V273h2Zm-3-2.5v2.5h-2V273Zm-2,3.5h2V279h-2Zm3,2.5v-2.5h2V279Z" transform="translate(-113.499 -256.001)"/>
  <ellipse id="Ellipse_10" data-name="Ellipse 10" cx="0.5" cy="0.5" rx="0.5" ry="0.5" transform="translate(17.347 22.269) rotate(-67.5)"/>
</svg>
