<svg id="_001-hotel" data-name="001-hotel" xmlns="http://www.w3.org/2000/svg" width="30" height="30" viewBox="0 0 30 30">
  <path id="Path_78" data-name="Path 78" d="M37.516,37.028h-.968V15.738h.484a.484.484,0,0,0,.484-.484V13.8a.484.484,0,0,0-.484-.484H35.083a2.139,2.139,0,0,0,.013-.242,2.181,2.181,0,0,0-1.969-2.168A3.387,3.387,0,0,0,26.956,9.5a2.905,2.905,0,0,0-3.307,3.815H8.968a.484.484,0,0,0-.484.484v1.452a.484.484,0,0,0,.484.484h.484v21.29H8.484a.484.484,0,0,0,0,.968H37.516a.484.484,0,1,0,0-.968ZM26.387,10.415a1.938,1.938,0,0,1,.64.109.484.484,0,0,0,.591-.237,2.419,2.419,0,0,1,4.576,1.088c0,.008,0,.017,0,.026a.484.484,0,0,0,.553.479,1.189,1.189,0,0,1,.173-.013,1.211,1.211,0,0,1,1.21,1.21,1.189,1.189,0,0,1-.024.242H24.71a1.937,1.937,0,0,1,1.677-2.9ZM18.645,37.028H10.419V30.254h7.258v.968a.484.484,0,0,0,.484.484h.484Zm3.871,0H21.065V33.157h1.452Zm2.419,0H23.484V33.157h1.452Zm1.452,0H25.9V32.673a.484.484,0,0,0-.484-.484H20.581a.484.484,0,0,0-.484.484v4.355h-.484V31.705h6.774Zm-7.742-6.29V29.77h8.71v.968Zm16.935,6.29H27.355V31.705h.484a.484.484,0,0,0,.484-.484v-.968h7.258Zm0-7.742H28.323a.484.484,0,0,0-.484-.484H18.161a.484.484,0,0,0-.484.484H10.419V15.738H35.581ZM9.452,14.77v-.484h27.1v.484Z" transform="translate(-8 -7.995)"/>
  <path id="Path_79" data-name="Path 79" d="M64.484,156.839h2.9a.484.484,0,0,0,.484-.484v-3.871a.484.484,0,0,0-.484-.484h-2.9a.484.484,0,0,0-.484.484v3.871A.484.484,0,0,0,64.484,156.839Zm.484-.968v-1.452H66.9v1.452Zm1.935-2.9v.484H64.968v-.484Z" transform="translate(-58.613 -143.29)"/>
  <path id="Path_80" data-name="Path 80" d="M224.484,156.839h2.9a.484.484,0,0,0,.484-.484v-3.871a.484.484,0,0,0-.484-.484h-2.9a.484.484,0,0,0-.484.484v3.871A.484.484,0,0,0,224.484,156.839Zm.484-.968v-1.452H226.9v1.452Zm1.935-2.9v.484h-1.935v-.484Z" transform="translate(-210.935 -143.29)"/>
  <path id="Path_82" data-name="Path 82" d="M384.484,156.839h2.9a.484.484,0,0,0,.484-.484v-3.871a.484.484,0,0,0-.484-.484h-2.9a.484.484,0,0,0-.484.484v3.871A.484.484,0,0,0,384.484,156.839Zm.484-.968v-1.452H386.9v1.452Zm1.936-2.9v.484h-1.936v-.484Z" transform="translate(-363.258 -143.29)"/>
  <path id="Path_84" data-name="Path 84" d="M64.484,252.839h2.9a.484.484,0,0,0,.484-.484v-3.871a.484.484,0,0,0-.484-.484h-2.9a.484.484,0,0,0-.484.484v3.871A.484.484,0,0,0,64.484,252.839Zm.484-.968v-1.452H66.9v1.452Zm1.935-2.9v.484H64.968v-.484Z" transform="translate(-58.613 -233.484)"/>
  <path id="Path_85" data-name="Path 85" d="M224.484,252.839h2.9a.484.484,0,0,0,.484-.484v-3.871a.484.484,0,0,0-.484-.484h-2.9a.484.484,0,0,0-.484.484v3.871A.484.484,0,0,0,224.484,252.839Zm.484-.968v-1.452H226.9v1.452Zm1.935-2.9v.484h-1.935v-.484Z" transform="translate(-210.935 -233.484)"/>
  <path id="Path_87" data-name="Path 87" d="M384.484,252.839h2.9a.484.484,0,0,0,.484-.484v-3.871a.484.484,0,0,0-.484-.484h-2.9a.484.484,0,0,0-.484.484v3.871A.484.484,0,0,0,384.484,252.839Zm.484-.968v-1.452H386.9v1.452Zm1.936-2.9v.484h-1.936v-.484Z" transform="translate(-363.258 -233.484)"/>
  <path id="Path_88" data-name="Path 88" d="M68.355,392H64.484a.484.484,0,0,0-.484.484v3.871a.484.484,0,0,0,.484.484h3.871a.484.484,0,0,0,.484-.484v-3.871A.484.484,0,0,0,68.355,392Zm-.484.968v.484h-2.9v-.484Zm-2.9,2.9v-1.452h2.9v1.452Z" transform="translate(-60.613 -368.774)"/>
  <path id="Path_89" data-name="Path 89" d="M372.355,392h-3.871a.484.484,0,0,0-.484.484v3.871a.484.484,0,0,0,.484.484h3.871a.484.484,0,0,0,.484-.484v-3.871A.484.484,0,0,0,372.355,392Zm-.484.968v.484h-2.9v-.484Zm-2.9,2.9v-1.452h2.9v1.452Z" transform="translate(-346.226 -368.774)"/>
</svg>
