<svg id="Layer_3" enable-background="new 0 0 64 64" height="512" viewBox="0 0 64 64" width="512" xmlns="http://www.w3.org/2000/svg"><path d="m62 57h-1v-55c0-.552-.447-1-1-1h-36c-.553 0-1 .448-1 1v17h-19c-.553 0-1 .448-1 1v37h-1c-.553 0-1 .448-1 1v4c0 .552.447 1 1 1h60c.553 0 1-.448 1-1v-4c0-.552-.447-1-1-1zm-15 0v-5c0-2.757-2.243-5-5-5s-5 2.243-5 5v5h-2v-12h24v12zm-2 0h-6v-5c0-1.654 1.346-3 3-3s3 1.346 3 3zm-10-36h4v6h-4zm0 12h4v6h-4zm-2 0h-8v-8h8zm-10 0h-8v-8h8zm-10 0h-8v-8h8zm0 2v8h-8v-8zm2 0h8v8h-8zm10 0h8v8h-8zm34-32v12h-34v-12zm-34 14h34v26h-24v-2h5c.553 0 1-.448 1-1v-8c0-.552-.447-1-1-1h-5v-2h5c.553 0 1-.448 1-1v-8c0-.552-.447-1-1-1h-6-9zm8 4v2h-28v-2zm-28 24h28v12h-7v-9c0-.552-.447-1-1-1h-12c-.553 0-1 .448-1 1v9h-7zm9 12v-8h4v8zm6-8h4v8h-4zm41 12h-58v-2h10 12 36z"/><path d="m31 10.236.105.211c.34.678 1.449.678 1.789 0l.106-.211v2.764h2v-7c0-.464-.319-.867-.771-.973-.448-.108-.917.111-1.124.526l-1.105 2.211-1.105-2.211c-.207-.415-.676-.633-1.124-.526-.452.106-.771.509-.771.973v7h2z"/><path d="m39 11h2v2h2v-5c0-1.654-1.346-3-3-3s-3 1.346-3 3v5h2zm1-4c.552 0 1 .449 1 1v1h-2v-1c0-.551.448-1 1-1z"/><path d="m46 13h3v-2h-2v-6h-2v7c0 .552.447 1 1 1z"/><path d="m52 13h3v-2h-2v-6h-2v7c0 .552.447 1 1 1z"/><path d="m44 29h12c.553 0 1-.448 1-1v-8c0-.552-.447-1-1-1h-12c-.553 0-1 .448-1 1v8c0 .552.447 1 1 1zm11-2h-4v-6h4zm-10-6h4v6h-4z"/><path d="m44 41h12c.553 0 1-.448 1-1v-8c0-.552-.447-1-1-1h-12c-.553 0-1 .448-1 1v8c0 .552.447 1 1 1zm11-2h-4v-6h4zm-10-6h4v6h-4z"/></svg>