<svg xmlns="http://www.w3.org/2000/svg" width="18" height="17.369" viewBox="0 0 18 17.369">
  <g id="_002-mosque" data-name="002-mosque" transform="translate(0 -8.961)">
    <path id="Path_728" data-name="Path 728" d="M.78,25.8H.262a.264.264,0,0,0,0,.528H17.736a.264.264,0,0,0,0-.528h-.445c0-.039.009-10.655,0-10.691a1.778,1.778,0,0,0-1.151-1.839v-.925a.264.264,0,1,0-.528,0v.925a1.779,1.779,0,0,0-1.141,1.838.262.262,0,0,0,0,.036v3.09H13.318V17a.274.274,0,0,0,0-.028A5.584,5.584,0,0,0,9.3,11.9v-.853a1.174,1.174,0,0,0,.84-.344.264.264,0,0,0-.373-.373.652.652,0,0,1-1.111-.459.644.644,0,0,1,.19-.459.264.264,0,0,0-.373-.373,1.176,1.176,0,0,0,.3,1.881v.969a6.034,6.034,0,0,0-2.106,1.174.264.264,0,0,0,.344.4,5.519,5.519,0,0,1,2.01-1.1,5.147,5.147,0,0,1,3.764,4.377h-7.5A4.722,4.722,0,0,1,6.3,14.2a.264.264,0,1,0-.415-.326,5.2,5.2,0,0,0-1.141,3.1.265.265,0,0,0,0,.031v1.235H3.609v-3.09a.262.262,0,0,0,0-.036,1.778,1.778,0,0,0-1.151-1.839v-.925a.264.264,0,0,0-.528,0v.925A1.779,1.779,0,0,0,.787,15.113C.779,15.13.783,25.778.78,25.8ZM15,18.5V15.412h1.77v5.574H15Zm.88-4.732c.439,0,.787.463.87,1.114h-1.73C15.1,14.226,15.436,13.771,15.878,13.771Zm-12.269,5H4.741V25.8H3.605Zm-2.3-3.354h1.77v5.574H1.312Zm.88-1.641c.439,0,.787.463.87,1.114H1.331c.079-.659.419-1.114.861-1.114ZM1.308,25.8V21.514h1.77V25.8Zm6.106,0V22.165a1.616,1.616,0,0,1,3.231,0V25.8Zm7.053,0H13.318v-3.2a.264.264,0,1,0-.528,0v3.2H11.173V22.165a2.143,2.143,0,0,0-4.287,0V25.8H5.269V17.268H12.79v4.264a.264.264,0,0,0,.528,0V18.766H14.47Zm.528,0V21.514h1.77V25.8Z" transform="translate(0)"/>
  </g>
</svg>
