<svg id="_003-park" data-name="003-park" xmlns="http://www.w3.org/2000/svg" width="18" height="18" viewBox="0 0 18 18">
  <g id="Group_537" data-name="Group 537">
    <g id="Group_536" data-name="Group 536">
      <path id="Path_729" data-name="Path 729" d="M17.191,8.444a3.636,3.636,0,0,0-2.473-5.578,2.376,2.376,0,1,0-4.558.322,3.48,3.48,0,0,0-3.27,3.47,3.44,3.44,0,0,0,.876,2.306,3.021,3.021,0,0,0,4.608,3.766V17.3H8.648V16a1.2,1.2,0,0,0-.492-2.284H1.2A1.2,1.2,0,0,0,.7,16v1.653A.352.352,0,0,0,1.055,18H2.461a.352.352,0,0,0,.352-.352V16.1H6.539v1.2H6.205a.352.352,0,0,0,0,.7h8.1a.352.352,0,0,0,0-.7h-1.23V12.741a2.978,2.978,0,0,0,4.113-4.3ZM2.109,17.3h-.7V16.1h.7Zm5.836,0h-.7V16.1h.7Zm.211-1.9H1.2a.492.492,0,0,1,0-.984H8.156a.492.492,0,0,1,0,.984Zm6.865-2.639a2.279,2.279,0,0,1-1.943-1.091V10.03l.009-.008,2-2a.352.352,0,0,0-.5-.5l-1.509,1.51V5.756a.352.352,0,0,0-.7,0v.912l-.28-.28a.352.352,0,0,0-.5.5l.777.777V9.918l-.962-.962h0l-.85-.85a.352.352,0,1,0-.5.5l.522.522-.954.522a.352.352,0,1,0,.337.617l1.135-.621,1.269,1.269v.748A2.319,2.319,0,1,1,8.5,9.118a.352.352,0,0,0-.046-.455,2.772,2.772,0,0,1,1.913-4.778,2.777,2.777,0,0,1,.342.022.352.352,0,0,0,.328-.555,1.672,1.672,0,1,1,2.894-.317.352.352,0,0,0,.312.49,2.931,2.931,0,0,1,2.209,4.743.352.352,0,0,0,.048.485,2.275,2.275,0,0,1-1.478,4.006Z"/>
    </g>
  </g>
  <g id="Group_539" data-name="Group 539" transform="translate(15.398 17.297)">
    <g id="Group_538" data-name="Group 538">
      <path id="Path_730" data-name="Path 730" d="M438.59,492.1a.351.351,0,1,0,.1.249A.354.354,0,0,0,438.59,492.1Z" transform="translate(-437.99 -492)"/>
    </g>
  </g>
  <g id="Group_541" data-name="Group 541" transform="translate(0.585 5.986)">
    <g id="Group_540" data-name="Group 540">
      <path id="Path_731" data-name="Path 731" d="M19.722,170.325a1.414,1.414,0,0,0-1.422.371,1.416,1.416,0,0,0-1.423-.371.352.352,0,1,0,.2.673.709.709,0,0,1,.883.475.352.352,0,0,0,.673,0,.71.71,0,0,1,.883-.475.352.352,0,1,0,.2-.673Z" transform="translate(-16.626 -170.264)"/>
    </g>
  </g>
  <g id="Group_543" data-name="Group 543" transform="translate(2.827 3.393)">
    <g id="Group_542" data-name="Group 542">
      <path id="Path_732" data-name="Path 732" d="M83.515,96.564a1.416,1.416,0,0,0-1.422.37,1.416,1.416,0,0,0-1.422-.37.352.352,0,0,0,.2.673.709.709,0,0,1,.883.475.352.352,0,0,0,.673,0,.709.709,0,0,1,.883-.475.352.352,0,0,0,.2-.673Z" transform="translate(-80.42 -96.504)"/>
    </g>
  </g>
  <g id="Group_545" data-name="Group 545" transform="translate(10.013 4.6)">
    <g id="Group_544" data-name="Group 544">
      <path id="Path_733" data-name="Path 733" d="M285.175,130.836h0a.352.352,0,1,0,.354.352A.35.35,0,0,0,285.172,130.836Z" transform="translate(-284.822 -130.836)"/>
    </g>
  </g>
  <g id="Group_547" data-name="Group 547" transform="translate(8.309 5.129)">
    <g id="Group_546" data-name="Group 546">
      <path id="Path_734" data-name="Path 734" d="M237.4,145.984a.352.352,0,0,0-.5.012,2.049,2.049,0,0,0-.568,1.42.352.352,0,0,0,.7,0,1.348,1.348,0,0,1,.374-.934A.352.352,0,0,0,237.4,145.984Z" transform="translate(-236.333 -145.887)"/>
    </g>
  </g>
</svg>
