<svg xmlns="http://www.w3.org/2000/svg" width="35.806" height="35.832" viewBox="0 0 35.806 35.832">
  <g id="_002-plane" data-name="002-plane" transform="translate(-0.186 0)">
    <g id="Group_102" data-name="Group 102" transform="translate(14.508 0)">
      <g id="Group_101" data-name="Group 101" transform="translate(0 0)">
        <path id="Path_67" data-name="Path 67" d="M210.757,1.619A2.725,2.725,0,0,0,209.04.081a2.532,2.532,0,0,0-2.9,1.32,12.507,12.507,0,0,0-1.3,5.613V25.687a.6.6,0,0,0,.011.113l1.607,8.324a1.989,1.989,0,0,0,1.962,1.708h0a1.98,1.98,0,0,0,1.957-1.677l1.611-8.355a.553.553,0,0,0,.011-.113V7.013A12.5,12.5,0,0,0,210.757,1.619Zm.047,24.01-1.605,8.33a.79.79,0,0,1-1.568-.03l-1.6-8.3V7.011a11.316,11.316,0,0,1,1.179-5.079,1.331,1.331,0,0,1,1.5-.7,1.538,1.538,0,0,1,.96.884,11.349,11.349,0,0,1,1.133,4.9Z" transform="translate(-204.836 0)" fill="#ffffff"/>
      </g>
    </g>
    <g id="Group_104" data-name="Group 104" transform="translate(0.186 13.154)">
      <g id="Group_103" data-name="Group 103" transform="translate(0)">
        <path id="Path_68" data-name="Path 68" d="M15.411,188.044a.6.6,0,0,0-.59-.012L.5,195.791a.6.6,0,0,0-.313.525V199.9a.6.6,0,0,0,.806.559l14.323-5.371a.6.6,0,0,0,.387-.559v-5.968A.6.6,0,0,0,15.411,188.044Zm-.9,6.067L1.38,199.035v-2.364l13.129-7.111Z" transform="translate(-0.186 -187.96)" fill="#ffffff"/>
      </g>
    </g>
    <g id="Group_106" data-name="Group 106" transform="translate(20.476 13.154)">
      <g id="Group_105" data-name="Group 105">
        <path id="Path_69" data-name="Path 69" d="M305.314,195.794l-14.323-7.758a.6.6,0,0,0-.881.525v5.968a.6.6,0,0,0,.387.559l14.323,5.371a.612.612,0,0,0,.21.038.589.589,0,0,0,.339-.106.6.6,0,0,0,.257-.491v-3.581A.6.6,0,0,0,305.314,195.794Zm-.881,3.244L291.3,194.115v-4.552l13.129,7.112Z" transform="translate(-290.111 -187.964)" fill="#ffffff"/>
      </g>
    </g>
    <g id="Group_108" data-name="Group 108" transform="translate(7.944 13.751)">
      <g id="Group_107" data-name="Group 107">
        <path id="Path_70" data-name="Path 70" d="M112.829,196.5a1.793,1.793,0,0,0-1.79,1.79v1.79h1.194v-1.79a.6.6,0,1,1,1.194,0v.6h1.194v-.6A1.792,1.792,0,0,0,112.829,196.5Z" transform="translate(-111.039 -196.497)" fill="#ffffff"/>
      </g>
    </g>
    <g id="Group_110" data-name="Group 110" transform="translate(2.573 16.735)">
      <g id="Group_109" data-name="Group 109">
        <path id="Path_71" data-name="Path 71" d="M36.084,239.124a1.793,1.793,0,0,0-1.79,1.79v1.79h1.194v-1.79a.6.6,0,0,1,1.194,0h1.194A1.792,1.792,0,0,0,36.084,239.124Z" transform="translate(-34.294 -239.124)" fill="#ffffff"/>
      </g>
    </g>
    <g id="Group_112" data-name="Group 112" transform="translate(24.654 13.751)">
      <g id="Group_111" data-name="Group 111">
        <path id="Path_72" data-name="Path 72" d="M351.591,196.5a1.793,1.793,0,0,0-1.79,1.79v.6h1.194v-.6a.6.6,0,1,1,1.194,0v1.79h1.194v-1.79A1.792,1.792,0,0,0,351.591,196.5Z" transform="translate(-349.801 -196.497)" fill="#ffffff"/>
      </g>
    </g>
    <g id="Group_114" data-name="Group 114" transform="translate(30.025 16.735)">
      <g id="Group_113" data-name="Group 113">
        <path id="Path_73" data-name="Path 73" d="M428.336,239.124a1.793,1.793,0,0,0-1.79,1.79h1.194a.6.6,0,0,1,1.194,0v1.79h1.194v-1.79A1.792,1.792,0,0,0,428.336,239.124Z" transform="translate(-426.546 -239.124)" fill="#ffffff"/>
      </g>
    </g>
    <g id="Group_116" data-name="Group 116" transform="translate(9.138 28.756)">
      <g id="Group_115" data-name="Group 115">
        <path id="Path_74" data-name="Path 74" d="M135.753,415.585l-6.466,1.078v-1.345l5.678-3.407-.614-1.023-5.968,3.581a.6.6,0,0,0-.289.511v2.387a.6.6,0,0,0,.6.6.671.671,0,0,0,.1-.008l7.161-1.193Z" transform="translate(-128.094 -410.888)" fill="#ffffff"/>
      </g>
    </g>
    <g id="Group_118" data-name="Group 118" transform="translate(19.185 28.756)">
      <g id="Group_117" data-name="Group 117">
        <path id="Path_75" data-name="Path 75" d="M279.225,414.469l-5.968-3.581-.614,1.023,5.678,3.407v1.344l-6.467-1.078-.2,1.177,7.161,1.194a.6.6,0,0,0,.1.008.6.6,0,0,0,.6-.6V414.98A.6.6,0,0,0,279.225,414.469Z" transform="translate(-271.659 -410.888)" fill="#ffffff"/>
      </g>
    </g>
    <g id="Group_120" data-name="Group 120" transform="translate(16.33 3.606)">
      <g id="Group_119" data-name="Group 119">
        <path id="Path_76" data-name="Path 76" d="M233.975,52.5a1.458,1.458,0,0,0-1.359-.975,1.408,1.408,0,0,0-1.347,1l-.406,1.194,1.13.384.414-1.219a.229.229,0,0,1,.216-.167.232.232,0,0,1,.22.158l.406,1.223,1.133-.375Z" transform="translate(-230.863 -51.525)" fill="#ffffff"/>
      </g>
    </g>
  </g>
</svg>