<?xml version="1.0" encoding="utf-8"?>
<!-- Generator: Adobe Illustrator 16.0.0, SVG Export Plug-In . SVG Version: 6.00 Build 0)  -->
<!DOCTYPE svg PUBLIC "-//W3C//DTD SVG 1.1//EN" "http://www.w3.org/Graphics/SVG/1.1/DTD/svg11.dtd">
<svg version="1.1" id="Layer_1" xmlns="http://www.w3.org/2000/svg" xmlns:xlink="http://www.w3.org/1999/xlink" x="0px" y="0px"
	 width="18px" height="18px" viewBox="0 0 18 18" enable-background="new 0 0 18 18" xml:space="preserve">
<path fill="none" d="M0,0h18v18H0V0z"/>
<g>
	<path fill="#8cc63e" d="M16.365,6.844c-0.18-0.548-0.666-0.902-1.242-0.902H11.41l-1.17-3.551C10.061,1.846,9.574,1.494,9,1.494
		L7.258,7.397L9,13.3l3.014,2.201c0.467,0.34,1.068,0.341,1.537,0.003c0.467-0.339,0.652-0.912,0.475-1.462l-1.152-3.546h0.016
		l3.004-2.193C16.357,7.964,16.543,7.391,16.365,6.844L16.365,6.844z"/>
	<path fill="#8cc63e" d="M8.994,1.494C8.418,1.497,7.932,1.853,7.756,2.401L6.621,5.942H2.877c-0.576,0-1.064,0.355-1.242,0.904
		c-0.178,0.549,0.01,1.122,0.477,1.461l3.018,2.18l-1.154,3.555c-0.18,0.55,0.008,1.123,0.475,1.462
		c0.467,0.338,1.07,0.337,1.537-0.003L9,13.3V1.494C8.998,1.494,8.996,1.494,8.994,1.494L8.994,1.494z"/>
</g>
</svg>
