<?xml version="1.0" encoding="UTF-8"?>
<svg xmlns="http://www.w3.org/2000/svg" xmlns:xlink="http://www.w3.org/1999/xlink" width="23px" height="20px" viewBox="0 0 23 20" version="1.1">
<g id="surface1">
<path style=" stroke:none;fill-rule:nonzero;fill:rgb(54.901961%,77.647059%,24.313725%);fill-opacity:1;" d="M 10.332031 0.652344 C 8.097656 0.949219 6.136719 1.988281 4.839844 3.558594 C 4.484375 3.988281 3.921875 4.949219 3.734375 5.449219 C 3.570312 5.882812 3.421875 6.464844 3.386719 6.828125 L 3.355469 7.097656 L 2.992188 7.125 C 2.496094 7.15625 2.160156 7.238281 1.707031 7.429688 C 1.40625 7.554688 1.25 7.660156 0.9375 7.925781 C 0.609375 8.207031 0.515625 8.320312 0.347656 8.632812 C 0.0234375 9.210938 -0.0078125 9.417969 0.0078125 10.828125 C 0.0273438 11.988281 0.0273438 12.019531 0.148438 12.324219 C 0.417969 13.03125 0.976562 13.601562 1.695312 13.914062 C 2.28125 14.171875 2.65625 14.238281 3.503906 14.238281 C 4.292969 14.238281 4.484375 14.191406 4.648438 13.941406 C 4.734375 13.8125 4.738281 13.71875 4.765625 10.351562 C 4.792969 6.5 4.773438 6.699219 5.121094 5.800781 C 5.863281 3.863281 7.765625 2.398438 10.128906 1.949219 C 10.65625 1.847656 11.777344 1.808594 12.332031 1.871094 C 13.886719 2.050781 15.21875 2.628906 16.316406 3.601562 C 17.21875 4.398438 17.808594 5.359375 18.117188 6.53125 C 18.207031 6.882812 18.210938 7.015625 18.234375 10.351562 C 18.265625 14.199219 18.242188 13.960938 18.566406 14.136719 C 18.707031 14.210938 18.785156 14.21875 19.503906 14.21875 C 20.136719 14.21875 20.359375 14.203125 20.636719 14.140625 C 21.675781 13.910156 22.5 13.234375 22.851562 12.324219 C 22.972656 12.019531 22.972656 11.988281 22.992188 10.828125 C 23.007812 9.417969 22.976562 9.207031 22.652344 8.632812 C 22.480469 8.324219 22.378906 8.207031 22.0625 7.925781 C 21.480469 7.425781 20.855469 7.179688 20.007812 7.125 L 19.644531 7.097656 L 19.613281 6.828125 C 19.535156 6.097656 19.261719 5.328125 18.800781 4.511719 C 18.40625 3.824219 18.019531 3.335938 17.433594 2.804688 C 16.128906 1.609375 14.496094 0.878906 12.617188 0.644531 C 12.03125 0.574219 10.898438 0.574219 10.332031 0.652344 Z M 10.332031 0.652344 "/>
<path style=" stroke:none;fill-rule:nonzero;fill:rgb(54.901961%,77.647059%,24.313725%);fill-opacity:1;" d="M 3.066406 15.128906 C 3.109375 15.386719 3.34375 15.945312 3.542969 16.273438 C 4.195312 17.324219 5.308594 18.085938 6.640625 18.386719 C 6.96875 18.460938 7.234375 18.488281 7.726562 18.503906 L 8.382812 18.527344 L 8.382812 18.167969 L 8.386719 17.8125 L 7.933594 17.8125 C 7.367188 17.8125 7 17.761719 6.527344 17.621094 C 5.300781 17.253906 4.308594 16.351562 3.953125 15.277344 L 3.84375 14.960938 L 3.042969 14.960938 Z M 3.066406 15.128906 "/>
<path style=" stroke:none;fill-rule:nonzero;fill:rgb(54.901961%,77.647059%,24.313725%);fill-opacity:1;" d="M 10.242188 16.964844 C 9.605469 17.121094 9.183594 17.617188 9.191406 18.207031 C 9.199219 18.667969 9.515625 19.09375 10.007812 19.304688 C 10.214844 19.390625 10.25 19.394531 11.5 19.394531 C 12.75 19.394531 12.785156 19.390625 12.992188 19.304688 C 13.855469 18.933594 14.082031 17.960938 13.449219 17.347656 C 13.332031 17.234375 13.140625 17.105469 12.992188 17.042969 L 12.734375 16.933594 L 11.589844 16.925781 C 10.777344 16.917969 10.386719 16.929688 10.242188 16.964844 Z M 10.242188 16.964844 "/>
</g>
</svg>
