<svg id="surface1" xmlns="http://www.w3.org/2000/svg" width="30" height="30.611" viewBox="0 0 30 30.611">
  <path id="Path_130" data-name="Path 130" d="M.652,8.457a1.239,1.239,0,0,0-.019.183V9.9a1.248,1.248,0,0,0,.81,1.165v1.853a1.165,1.165,0,0,0,1.11,1.16v10.7a1.165,1.165,0,0,0-1.11,1.16v1.847a1.262,1.262,0,0,0-.81,1.176V30.2a.416.416,0,0,0,.416.416H29.11a.416.416,0,0,0,.416-.416V28.965a1.262,1.262,0,0,0-.81-1.176V25.93a1.165,1.165,0,0,0-1.11-1.16V14.077a1.165,1.165,0,0,0,1.11-1.16V11.064a1.249,1.249,0,0,0,.81-1.165V8.648a1.21,1.21,0,0,0-.019-.183.414.414,0,0,0,.336-.757L15.271.049a.416.416,0,0,0-.388,0L.311,7.7a.416.416,0,0,0,.341.757Zm1.623,3.329v-.641h4.8v.635ZM12.96,14.08v10.7a1.165,1.165,0,0,0-1.11,1.16v1.77H7.9v-1.77a1.165,1.165,0,0,0-1.11-1.16v-10.7a1.165,1.165,0,0,0,1.11-1.16V11.145h3.945v1.77a1.165,1.165,0,0,0,1.11,1.162Zm-.277-2.294v-.641h4.8v.635ZM23.368,14.08v10.7a1.165,1.165,0,0,0-1.11,1.16v1.77h-3.95v-1.77a1.165,1.165,0,0,0-1.11-1.16v-10.7a1.165,1.165,0,0,0,1.11-1.16V11.145h3.945v1.77a1.165,1.165,0,0,0,1.11,1.162Zm-.277-2.294v-.641h4.8v.635Zm4.8,15.29v.635h-4.8v-.635Zm-10.408,0v.635h-4.8v-.635ZM13.371,13.253H13.01a.333.333,0,0,1-.333-.333v-.3h4.8v.3a.333.333,0,0,1-.333.333Zm3,.832V24.776H13.787V14.085Zm-3,11.523h3.773a.333.333,0,0,1,.333.333v.3h-4.8v-.3a.333.333,0,0,1,.333-.333Zm-6.3,1.467v.635h-4.8v-.635Zm-4.8-14.147v-.311h4.8v.3a.333.333,0,0,1-.333.333H2.594a.333.333,0,0,1-.325-.336Zm3.689,1.165V24.776H3.379V14.085ZM2.269,25.949a.333.333,0,0,1,.333-.333H6.735a.333.333,0,0,1,.333.333v.3h-4.8Zm26.425,3.032V29.8H1.459v-.815a.43.43,0,0,1,.43-.43H28.264a.43.43,0,0,1,.43.422Zm-.81-3.032v.3h-4.8v-.3a.333.333,0,0,1,.333-.333h4.142a.333.333,0,0,1,.325.325Zm-3.689-1.165v-10.7h2.583V24.776Zm3.689-11.856a.333.333,0,0,1-.333.333H23.421a.333.333,0,0,1-.333-.333v-.311h4.8ZM15.077.881,27.468,7.394H2.685ZM1.459,8.648a.416.416,0,0,1,.416-.416h26.4a.416.416,0,0,1,.416.416v1.26a.416.416,0,0,1-.416.416H1.875a.416.416,0,0,1-.416-.416Zm0,0" transform="translate(-0.089 -0.001)" fill="#1d2128"/>
</svg>
