<svg xmlns="http://www.w3.org/2000/svg" width="30" height="29.999" viewBox="0 0 30 29.999">
  <g id="Page-1" transform="translate(0.001)">
    <g id="_047---Mountain-Route" data-name="047---Mountain-Route" transform="translate(-0.001)">
      <path id="Shape" d="M17.567,5a1,1,0,0,0-.862-.5h-.2V3.361A1,1,0,0,0,17,2.5v-1a1,1,0,0,0-.5-.861V.5a.5.5,0,1,0-1,0h-2.25a.75.75,0,0,0-.53,1.28l.22.219-.22.219a.75.75,0,0,0,.53,1.28H15.5v1h-.2a1,1,0,0,0-.865.5L13.84,6.042a1.5,1.5,0,0,0-1.414,2.5L1.131,28.5A1,1,0,0,0,2,30H30a1,1,0,0,0,.865-1.5ZM13.852,1.5H16v1h-2.15a.75.75,0,0,0,0-1Zm2.847,4,3.836,6.779-.709.913-.94-1.175a.89.89,0,0,0-.744-.342.922.922,0,0,0-.725.384l-.228.32L14.8,8.241a1.46,1.46,0,0,0-.114-1.655L15.294,5.5Zm-.624,8.443-1.393-2.231a.921.921,0,0,0-1.5-.085l-.932,1.167-.65-.759,1.725-3.05A1.515,1.515,0,0,0,13.5,9a1.486,1.486,0,0,0,.522-.1l2.53,4.369ZM13.5,7a.5.5,0,1,1-.5.5A.5.5,0,0,1,13.5,7Zm-2.422,5.957.475.556a.9.9,0,0,0,.71.323.917.917,0,0,0,.706-.345l.925-1.156,1.394,2.233a.918.918,0,0,0,.75.431h.031a.92.92,0,0,0,.75-.386l.281-.394.759,1.312a1.487,1.487,0,0,0-.353.874l-4.291,1.225a1.5,1.5,0,1,0-.374,2.107l5.225,3.833c-.011.039-.027.076-.036.117l-4.7.631A1.5,1.5,0,0,0,10.5,25a1.475,1.475,0,0,0,.15.642L7.295,29H2ZM19,16a.5.5,0,1,1-.5.5A.5.5,0,0,1,19,16Zm-6.5,2.5A.5.5,0,1,1,12,18,.5.5,0,0,1,12.5,18.5Zm-1,6.5a.5.5,0,1,1,.5.5A.5.5,0,0,1,11.5,25Zm-2.79,4,2.65-2.65A1.475,1.475,0,0,0,12,26.5a1.5,1.5,0,0,0,1.466-1.189l4.7-.63a1.5,1.5,0,1,0,.485-1.918L13.43,18.928a1.509,1.509,0,0,0,.06-.334l4.291-1.225a1.5,1.5,0,1,0,.944-2.341l-.985-1.7.431-.606.935,1.169a.908.908,0,0,0,.717.35.922.922,0,0,0,.729-.355l.515-.664L30,29ZM19,24a.5.5,0,1,1,.5.5A.5.5,0,0,1,19,24Z" transform="translate(-0.999)"/>
      <path id="Shape-2" data-name="Shape" d="M49.124,48.221a.5.5,0,1,0,.864-.5l-3.8-6.516a.5.5,0,1,0-.863.5Z" transform="translate(-23.124 -20.471)"/>
      <circle id="Oval" cx="0.5" cy="0.5" r="0.5" transform="translate(21.129 18.81)"/>
    </g>
  </g>
</svg>
