<svg xmlns="http://www.w3.org/2000/svg" width="28.322" height="35.512" viewBox="0 0 28.322 35.512">
  <g id="_001-train" data-name="001-train" transform="translate(-51.839)">
    <path id="Path_536" data-name="Path 536" d="M204.105,41.156a1,1,0,0,0,1-1V38.454a1,1,0,0,0-1-1H197.9a1,1,0,0,0-1,1v1.705a1,1,0,0,0,1,1Zm-6.164-2.66h6.121v1.62h-6.121Z" transform="translate(-135.002 -34.858)" fill="#ffffff"/>
    <path id="Path_537" data-name="Path 537" d="M98.551,107.73v7a1.682,1.682,0,0,0,1.68,1.68h18.484a1.682,1.682,0,0,0,1.68-1.68v-7a1.682,1.682,0,0,0-1.68-1.68h-.955a.52.52,0,0,0,0,1.04h.955a.64.64,0,0,1,.639.639v7a.64.64,0,0,1-.639.639H100.231a.64.64,0,0,1-.639-.639v-7a.64.64,0,0,1,.639-.639h15.1a.52.52,0,0,0,0-1.04h-15.1A1.682,1.682,0,0,0,98.551,107.73Z" transform="translate(-43.473 -98.696)" fill="#ffffff"/>
    <path id="Path_538" data-name="Path 538" d="M79.952,33.17l-2.563-4.439a3.33,3.33,0,0,0,2.26-3.149V22.869h0V5.636A5.634,5.634,0,0,0,74.014,0H57.986A5.642,5.642,0,0,0,52.35,5.636V17.7a.52.52,0,0,0,1.04,0V5.636a4.6,4.6,0,0,1,4.6-4.6H74.014a4.6,4.6,0,0,1,4.6,4.6V22.349H76.678a2.747,2.747,0,0,0-2.692-2.222H57.917a2.747,2.747,0,0,0-2.692,2.222H53.39V20.125a.52.52,0,1,0-1.04,0v2.743h0A22.884,22.884,0,0,0,52.4,26.13a3.336,3.336,0,0,0,2.214,2.6L52.048,33.17a1.56,1.56,0,0,0,2.7,1.56l.739-1.28H76.51l.739,1.28a1.56,1.56,0,0,0,2.7-1.56Zm-4.264-10.3a1.7,1.7,0,1,1-1.7-1.7A1.7,1.7,0,0,1,75.688,22.869Zm-3.851-1.7a2.738,2.738,0,0,0,0,3.4H60.066a2.739,2.739,0,0,0,0-3.4Zm-13.919,0a1.7,1.7,0,1,1-1.7,1.7A1.7,1.7,0,0,1,57.918,21.166Zm-2.693,2.222a2.749,2.749,0,0,0,2.69,2.222h16.07a2.75,2.75,0,0,0,2.693-2.222h1.931v2.193a2.288,2.288,0,0,1-2.285,2.285H55.675a2.287,2.287,0,0,1-2.27-2.028c-.02-.179-.015-.056-.015-2.451h1.834ZM53.849,34.211a.52.52,0,1,1-.9-.52l2.762-4.783h1.2Zm2.241-1.8.6-1.04H75.309l.6,1.04Zm1.2-2.08.821-1.423H73.887l.821,1.423ZM78.861,34.4a.52.52,0,0,1-.71-.19l-3.062-5.3h1.2l2.762,4.783A.52.52,0,0,1,78.861,34.4Z" transform="translate(0)" fill="#ffffff"/>
  </g>
</svg>