<svg xmlns="http://www.w3.org/2000/svg" width="18" height="18.152" viewBox="0 0 18 18.152">
  <g id="_006-suitcase" data-name="006-suitcase" transform="translate(-2.143)">
    <path id="Path_740" data-name="Path 740" d="M19.37,9.211H15.6V8.546a.452.452,0,0,0-.451-.451h-3.05a.452.452,0,0,0-.451.451v.665h-.494V6.736a.881.881,0,0,0-.88-.88H9.193V1.062A.528.528,0,0,0,8.665.535H8.254V.415A.415.415,0,0,0,7.839,0H5.775A.415.415,0,0,0,5.36.415v.12H4.949a.528.528,0,0,0-.528.528V5.855h-1.4a.881.881,0,0,0-.88.88V9.475a.266.266,0,1,0,.533,0V6.736a.348.348,0,0,1,.347-.347h7.245a.348.348,0,0,1,.347.347v9.307a.348.348,0,0,1-.347.347H3.023a.348.348,0,0,1-.347-.347v-5.5a.266.266,0,1,0-.533,0v5.5a.881.881,0,0,0,.88.88h.542v.962a.266.266,0,0,0,.533,0v-.962h3v.457a.774.774,0,0,0,.773.773h11.5a.774.774,0,0,0,.773-.773v-7.4A.774.774,0,0,0,19.37,9.211ZM5.893.533H7.721v.536H5.893Zm-.939.535H5.36v.12a.415.415,0,0,0,.415.415H7.839a.415.415,0,0,0,.415-.415v-.12H8.66V5.855H4.954ZM17.447,9.744v7.837h-.533V9.744Zm-6.3,6.3v-6.3h2.47a.266.266,0,0,0,0-.533H12.176V8.628h2.887v.584h-.377a.266.266,0,1,0,0,.533h1.7v7.875H9.727v-.7h.542a.881.881,0,0,0,.88-.88ZM7.629,17.38v-.457H9.194v.7H7.868A.24.24,0,0,1,7.629,17.38Zm11.981,0a.24.24,0,0,1-.24.24H17.98V9.744h1.39a.24.24,0,0,1,.24.24Z"/>
    <path id="Path_741" data-name="Path 741" d="M273.667,386.551h1.969a.6.6,0,0,0,.6-.6v-.775a.6.6,0,0,0-.6-.6h-1.969a.6.6,0,0,0-.6.6v.775A.6.6,0,0,0,273.667,386.551Zm-.064-1.373a.065.065,0,0,1,.064-.064h1.969a.065.065,0,0,1,.064.064v.775a.065.065,0,0,1-.064.064h-1.969a.065.065,0,0,1-.064-.064Z" transform="translate(-261.3 -370.916)"/>
    <path id="Path_742" data-name="Path 742" d="M51.3,218.5v-7.252a.266.266,0,1,0-.533,0V218.5a.266.266,0,1,0,.533,0Z" transform="translate(-46.892 -203.483)"/>
    <path id="Path_743" data-name="Path 743" d="M98.368,218.5v-7.252a.266.266,0,0,0-.533,0V218.5a.266.266,0,1,0,.533,0Z" transform="translate(-92.292 -203.483)"/>
    <path id="Path_744" data-name="Path 744" d="M145.439,218.5v-7.252a.266.266,0,0,0-.533,0V218.5a.266.266,0,1,0,.533,0Z" transform="translate(-137.69 -203.483)"/>
    <path id="Path_745" data-name="Path 745" d="M192.51,218.5v-7.252a.266.266,0,0,0-.533,0V218.5a.266.266,0,1,0,.533,0Z" transform="translate(-183.089 -203.483)"/>
  </g>
</svg>
