<svg id="Download_on_the_App_Store_Badge_US-UK_RGB_blk_092917" xmlns="http://www.w3.org/2000/svg" width="147.024" height="49.146" viewBox="0 0 147.024 49.146">
  <g id="Group_822" data-name="Group 822" transform="translate(0 0)">
    <g id="Group_820" data-name="Group 820">
      <path id="Path_1073" data-name="Path 1073" d="M135.316,0H11.715c-.451,0-.9,0-1.345,0-.376,0-.749.01-1.129.016A16.236,16.236,0,0,0,6.779.235a8.189,8.189,0,0,0-2.335.77A7.91,7.91,0,0,0,2.454,2.454,7.689,7.689,0,0,0,1.007,4.445,8.11,8.11,0,0,0,.239,6.784a15.964,15.964,0,0,0-.22,2.46C.007,9.62.006,10,0,10.375v28.4c.006.381.007.751.019,1.133a15.963,15.963,0,0,0,.22,2.46,8.094,8.094,0,0,0,.768,2.34A7.627,7.627,0,0,0,2.454,46.69a7.709,7.709,0,0,0,1.989,1.448,8.233,8.233,0,0,0,2.335.775,16.53,16.53,0,0,0,2.462.217c.38.008.753.013,1.129.013.449,0,.895,0,1.345,0h123.6c.442,0,.89,0,1.332,0,.374,0,.758,0,1.133-.013a16.314,16.314,0,0,0,2.457-.217,8.36,8.36,0,0,0,2.345-.775,7.713,7.713,0,0,0,1.987-1.448,7.858,7.858,0,0,0,1.452-1.983,8.114,8.114,0,0,0,.761-2.34,16.6,16.6,0,0,0,.228-2.46c0-.382,0-.751,0-1.133.01-.446.01-.89.01-1.344V11.717c0-.45,0-.9-.01-1.341,0-.377,0-.755,0-1.131a16.593,16.593,0,0,0-.228-2.46,8.131,8.131,0,0,0-.761-2.338,7.945,7.945,0,0,0-3.439-3.44,8.315,8.315,0,0,0-2.345-.77,16.026,16.026,0,0,0-2.457-.217C137.406.012,137.023,0,136.648,0c-.442,0-.89,0-1.332,0Z" transform="translate(0 0)" fill="#a6a6a6"/>
      <path id="Path_1074" data-name="Path 1074" d="M10.176,47.871c-.374,0-.74,0-1.111-.013a15.588,15.588,0,0,1-2.3-.2,7.229,7.229,0,0,1-2.036-.673,6.642,6.642,0,0,1-1.716-1.249,6.537,6.537,0,0,1-1.254-1.716A7.03,7.03,0,0,1,1.1,41.983a15.252,15.252,0,0,1-.2-2.3C.883,39.42.873,38.557.873,38.557V10.175s.011-.849.018-1.1a15.2,15.2,0,0,1,.2-2.3,7.071,7.071,0,0,1,.668-2.042A6.6,6.6,0,0,1,3.009,3.016,6.838,6.838,0,0,1,4.732,1.76a7.155,7.155,0,0,1,2.031-.668,15.463,15.463,0,0,1,2.3-.2L10.177.875H136.442l1.122.016a15.217,15.217,0,0,1,2.283.2,7.3,7.3,0,0,1,2.053.673,6.873,6.873,0,0,1,2.967,2.973,7.08,7.08,0,0,1,.658,2.026,15.968,15.968,0,0,1,.214,2.319c0,.348,0,.722,0,1.094.01.461.01.9.01,1.341V37.23c0,.446,0,.882-.01,1.321,0,.4,0,.766,0,1.142a15.649,15.649,0,0,1-.21,2.277,7.051,7.051,0,0,1-.663,2.052,6.733,6.733,0,0,1-1.248,1.7,6.65,6.65,0,0,1-1.719,1.256,7.2,7.2,0,0,1-2.049.676,15.409,15.409,0,0,1-2.3.2c-.36.008-.737.013-1.1.013l-1.332,0Z" transform="translate(0.2 0.2)"/>
    </g>
    <g id="_Group_" data-name="&lt;Group&gt;" transform="translate(12.251 10.714)">
      <g id="_Group_2" data-name="&lt;Group&gt;">
        <g id="_Group_3" data-name="&lt;Group&gt;">
          <path id="_Path_" data-name="&lt;Path&gt;" d="M28.152,21.747a6.08,6.08,0,0,1,2.9-5.1A6.224,6.224,0,0,0,26.144,14c-2.063-.217-4.063,1.235-5.115,1.235-1.072,0-2.69-1.213-4.434-1.177A6.531,6.531,0,0,0,11.1,17.4c-2.376,4.114-.6,10.16,1.672,13.486,1.139,1.628,2.47,3.447,4.211,3.383,1.7-.071,2.341-1.087,4.4-1.087,2.038,0,2.635,1.087,4.412,1.046,1.829-.03,2.981-1.636,4.08-3.279a13.468,13.468,0,0,0,1.866-3.8,5.875,5.875,0,0,1-3.587-5.405Z" transform="translate(-9.972 -7.519)" fill="#fff"/>
          <path id="_Path_2" data-name="&lt;Path&gt;" d="M22.78,13.009A5.987,5.987,0,0,0,24.149,8.72a6.091,6.091,0,0,0-3.941,2.039,5.7,5.7,0,0,0-1.405,4.13,5.036,5.036,0,0,0,3.977-1.88Z" transform="translate(-7.955 -8.72)" fill="#fff"/>
        </g>
      </g>
      <g id="Group_821" data-name="Group 821" transform="translate(30.047 11.243)">
        <path id="Path_1075" data-name="Path 1075" d="M44.1,29.212H38.287l-1.4,4.124H34.427l5.508-15.257H42.5L48,33.335H45.5Zm-5.213-1.9H43.5l-2.273-6.693h-.064Z" transform="translate(-34.427 -17.824)" fill="#fff"/>
        <path id="Path_1076" data-name="Path 1076" d="M57.11,27.027c0,3.457-1.85,5.678-4.642,5.678a3.771,3.771,0,0,1-3.5-1.946h-.053v5.51H46.631v-14.8h2.21v1.85h.042a3.946,3.946,0,0,1,3.542-1.967C55.249,21.348,57.11,23.58,57.11,27.027Zm-2.347,0c0-2.252-1.164-3.733-2.94-3.733-1.745,0-2.918,1.512-2.918,3.733,0,2.241,1.173,3.742,2.918,3.742,1.776,0,2.94-1.47,2.94-3.742Z" transform="translate(-31.637 -17.076)" fill="#fff"/>
        <path id="Path_1077" data-name="Path 1077" d="M67.074,27.027c0,3.457-1.85,5.678-4.642,5.678a3.771,3.771,0,0,1-3.5-1.946h-.053v5.51H56.6v-14.8h2.21v1.85h.042a3.946,3.946,0,0,1,3.542-1.967C65.214,21.348,67.074,23.58,67.074,27.027Zm-2.347,0c0-2.252-1.164-3.733-2.94-3.733-1.745,0-2.918,1.512-2.918,3.733,0,2.241,1.173,3.742,2.918,3.742,1.776,0,2.94-1.47,2.94-3.742Z" transform="translate(-29.359 -17.076)" fill="#fff"/>
        <path id="Path_1078" data-name="Path 1078" d="M72.145,29.132c.169,1.513,1.639,2.506,3.648,2.506,1.925,0,3.309-.993,3.309-2.358,0-1.184-.835-1.893-2.812-2.379l-1.977-.476c-2.8-.677-4.1-1.987-4.1-4.113,0-2.632,2.294-4.441,5.552-4.441,3.224,0,5.434,1.808,5.508,4.441h-2.3c-.138-1.523-1.4-2.442-3.236-2.442s-3.1.93-3.1,2.283c0,1.079.8,1.713,2.77,2.2l1.681.413c3.13.74,4.431,2,4.431,4.229,0,2.854-2.274,4.642-5.89,4.642-3.384,0-5.668-1.746-5.816-4.505Z" transform="translate(-26.338 -17.871)" fill="#fff"/>
        <path id="Path_1079" data-name="Path 1079" d="M84.074,19.3v2.632h2.115V23.74H84.074v6.132c0,.953.424,1.4,1.353,1.4a7.134,7.134,0,0,0,.751-.053v1.8a6.27,6.27,0,0,1-1.268.106c-2.252,0-3.13-.846-3.13-3V23.74H80.163V21.932H81.78V19.3Z" transform="translate(-23.97 -17.544)" fill="#fff"/>
        <path id="Path_1080" data-name="Path 1080" d="M86.065,27.03c0-3.5,2.061-5.7,5.276-5.7s5.277,2.2,5.277,5.7-2.041,5.7-5.277,5.7S86.065,30.54,86.065,27.03Zm8.226,0c0-2.4-1.1-3.818-2.95-3.818s-2.949,1.428-2.949,3.818c0,2.41,1.1,3.817,2.949,3.817s2.95-1.406,2.95-3.817Z" transform="translate(-22.621 -17.08)" fill="#fff"/>
        <path id="Path_1081" data-name="Path 1081" d="M96.186,21.464h2.178v1.893h.053a2.653,2.653,0,0,1,2.676-2.01,3.522,3.522,0,0,1,.782.085v2.136a3.192,3.192,0,0,0-1.026-.138,2.3,2.3,0,0,0-2.379,2.559v6.6H96.186Z" transform="translate(-20.307 -17.076)" fill="#fff"/>
        <path id="Path_1082" data-name="Path 1082" d="M111.251,29.324c-.307,2.019-2.274,3.405-4.79,3.405-3.236,0-5.245-2.168-5.245-5.646s2.019-5.752,5.149-5.752c3.078,0,5.013,2.114,5.013,5.487V27.6h-7.857v.138a2.9,2.9,0,0,0,2.992,3.151,2.517,2.517,0,0,0,2.569-1.565ZM103.533,26h5.561a2.675,2.675,0,0,0-2.728-2.823A2.816,2.816,0,0,0,103.533,26Z" transform="translate(-19.156 -17.08)" fill="#fff"/>
      </g>
    </g>
  </g>
  <g id="_Group_4" data-name="&lt;Group&gt;" transform="translate(43.827 10.366)">
    <g id="Group_823" data-name="Group 823">
      <path id="Path_1083" data-name="Path 1083" d="M38.319,8.733a3.243,3.243,0,0,1,3.45,3.643c0,2.342-1.266,3.688-3.45,3.688H35.671V8.733ZM36.81,15.027h1.382a2.3,2.3,0,0,0,2.418-2.637,2.311,2.311,0,0,0-2.418-2.622H36.81Z" transform="translate(-35.671 -8.371)" fill="#fff"/>
      <path id="Path_1084" data-name="Path 1084" d="M41.683,12.978a2.621,2.621,0,1,1,5.218,0,2.621,2.621,0,1,1-5.218,0Zm4.1,0c0-1.2-.539-1.9-1.484-1.9s-1.483.7-1.483,1.9.534,1.9,1.483,1.9S45.778,14.183,45.778,12.978Z" transform="translate(-34.299 -8.055)" fill="#fff"/>
      <path id="Path_1085" data-name="Path 1085" d="M52.717,15.727H51.585l-1.143-4.075h-.086l-1.139,4.075H48.094l-1.525-5.532h1.107l.991,4.222h.082l1.137-4.222h1.047l1.137,4.222h.086l.986-4.222h1.092Z" transform="translate(-33.179 -8.035)" fill="#fff"/>
      <path id="Path_1086" data-name="Path 1086" d="M53.854,10.216H54.9v.879h.082a1.656,1.656,0,0,1,1.651-.986,1.8,1.8,0,0,1,1.915,2.058v3.581H57.46V12.441c0-.889-.386-1.331-1.194-1.331a1.269,1.269,0,0,0-1.321,1.4v3.237H53.854Z" transform="translate(-31.514 -8.056)" fill="#fff"/>
      <path id="Path_1087" data-name="Path 1087" d="M59.094,8.437h1.092v7.692H59.094Z" transform="translate(-30.315 -8.437)" fill="#fff"/>
      <path id="Path_1088" data-name="Path 1088" d="M61.22,12.979a2.621,2.621,0,1,1,5.219,0,2.622,2.622,0,1,1-5.219,0Zm4.1,0c0-1.2-.539-1.9-1.484-1.9s-1.483.7-1.483,1.9.534,1.9,1.483,1.9S65.315,14.183,65.315,12.979Z" transform="translate(-29.832 -8.055)" fill="#fff"/>
      <path id="Path_1089" data-name="Path 1089" d="M66.4,14.183c0-1,.742-1.57,2.058-1.652l1.5-.086v-.478c0-.584-.386-.914-1.133-.914-.61,0-1.032.224-1.153.615H66.614c.112-.95,1.005-1.56,2.261-1.56,1.387,0,2.169.69,2.169,1.859v3.78H69.993V14.97h-.086a1.861,1.861,0,0,1-1.662.869A1.671,1.671,0,0,1,66.4,14.183Zm3.556-.473v-.463l-1.351.086c-.762.051-1.107.31-1.107.8s.432.788,1.026.788a1.3,1.3,0,0,0,1.433-1.209Z" transform="translate(-28.645 -8.055)" fill="#fff"/>
      <path id="Path_1090" data-name="Path 1090" d="M71.348,13.361c0-1.748.9-2.856,2.3-2.856a1.823,1.823,0,0,1,1.7.971h.082V8.437h1.092v7.692H75.468v-.874h-.086a1.92,1.92,0,0,1-1.737.965C72.237,16.22,71.348,15.113,71.348,13.361Zm1.128,0c0,1.173.553,1.88,1.478,1.88s1.489-.716,1.489-1.875-.575-1.88-1.489-1.88-1.478.711-1.478,1.875Z" transform="translate(-27.514 -8.437)" fill="#fff"/>
      <path id="Path_1091" data-name="Path 1091" d="M79.232,12.978a2.621,2.621,0,1,1,5.218,0,2.621,2.621,0,1,1-5.218,0Zm4.1,0c0-1.2-.539-1.9-1.484-1.9s-1.483.7-1.483,1.9.534,1.9,1.483,1.9S83.327,14.183,83.327,12.978Z" transform="translate(-25.714 -8.055)" fill="#fff"/>
      <path id="Path_1092" data-name="Path 1092" d="M84.669,10.216H85.72v.879H85.8a1.656,1.656,0,0,1,1.651-.986,1.8,1.8,0,0,1,1.915,2.058v3.581H88.276V12.441c0-.889-.386-1.331-1.194-1.331a1.269,1.269,0,0,0-1.321,1.4v3.237H84.669Z" transform="translate(-24.468 -8.056)" fill="#fff"/>
      <path id="Path_1093" data-name="Path 1093" d="M93.882,9.074v1.4h1.2v.92h-1.2v2.845c0,.58.239.833.782.833a3.645,3.645,0,0,0,.416-.025v.909a3.582,3.582,0,0,1-.594.056c-1.214,0-1.7-.427-1.7-1.494V11.4h-.878v-.92h.878v-1.4Z" transform="translate(-22.812 -8.291)" fill="#fff"/>
      <path id="Path_1094" data-name="Path 1094" d="M95.7,8.437h1.082v3.049h.086a1.7,1.7,0,0,1,1.687-.991,1.823,1.823,0,0,1,1.905,2.063v3.572H99.373v-3.3c0-.884-.412-1.331-1.183-1.331A1.292,1.292,0,0,0,96.8,12.9v3.231H95.7Z" transform="translate(-21.945 -8.437)" fill="#fff"/>
      <path id="Path_1095" data-name="Path 1095" d="M105.687,14.253a2.246,2.246,0,0,1-2.4,1.6A2.513,2.513,0,0,1,100.734,13a2.552,2.552,0,0,1,2.551-2.89c1.539,0,2.468,1.052,2.468,2.789v.381h-3.907v.061a1.462,1.462,0,0,0,1.473,1.585,1.326,1.326,0,0,0,1.316-.671Zm-3.841-1.783h2.794a1.335,1.335,0,0,0-1.362-1.433,1.415,1.415,0,0,0-1.433,1.433Z" transform="translate(-20.8 -8.055)" fill="#fff"/>
    </g>
  </g>
</svg>
