<svg id="_007-parking" data-name="007-parking" xmlns="http://www.w3.org/2000/svg" width="33.979" height="28.674" viewBox="0 0 33.979 28.674">
  <g id="Group_375" data-name="Group 375" transform="translate(26.339 2.76)">
    <g id="Group_374" data-name="Group 374" transform="translate(0 0)">
      <path id="Path_537" data-name="Path 537" d="M398.949,81.562H397.29a.364.364,0,0,0-.4.33h0v5.364c0,.223.264.338.536.338s.536-.115.536-.338V85.341h.924a1.723,1.723,0,0,0,1.939-1.873v-.049A1.68,1.68,0,0,0,398.949,81.562Zm.8,1.989c0,.644-.33.949-.866.949h-.924v-2h.924c.536,0,.866.305.866.949Z" transform="translate(-396.886 -81.562)" fill="#8cc63e"/>
    </g>
  </g>
  <g id="Group_377" data-name="Group 377" transform="translate(7.579 2.428)">
    <g id="Group_376" data-name="Group 376" transform="translate(0 0)">
      <path id="Path_538" data-name="Path 538" d="M126.069,78.983a8.294,8.294,0,0,0-11.729,0,.484.484,0,1,0,.684.685,7.326,7.326,0,0,1,10.36,0,.484.484,0,1,0,.685-.685Z" transform="translate(-114.198 -76.554)" fill="#8cc63e"/>
    </g>
  </g>
  <g id="Group_379" data-name="Group 379" transform="translate(9.576 5.255)">
    <g id="Group_378" data-name="Group 378" transform="translate(0 0)">
      <path id="Path_539" data-name="Path 539" d="M152.166,120.747a5.476,5.476,0,0,0-7.735,0,.484.484,0,0,0,.685.685,4.506,4.506,0,0,1,6.366,0,.484.484,0,1,0,.685-.685Z" transform="translate(-144.289 -119.147)" fill="#8cc63e"/>
    </g>
  </g>
  <g id="Group_381" data-name="Group 381" transform="translate(11.541 8.033)">
    <g id="Group_380" data-name="Group 380" transform="translate(0 0)">
      <path id="Path_540" data-name="Path 540" d="M177.849,161.8a2.693,2.693,0,0,0-3.8,0,.484.484,0,1,0,.685.685,1.724,1.724,0,0,1,2.435,0,.484.484,0,1,0,.685-.685Z" transform="translate(-173.903 -161.009)" fill="#8cc63e"/>
    </g>
  </g>
  <g id="Group_383" data-name="Group 383" transform="translate(4.114 14.705)">
    <g id="Group_382" data-name="Group 382" transform="translate(0 0)">
      <path id="Path_541" data-name="Path 541" d="M81.693,265.094c-.209-.115-.416-.241-.614-.375l-3.2-2.163a5.835,5.835,0,0,0-3.278-1H68.723a5.819,5.819,0,0,0-4.133,1.707,7.844,7.844,0,0,1-1.924,1.407,1.259,1.259,0,0,0,.58,2.377h2a.484.484,0,0,0,0-.968h-2a.291.291,0,0,1-.134-.55,8.813,8.813,0,0,0,2.161-1.581,4.857,4.857,0,0,1,3.45-1.425h1.316v3.555H68.43a.484.484,0,0,0,0,.968H81.7a.722.722,0,0,0,.722-.722A1.4,1.4,0,0,0,81.693,265.094Zm-10.687.982V262.52H74.6a4.87,4.87,0,0,1,2.736.838l3.2,2.163c.222.15.454.292.69.421a.451.451,0,0,1,.15.133Z" transform="translate(-61.987 -261.552)" fill="#8cc63e"/>
    </g>
  </g>
  <g id="Group_385" data-name="Group 385" transform="translate(12.353 20.933)">
    <g id="Group_384" data-name="Group 384">
      <path id="Path_542" data-name="Path 542" d="M188.121,355.388h-1.5a.484.484,0,1,0,0,.968h1.5a.484.484,0,1,0,0-.968Z" transform="translate(-186.142 -355.388)" fill="#8cc63e"/>
    </g>
  </g>
  <g id="Group_387" data-name="Group 387" transform="translate(0 0)">
    <g id="Group_386" data-name="Group 386" transform="translate(0 0)">
      <path id="Path_543" data-name="Path 543" d="M33.561,60.5l-.153-.254a3.984,3.984,0,0,0-2.63-1.847l-1.25-.249V51.812h3.234A1.209,1.209,0,0,0,33.971,50.6V41.178a1.209,1.209,0,0,0-1.208-1.208H23.336a1.209,1.209,0,0,0-1.208,1.208v3.576a.484.484,0,1,0,.968,0V41.178a.24.24,0,0,1,.24-.24h9.427a.24.24,0,0,1,.24.24V50.6a.24.24,0,0,1-.24.24H23.336a.24.24,0,0,1-.24-.24V47.9a.484.484,0,1,0-.968,0v2.7a1.209,1.209,0,0,0,1.208,1.208H27v5.832l-.642-.128a6.825,6.825,0,0,1-2.324-1.1l-3.2-2.163A7.314,7.314,0,0,0,16.726,53H10.849a7.293,7.293,0,0,0-5.181,2.14A6.357,6.357,0,0,1,2.478,56.86l-.695.146A2.253,2.253,0,0,0,0,59.2v4.688a1.418,1.418,0,0,0,.841,1.294l1.928.857a3.209,3.209,0,0,0,6.242.264H25.087a3.209,3.209,0,0,0,6.179,0h.918a1.8,1.8,0,0,0,1.795-1.795V62A2.912,2.912,0,0,0,33.561,60.5Zm-5.59-8.684h.59v6.142l-.59-.117ZM7.508,67.019A2.243,2.243,0,0,1,3.881,64.5l.009-.02c.011-.025.024-.049.036-.073l.018-.034.035-.063L4,64.269l.034-.054.032-.048.033-.047.04-.053.032-.041.049-.058.028-.033q.037-.041.076-.081l.007-.007.015-.015.067-.064.018-.016c.023-.02.046-.04.069-.059l.007-.005a2.247,2.247,0,0,1,2.823,0l0,0c.025.02.05.042.074.063l.013.011q.042.038.083.079c.029.029.057.059.085.09l.035.041.042.05.045.058.024.033q.027.037.052.074L7.8,64.2A2.247,2.247,0,0,1,7.508,67.019Zm22.255,0A2.243,2.243,0,0,1,26.3,64.2l.008-.012q.025-.038.052-.074l.024-.032.045-.058.042-.05.035-.041c.027-.03.055-.06.085-.09a2.243,2.243,0,0,1,3.172,0c.029.029.057.059.085.09l.035.041.042.05.045.058.024.033c.018.024.035.049.052.074l.008.013A2.247,2.247,0,0,1,29.762,67.019Zm3.248-2.51h0a.828.828,0,0,1-.827.827h-.8a3.171,3.171,0,0,0-.713-1.921l-.009-.011c-.028-.034-.056-.067-.085-.1l-.022-.025c-.031-.034-.063-.067-.1-.1l-.016-.017a3.192,3.192,0,0,0-1.486-.845,3.259,3.259,0,0,0-1.416-.034,3.189,3.189,0,0,0-1.639.879l-.016.017c-.033.033-.065.066-.1.1l-.021.024c-.029.033-.058.066-.086.1l-.008.01a3.172,3.172,0,0,0-.713,1.922H9.132a3.171,3.171,0,0,0-.715-1.924L8.411,63.4c-.029-.036-.06-.071-.09-.105L8.3,63.279q-.054-.06-.112-.118a3.215,3.215,0,0,0-4.541,0c-.036.036-.07.072-.1.11l-.03.033-.07.082-.03.037q-.036.044-.069.09l-.021.028q-.091.125-.169.256l0,.007q-.038.065-.073.131l0,0a3.191,3.191,0,0,0-.334,1.029L1.235,64.3a.449.449,0,0,1-.266-.41V59.2a1.28,1.28,0,0,1,1.014-1.248l.695-.146a7.323,7.323,0,0,0,3.676-1.984,6.331,6.331,0,0,1,4.5-1.858h5.877a6.35,6.35,0,0,1,3.567,1.092l3.2,2.163a7.719,7.719,0,0,0,2.677,1.246l4.418.879a3.014,3.014,0,0,1,1.989,1.4l.153.254a1.941,1.941,0,0,1,.279,1Z" transform="translate(0 -39.97)" fill="#8cc63e"/>
    </g>
  </g>
  <g id="Group_389" data-name="Group 389" transform="translate(4.452 23.993)">
    <g id="Group_388" data-name="Group 388" transform="translate(0 0)">
      <path id="Path_544" data-name="Path 544" d="M69.589,401.93a1.47,1.47,0,1,0,0,2.078A1.46,1.46,0,0,0,69.589,401.93Zm-.685,1.394a.5.5,0,1,1,0-.709A.5.5,0,0,1,68.9,403.324Z" transform="translate(-67.08 -401.5)" fill="#8cc63e"/>
    </g>
  </g>
  <g id="Group_391" data-name="Group 391" transform="translate(26.707 23.993)">
    <g id="Group_390" data-name="Group 390" transform="translate(0 0)">
      <path id="Path_545" data-name="Path 545" d="M404.938,401.93a1.47,1.47,0,1,0,.43,1.039A1.46,1.46,0,0,0,404.938,401.93Zm-.685,1.394a.5.5,0,1,1,.147-.355A.5.5,0,0,1,404.254,403.324Z" transform="translate(-402.43 -401.5)" fill="#8cc63e"/>
    </g>
  </g>
</svg>
