<svg xmlns="http://www.w3.org/2000/svg" width="21.453" height="21.624" viewBox="0 0 21.453 21.624">
  <g id="_004-sofa" data-name="004-sofa" transform="translate(-2.02)">
    <g id="Group_45" data-name="Group 45" transform="translate(2.02 0)">
      <circle id="Ellipse_265" data-name="Ellipse 265" cx="0.384" cy="0.384" r="0.384" transform="translate(10.343 2.578)" fill="#fff"/>
      <ellipse id="Ellipse_266" data-name="Ellipse 266" cx="0.384" cy="0.384" rx="0.384" ry="0.384" transform="translate(12.2 2.606) rotate(-4.069)" fill="#fff"/>
      <ellipse id="Ellipse_267" data-name="Ellipse 267" cx="0.384" cy="0.384" rx="0.384" ry="0.384" transform="translate(8.433 3.309) rotate(-84.318)" fill="#fff"/>
      <circle id="Ellipse_268" data-name="Ellipse 268" cx="0.384" cy="0.384" r="0.384" transform="translate(10.343 5.991)" fill="#fff"/>
      <ellipse id="Ellipse_269" data-name="Ellipse 269" cx="0.384" cy="0.384" rx="0.384" ry="0.384" transform="translate(12.201 6.021) rotate(-4.069)" fill="#fff"/>
      <ellipse id="Ellipse_270" data-name="Ellipse 270" cx="0.384" cy="0.384" rx="0.384" ry="0.384" transform="translate(8.433 6.723) rotate(-84.318)" fill="#fff"/>
      <path id="Path_257" data-name="Path 257" d="M269.132,105.87a.384.384,0,1,0,.384-.384A.384.384,0,0,0,269.132,105.87Z" transform="translate(-257.851 -101.031)" fill="#fff"/>
      <path id="Path_258" data-name="Path 258" d="M313.579,105.87a.384.384,0,1,0,.384-.384A.384.384,0,0,0,313.579,105.87Z" transform="translate(-300.421 -101.031)" fill="#fff"/>
      <path id="Path_259" data-name="Path 259" d="M224.685,105.87a.384.384,0,1,0,.384-.384A.384.384,0,0,0,224.685,105.87Z" transform="translate(-215.281 -101.031)" fill="#fff"/>
      <path id="Path_260" data-name="Path 260" d="M180.238,105.87a.384.384,0,1,0,.384-.384A.384.384,0,0,0,180.238,105.87Z" transform="translate(-172.711 -101.031)" fill="#fff"/>
      <path id="Path_261" data-name="Path 261" d="M46.467,233.336a1,1,0,1,0,1-1A1,1,0,0,0,46.467,233.336Zm1.365,0a.366.366,0,1,1-.366-.366A.366.366,0,0,1,47.832,233.336Z" transform="translate(-44.59 -222.524)" fill="#fff"/>
      <path id="Path_262" data-name="Path 262" d="M419.206,234.336a1,1,0,1,0-1-1A1,1,0,0,0,419.206,234.336Zm0-1.365a.366.366,0,1,1-.366.366A.366.366,0,0,1,419.206,232.971Z" transform="translate(-400.63 -222.524)" fill="#fff"/>
      <path id="Path_263" data-name="Path 263" d="M20.6,7.935a2.872,2.872,0,0,0-.707.088v-2.7a.317.317,0,0,0-.634,0V8.268a2.879,2.879,0,0,0-1.536,2.544v.519a1.588,1.588,0,0,0-.963-.324H8.736a1.588,1.588,0,0,0-.963.324v-.519A2.879,2.879,0,0,0,6.237,8.268V2.877A2.246,2.246,0,0,1,8.48.634h8.533a2.246,2.246,0,0,1,2.243,2.243v.958a.317.317,0,0,0,.634,0V2.877A2.88,2.88,0,0,0,17.013,0H8.48A2.88,2.88,0,0,0,5.6,2.877V8.024A2.877,2.877,0,0,0,3.983,13.54v1.413a.317.317,0,0,0,.634,0V13.675c.093.009.187.014.28.014a2.856,2.856,0,0,0,1.151-.24.317.317,0,1,0-.254-.58,2.227,2.227,0,0,1-.9.186A2.258,2.258,0,0,1,4.381,13l-.008,0A2.243,2.243,0,1,1,7.14,10.812V19.54H6.006a1.391,1.391,0,0,1-1.39-1.39V16.439a.317.317,0,0,0-.634,0V18.15a2.025,2.025,0,0,0,2.023,2.023h.409v.409a1.042,1.042,0,0,0,2.084,0v-.409h8.5v.409a1.042,1.042,0,0,0,2.084,0v-.409h.409a2.025,2.025,0,0,0,2.023-2.023V16.439a.317.317,0,0,0-.634,0V18.15a1.391,1.391,0,0,1-1.389,1.39H18.354V10.812a2.243,2.243,0,1,1,2.767,2.181l-.008,0a2.258,2.258,0,0,1-.516.06,2.227,2.227,0,0,1-.9-.186.317.317,0,1,0-.254.58,2.856,2.856,0,0,0,1.151.24c.094,0,.187,0,.28-.014v1.278a.317.317,0,1,0,.634,0V13.54a2.877,2.877,0,0,0-.914-5.6ZM7.773,19.54V18.182H17.72V19.54Zm0-3.982V14.2H17.72v1.357Zm9.947.634v1.357H7.773V16.191ZM8.736,11.641h8.021a.964.964,0,0,1,.963.963v.963H7.773V12.6a.964.964,0,0,1,.963-.962Zm-.871,8.941a.409.409,0,1,1-.817,0v-.409h.817Zm10.581-.409v.409a.409.409,0,1,1-.817,0v-.409Z" transform="translate(-2.02 0)" fill="#fff"/>
    </g>
  </g>
</svg>
