<svg id="_003-thumbs" data-name="003-thumbs" xmlns="http://www.w3.org/2000/svg" width="21.743" height="21.743" viewBox="0 0 21.743 21.743">
  <g id="Group_42" data-name="Group 42" transform="translate(0 6.342)">
    <g id="Group_41" data-name="Group 41">
      <path id="Path_255" data-name="Path 255" d="M4.077,22.4H1.359A1.361,1.361,0,0,1,0,21.042V8.359A1.361,1.361,0,0,1,1.359,7H4.077A1.361,1.361,0,0,1,5.436,8.359V21.042A1.361,1.361,0,0,1,4.077,22.4ZM1.359,7.906a.453.453,0,0,0-.453.453V21.042a.453.453,0,0,0,.453.453H4.077a.453.453,0,0,0,.453-.453V8.359a.453.453,0,0,0-.453-.453Z" transform="translate(0 -7)" fill="#fff"/>
    </g>
  </g>
  <g id="Group_44" data-name="Group 44" transform="translate(4.53 0)">
    <g id="Group_43" data-name="Group 43">
      <path id="Path_256" data-name="Path 256" d="M17.079,21.743H15.419c-6.861,0-10.1-2.253-10.229-2.349a.453.453,0,0,1,.525-.738c.032.023,3.163,2.182,9.7,2.182h1.661a3.16,3.16,0,0,0,3.127-2.649l1.057-6.342a3.172,3.172,0,0,0-3.128-3.693H12.7a.454.454,0,0,1-.378-.7,6.628,6.628,0,0,0,.831-3.374c0-2.509-1.185-3.171-1.812-3.171-.446,0-.906,0-.906,2.265,0,3.412-4.585,5.743-4.78,5.841A.453.453,0,0,1,5.25,8.2c.043-.022,4.28-2.18,4.28-5.031C9.53,1.213,9.832,0,11.342,0c.94,0,2.718.852,2.718,4.077a8.1,8.1,0,0,1-.62,3.171h4.7a4.076,4.076,0,0,1,4.022,4.746L21.1,18.336a4.064,4.064,0,0,1-4.021,3.407Z" transform="translate(-5 0)" fill="#fff"/>
    </g>
  </g>
</svg>
