<svg id="_006-voicemail" data-name="006-voicemail" xmlns="http://www.w3.org/2000/svg" width="31.041" height="27.631" viewBox="0 0 31.041 27.631">
  <path id="Path_535" data-name="Path 535" d="M27.7.5H3.345A3.348,3.348,0,0,0,0,3.845V22.352A3.348,3.348,0,0,0,3.345,25.7h9.364l2.169,2.169a.91.91,0,0,0,1.286,0L18.332,25.7H27.7a3.348,3.348,0,0,0,3.345-3.345V3.845A3.348,3.348,0,0,0,27.7.5Zm1.526,21.852A1.527,1.527,0,0,1,27.7,23.878H17.956a.909.909,0,0,0-.643.266L15.52,25.936l-1.792-1.792a.909.909,0,0,0-.643-.266H3.345a1.527,1.527,0,0,1-1.526-1.526V3.845A1.527,1.527,0,0,1,3.345,2.319H27.7a1.527,1.527,0,0,1,1.526,1.526Zm0,0" transform="translate(0 -0.5)" fill="#8cc63e"/>
  <path id="Path_536" data-name="Path 536" d="M97.248,135.918a4.385,4.385,0,0,0-3.554,6.958H88.278a4.386,4.386,0,1,0-3.554,1.819H97.248a4.388,4.388,0,1,0,0-8.776Zm-15.093,4.388a2.569,2.569,0,1,1,2.569,2.57A2.572,2.572,0,0,1,82.155,140.306Zm15.093,2.569a2.569,2.569,0,1,1,2.57-2.569A2.572,2.572,0,0,1,97.248,142.875Zm0,0" transform="translate(-75.465 -127.708)" fill="#8cc63e"/>
</svg>
